<svg width="216" height="94" viewBox="0 0 216 94" fill="none" xmlns="http://www.w3.org/2000/svg">
<path opacity="0.63" d="M62.415 36.597C62.6053 36.5499 62.7956 36.5656 62.9859 36.6597C63.0335 36.8164 63.0493 36.9731 63.0493 37.1299C62.7005 37.1299 62.4785 36.9418 62.415 36.597Z" fill="white"/>
<path d="M40.0879 89.7634C41.4516 89.7321 39.3585 89.4186 40.9917 89.6537C40.8015 89.7948 40.5319 89.8888 40.0879 89.7634Z" fill="white"/>
<path d="M39.3427 85.2021C38.978 80.7351 41.2614 75.3275 42.419 70.7037C42.5934 70.1708 42.8471 71.0172 43.196 69.7946C43.6717 67.5062 44.8927 64.7476 46.4308 62.036C48.0007 59.3401 49.9987 56.7539 51.8698 54.6379L51.7906 54.9984C52.5041 54.1991 52.9323 52.8981 53.6775 52.036C53.7568 52.0831 53.5665 52.4122 53.8203 52.2868C53.7727 51.8793 55.0413 50.6411 55.1998 50.1395C55.5804 49.873 55.7231 50.0455 56.1988 49.7006L56.405 49.011C57.0551 47.1458 59.4813 45.8762 61.0828 43.964C61.0511 44.105 60.8925 44.3088 61.0828 44.2304C63.731 41.221 67.8697 38.3213 71.6912 35.9546C71.5961 36.1427 71.5644 36.4091 71.8498 36.3934C71.8498 35.9859 73.0074 35.2022 74.0539 34.6066C74.7041 34.6693 75.7348 33.3527 77.1302 32.9608L77.0509 33.0862C77.8438 32.3182 78.5415 32.616 79.1441 31.895H79.8735C80.1114 31.2681 81.3641 31.5502 82.0935 31.0329L82.0301 30.9389C82.7595 30.5471 83.2511 30.6411 83.9329 30.3119L84.0122 30.3433C85.6455 29.638 86.7238 29.6536 86.5652 29.2775C87.2471 29.4029 84.9636 29.9044 86.0261 30.0612C91.4492 27.9452 97.4749 27.0047 103.326 26.7383C103.992 26.848 104.42 26.9264 104.579 27.0518C105.166 26.9734 106.767 26.942 107.306 26.7696C107.116 26.7696 107.687 26.9734 107.988 27.0047C109.051 27.1928 109.162 26.6129 110.335 26.848C109.859 26.9264 109.701 27.0361 109.843 27.1928C110.858 26.942 112.19 27.0831 113.364 27.0988C113.173 27.1458 112.888 27.1615 112.92 27.2869C114.236 27.0518 115.251 27.5847 116.392 27.4906L115.948 27.663C117.724 28.1489 116.535 27.2555 118.073 27.616C117.693 27.6317 117.804 27.7414 117.724 27.8198C119.231 27.6003 121.562 28.0706 123.037 28.1489C122.941 28.1646 122.957 28.2273 122.957 28.2273C124.543 28.4154 126.16 28.7916 127.921 28.8856C128.539 29.0894 127.635 29.4029 129.3 29.5753C129.3 29.1207 132.154 29.8261 131.251 29.1677C132.662 29.4499 134.882 29.9828 135.865 29.9985C135.199 30.0612 136.468 30.6568 135.278 30.5L136.119 30.9232C135.96 31.08 135.215 30.7038 135.453 30.9859C136.039 31.0643 137.8 31.2054 138.307 31.3778C139.449 31.3151 140.559 31.0173 142.335 31.3778C141.463 31.3464 142.684 31.9734 142.097 31.9107C142.985 31.8323 143.873 31.7696 144.761 31.7226C145.348 31.8793 144.777 32.0988 145.649 32.2398C145.649 32.1144 146.029 32.1615 146.315 32.1458C146.521 32.2398 148.741 32.8668 148.82 33.3684C149.011 33.6191 147.869 33.1176 148.44 33.4938C149.47 33.8856 149.581 33.7759 150.612 34.1834V34.2461C151.246 34.6066 152.674 34.9358 152.039 34.4028C151.579 34.1834 152.103 34.732 151.468 34.3088C152.055 34.2618 153.276 34.7477 154.275 35.2336C153.895 35.1395 153.895 35.2649 153.688 35.3119C155.195 35.6411 156.654 36.2994 158.192 36.9891C158.319 36.8166 157.447 37.0204 157.288 36.801C159.016 38.0862 161.347 38.6662 162.6 40.0141C162.331 39.8887 162.632 39.6693 162.616 39.732C163.472 40.3119 163.25 40.547 163.884 40.8292C163.837 41.0173 164.614 41.2524 165.216 41.5972C165.581 41.6912 165.312 41.7696 164.804 41.4405C165.692 41.848 169.006 43.8386 170.624 45.3589C170.655 45.2336 171.987 45.8135 172.384 46.127L172.051 46.2367C172.32 46.6442 173.43 47.2241 173.351 47.4749C174.429 47.8511 169.831 45.2179 171.163 45.8762C171.321 46.2837 173.066 46.7383 172.59 46.848C173.415 47.4436 174.398 47.7884 175.016 48.5721C174.81 48.3683 174.112 48.384 174.794 48.8699C175.983 49.7006 175.206 49.011 176.205 49.6379L176.871 49.9984C177.078 49.8103 177.886 50.8135 177.648 50.2492C177.648 50.5314 179.409 51.4404 179.012 51.7069L178.632 51.8636C179.139 52.2398 179.678 52.2085 180.17 52.3965C180.217 52.4749 180.297 52.6317 180.233 52.663C180.661 52.3025 181.375 53.6505 182.215 53.8386C183.103 54.8417 184.737 56.1426 184.943 56.8323C185.783 57.4436 186.592 58.0078 187.29 58.9796C187.099 58.8385 186.861 58.6034 186.735 58.6191C187.099 59.2774 187.337 59.3244 187.829 59.7947C187.686 59.7163 188.511 61.1426 188.828 61.9263C189.541 62.663 189.589 62.2241 189.795 62.2084C189.874 63.2743 191.698 64.4812 191.809 65.7821C191.571 65.5 190.857 64.5909 191.143 65.4059C191.111 66.4718 192.396 66.8793 192.792 68.3683L193.046 67.8511C193.093 68.5721 194.172 69.826 193.68 69.8417C194.029 70.2649 194.172 71.5658 194.52 71.268C195.028 73.7131 196.328 77.13 195.71 78.7758C195.773 78.9169 195.821 79.3714 195.837 79.7006C195.852 80.0297 195.868 80.2805 195.979 80.1708C196.281 79.3714 195.757 78.9482 195.916 78.7601C195.963 79.0736 196.106 79.2617 196.17 79.2774C196.138 80.4373 195.837 81.1739 195.678 80.1395C195.551 80.688 195.424 81.0642 195.282 81.409C195.06 81.9106 194.869 82.3181 194.441 82.7413C194.219 82.9451 193.934 83.1332 193.521 83.2899C193.125 83.4467 192.554 83.5407 192.142 83.5407C192.253 83.3526 192.015 83.3056 191.397 83.3683L190.223 83.7288C188.828 83.7288 189.414 83.3526 189.367 83.0548C188.637 83.1332 187.718 83.1645 187.401 83.4153L186.481 83.0705C187.147 83.3213 185.878 83.2742 185.545 83.3683L185.894 83.2742C185.751 83.1489 184.895 83.2742 184.467 83.3213C184.578 83.5093 185.45 83.5407 185.942 83.5721C185.577 83.7288 184.974 83.7131 184.483 83.9012C184.626 83.6034 183.262 83.7445 182.675 83.7445C181.993 83.7131 181.93 84.0423 181.74 84.0423C181.708 83.8855 180.63 84.0736 181.153 83.8228C181.375 83.7601 181.692 83.9482 182.057 83.7915C181.613 83.6974 181.644 83.431 180.725 83.6661C180.043 83.8385 180.931 84.246 179.615 84.1206C179.964 84.0266 180.011 83.9012 180.281 83.7915L179.044 83.6974L179.012 83.9639C178.838 83.9012 178.949 83.8699 178.869 83.8385C178.521 84.1363 176.982 84.0109 176.729 84.3401C176.11 84.4028 175.413 84.2147 174.81 84.2147L174.921 84.1833C174.192 84.0579 173.224 84.199 172.622 84.4184L172.653 84.3558C172.257 84.3558 171.321 84.4341 170.83 84.6222C169.815 84.4655 170.433 83.6191 169.339 84.0109C168.324 84.0736 167.769 84.5752 168.198 84.7319C166.358 84.6379 164.297 85.1708 162.584 84.826C162.33 84.9514 162.489 85.0141 161.966 85.0924C159.27 85.0924 156.305 85.6724 154.148 85.2335C154.925 85.0767 154.18 84.967 154.148 84.8103C153.514 85.0768 153.355 84.5909 153.149 85.0141C153.229 85.2492 153.165 85.3745 153.926 85.4372C152.325 85.641 149.899 85.7507 148.995 85.5626C149.439 85.6567 149.106 85.7507 148.757 85.8291C148.852 85.4372 147.663 85.4216 146.775 85.6097L146.664 85.8604L146.077 85.641C145.744 85.7351 145.728 86.1583 144.824 85.9702C144.777 85.8761 144.713 85.7821 144.555 85.7351C143.635 85.9702 142.351 86.362 141.336 86.2053L140.495 85.8918C140.067 85.9545 139.354 86.1896 140.115 86.2523C138.386 86.1269 137.292 86.1426 136.721 85.8604C133.804 86.7225 129.522 86.9576 126.097 87.0517L126.192 86.8636C125.257 86.7382 125.732 87.1927 125.082 87.0987C125.368 86.9106 124.369 86.7539 125.082 86.5188C123.75 86.3934 123.401 86.9106 122.545 87.0203C122.434 87.2554 123.227 86.8322 123.068 87.1457C122.926 87.2398 121.229 87.0517 121.054 87.4122C120.721 87.2868 120.959 87.0203 121.134 86.8636L120.341 87.0673C119.342 86.6912 122.545 86.221 121.498 85.7664L120.753 85.8604C120.024 85.5156 122.704 85.3589 120.832 85.3119C120.04 85.5156 119.358 86.0642 120.087 86.1896C118.406 86.362 119.342 87.0673 117.534 87.13C117.027 86.9419 118.977 87.0203 118.612 86.7382C117.74 86.4874 116.916 86.9733 116.139 86.9106C116.979 87.0046 116.297 87.3965 115.742 87.4905C114.807 87.3652 116.329 87.13 115.013 87.1457C114.807 87.3651 113.617 87.5689 114.664 87.663C114.22 88.1488 113.3 87.6003 112.603 87.9921C112.159 87.6786 113.903 87.1771 112.476 87.083C112.714 87.3808 110.731 87.5846 111.508 88.0234C110.938 87.9608 110.874 87.71 111.271 87.5062C110.462 87.3495 109.352 88.1645 109.051 87.5532L108.797 87.8824C108.543 87.7883 108.178 87.7256 107.766 87.5689C107.053 87.6003 105.514 88.1018 105.546 87.6159C105.324 87.6786 103.707 87.7256 104.341 88.0391C105.356 88.1959 105.483 87.7413 106.069 88.1645C105.34 87.8197 104.626 88.2742 104.056 88.431L103.96 88.2429C103.612 88.3369 102.819 88.3213 102.613 88.5407C102.866 88.4153 102.724 88.3056 102.454 88.2742L102.105 88.572C100.71 88.7758 101.756 88.0862 100.393 88.2272L101.423 87.9608C101.201 88.0234 100.726 87.7727 100.075 87.8981C99.8376 88.1645 99.3778 88.5093 99.1558 88.7131C98.3946 88.8542 98.791 88.431 98.0458 88.7288L99.0289 88.3683C99.1716 88.2742 98.347 87.9608 97.3163 88.0234C96.6662 88.1488 95.6672 88.572 96.6979 88.6661C96.1746 88.6974 95.4452 88.572 95.8575 88.3526C94.6999 88.4937 96.016 88.6191 95.017 88.8385C94.6048 88.6818 93.3045 88.4937 92.5116 88.2742L93.5423 87.7883L92.8446 87.8197C93.7326 87.4278 92.3689 87.5689 92.8763 87.1771C92.4006 87.1457 91.8298 87.2868 91.3699 87.4122C92.7971 87.9451 89.8318 88.2899 90.2599 88.8071C88.3571 89.0423 89.0072 87.5532 87.0409 88.478C87.3739 88.6034 86.4542 89.0579 87.6435 88.8385C86.4542 88.8385 86.8506 89.4184 85.4394 89.2617C86.4701 88.9952 84.2976 88.7601 85.7882 88.384C85.6931 88.572 86.6286 88.478 86.8665 88.4153C86.3591 88.2272 86.9458 87.8667 85.7248 87.9294C84.9795 88.0078 83.9646 88.0705 84.1232 88.3369C84.1708 88.6504 85.2649 88.2586 84.7892 88.5877C83.3145 88.7601 83.0449 88.3056 82.4582 88.8855C83.3938 88.8072 83.6475 89.105 83.6316 89.3244L82.5534 89.4968L82.7595 89.2774C81.0152 89.2147 82.2679 89.6692 80.5712 89.7006L79.7625 89.3244C80.1431 88.9639 82.2204 89.3714 81.9032 88.8071C80.8091 88.8385 80.4444 89.1363 79.4137 89.0423C79.6357 88.9796 79.9528 88.9482 80.1906 88.9012C79.7942 88.9012 79.3661 88.1645 77.8279 88.6818C77.0192 88.8855 77.6218 88.9012 77.6059 89.105C75.8458 89.246 75.3225 89.4968 74.1967 89.5752C74.4187 89.152 72.1828 89.6222 73.4197 89.152C74.0064 89.3714 76.5594 89.2303 77.1619 88.8071C76.4959 88.3526 78.5574 88.8071 78.9062 88.3056C77.4949 88.3526 77.5425 87.8667 77.3047 87.5689C76.9082 87.5689 76.5435 87.71 76.3057 87.7727C76.1471 88.0862 76.6704 88.0548 76.7021 88.3526C75.1164 88.3526 73.6099 88.572 72.7537 88.9012C72.2145 88.7758 72.3731 88.478 72.9915 88.4153C71.1204 88.5877 69.1065 88.6347 67.3147 88.6347C68.4881 89.0736 65.3325 88.8385 66.1254 89.2147C67.0927 89.2774 67.9172 89.5908 67.4098 89.826C66.8072 89.826 67.4098 89.6065 67.172 89.5125C66.4267 89.8103 65.9668 89.1363 65.2374 89.5908C66.95 89.3557 65.5545 88.9796 65.8558 88.5877C64.619 88.8542 65.9034 88.3213 64.6824 88.3683C63.4614 88.6347 61.955 88.8699 60.5754 89.0109C58.847 88.7288 56.2147 89.199 54.6765 89.293C53.8678 89.1363 54.3911 88.6818 53.519 88.6504C52.4883 88.7131 54.296 89.0736 52.7737 88.9482L52.9164 88.8542C52.4565 88.9796 50.1256 88.6818 49.6974 89.3244L50.1414 88.8385C49.856 88.8072 49.6023 88.9325 49.3644 88.9952C49.3486 88.8385 49.0156 88.7131 49.4754 88.6034C48.524 88.3213 47.5091 88.7445 46.4943 88.8071L47.1603 89.0579C45.4318 89.3557 44.2426 89.1363 42.5617 89.3087L42.6093 89.0423L41.6103 89.246C41.8481 88.9796 40.9284 88.8385 40.4051 89.0893L42.9899 88.3056C43.7193 88.431 42.2129 88.6661 42.6727 88.9169C43.0691 89.1363 44.6231 88.9952 44.861 88.7131C44.2584 88.7131 44.2426 88.7758 43.7827 88.8855C43.5766 88.525 44.4804 88.4937 44.9244 88.2272C44.6073 88.2586 44.1633 88.1645 44.0999 88.2899C44.7024 88.0705 45.3208 88.0234 46.3516 87.9608C45.6697 88.1332 46.7321 88.1802 46.4784 88.2899C46.5418 87.9608 47.525 87.804 48.7936 87.851C49.7133 88.1959 51.1563 87.4905 52.631 87.5376C52.0443 87.8981 51.299 88.1959 50.411 88.384C51.3307 88.5093 51.4417 88.3213 52.3614 88.4623C52.7896 88.1959 53.1067 87.7883 54.296 87.5846L54.3753 87.8354C55.4535 87.663 55.4377 87.2868 56.8331 87.3024C59.2117 87.3024 61.6537 87.2084 63.4614 87.1614L63.5407 87.4122C64.5238 86.8322 66.8865 87.0673 68.2344 86.7695C70.5495 86.9106 73.2294 86.2993 74.4345 86.6755C78.4939 86.2993 82.0459 85.9545 86.2639 85.8604L85.5662 86.2523C86.3115 85.9545 86.0578 86.4404 86.8031 86.3463C85.9468 86.0956 87.8179 85.9231 88.3253 85.688C90.2123 85.8761 92.6068 85.4686 94.2559 85.1394L94.3352 85.3902C96.0002 84.8573 98.0299 85.1708 100.123 85.1394C100.361 85.2335 100.757 85.4529 101.376 85.3902C102.502 84.9357 103.088 84.9357 104.753 84.6222C105.974 84.5595 107.956 84.5752 109.193 84.6692C113.744 83.9012 118.438 84.0423 123.179 83.4937L123.544 83.7758C128.127 82.9451 133.835 83.2586 137.752 82.757L137.403 83.2742C138.64 83.3683 140.21 83.0235 139.877 82.6786C141.13 82.7727 142.953 82.3025 143.762 82.6786C145.03 82.71 145.3 82.3808 146.347 82.2711C148.884 82.3495 149.835 82.2711 152.214 82.0517H151.627C151.373 82.1614 151.357 82.3808 151.96 82.3808C152.848 82.2084 155.242 82.3808 154.323 81.8166C156.892 82.0517 160.253 81.268 162.759 81.6128C162.537 81.4561 163.171 81.3934 163.425 81.2837C165.66 81.1739 168.023 81.3934 169.799 81.0485C170.164 81.1112 169.244 81.3464 170.164 81.3307C170.703 81.2523 170.164 81.1112 170.83 81.0015C174.429 80.5313 178.188 80.9858 181.47 80.7507C183.674 80.5313 185.91 80.3746 188.162 80.2648C189.288 80.2022 190.398 80.1551 191.508 80.1081C191.777 80.1081 191.983 80.0768 192.189 80.0454C192.3 80.0297 192.332 80.0297 192.396 80.0141C192.507 79.9827 192.633 79.92 192.697 79.8103C192.744 79.7476 192.76 79.6692 192.76 79.5909V79.4655L192.729 79.199C192.633 78.5564 192.538 77.9137 192.411 77.2711L192.538 77.3025C191.793 75.6881 192.031 73.1489 190.873 72.036C190.842 71.6128 190.35 70.5313 190.683 70.7351C189.874 69.5595 189.335 66.989 187.876 65.4686C187.956 65.641 188.035 65.7194 188.193 65.8762C187.353 63.9639 185.989 62.6943 184.737 60.9075C184.927 61.0486 185.212 61.315 185.355 61.2994C184.974 60.5 183.658 60.1238 183.738 59.4028C183.389 59.058 183.294 59.3558 183.5 59.5595C180.312 55.9075 175.777 53.0549 171.496 50.0141C168.705 47.5063 171.908 49.105 169.26 47.6944C169.133 47.4593 168.99 47.7727 169.022 47.6473C168.007 47.0988 167.976 46.0799 167.151 45.8605C167.199 46.3307 166.612 45.7038 166.453 45.8605C164.741 44.3558 164.535 43.8386 162.901 43.0549L163.123 42.9765C161.094 42.2398 159.191 40.7038 157.351 40.3433C152.372 37.4906 147.266 35.3746 141.891 34.1834C136.515 32.9608 130.886 32.3652 125.193 31.4875C119.611 30.5627 114.141 29.779 108.702 29.5909C103.279 29.4029 97.8555 29.8417 92.4006 30.8605C91.0686 30.8605 90.3709 30.9859 89.6415 31.1113C88.9121 31.2524 88.1826 31.5032 86.8506 32.0204C86.9299 31.9107 87.1043 31.848 86.8982 31.8323C86.8823 32.2555 84.9795 32.4436 84.8526 32.9295C80.9518 34.1991 77.5108 35.8135 73.8319 37.8668C74.3869 37.4906 74.5297 37.0517 73.8319 37.4593L73.2452 38.1019L73.0708 38.0706C72.6268 38.3997 72.2304 38.8543 72.7695 38.6818C68.2978 41.4718 64.0798 44.5596 60.2741 48.0705C56.4367 51.5658 53.075 55.5784 50.3793 59.9827C48.9363 61.9733 47.3823 65.1238 46.3991 67.6003C42.7044 74.5595 40.3893 81.6128 40.1831 89.7006C40.1831 89.7006 39.9453 89.4184 39.7233 88.7131C39.5171 88.0078 39.2317 86.8636 39.3744 85.1708L39.3427 85.2021Z" fill="white"/>
<path d="M39.2477 88.3369C39.5489 88.525 40.5162 88.5877 39.7551 88.8855C39.6599 88.6974 39.1525 88.5093 39.2477 88.3369Z" fill="white"/>
<path d="M64.8888 89.2305C64.8888 89.2305 65.2536 89.2932 65.3328 89.3245C65.0157 89.3559 64.7303 89.5283 64.4766 89.4499C64.7937 89.4186 64.7461 89.3245 64.8888 89.2305Z" fill="white"/>
<path d="M71.4377 89.0581C71.3426 89.2462 69.9471 89.45 69.1226 89.497L71.4377 89.0581Z" fill="white"/>
<path d="M77.5586 89.5127C78.0977 89.6381 77.955 89.7321 77.2414 89.7635C77.1939 89.6694 77.4159 89.6067 77.5586 89.5127Z" fill="white"/>
<path d="M77.9707 89.0892C78.4781 89.0578 78.7318 89.1519 78.9855 89.2459C78.9538 89.0892 77.8121 89.4026 77.9707 89.0892Z" fill="white"/>
<path d="M91.2115 89.0109C91.5287 88.9796 92.2105 88.8071 92.5118 88.9952C92.1788 88.8698 90.9737 89.293 91.2115 89.0109Z" fill="white"/>
<path d="M97.3481 88.4625C97.5543 88.4625 97.6336 88.4938 97.8556 88.4312C98.2203 88.4938 97.8556 88.6506 97.5384 88.6819L97.3481 88.4625Z" fill="white"/>
<path d="M192.507 66.9419C192.634 67.13 192.761 67.3181 192.887 67.5218H192.681L192.507 66.9419Z" fill="white"/>
<path d="M155.068 35.2338C154.418 35.03 154.719 34.8733 154.64 34.7949C155.195 35.0457 154.338 34.889 155.068 35.2338Z" fill="white"/>
<path d="M129.158 29.0737L129.349 29.0894L129.237 29.4499L129.158 29.0737Z" fill="white"/>
<path d="M37.25 90.4056C38.8199 89.6376 36.2669 90.484 38.249 89.8257C38.0904 90.0451 37.8209 90.2802 37.25 90.4056Z" fill="white"/>
<path d="M199.072 81.55C201.767 80.5626 204.653 79.0892 207.08 76.8635C209.474 74.6221 211.25 71.6441 211.932 68.7131C212.122 68.0391 212.376 69.0579 212.741 67.4905C212.978 66.0328 213.216 64.3714 213.375 62.6002C213.518 60.829 213.66 58.9012 213.327 56.9889C213.026 55.0767 212.075 53.2115 210.632 51.8322C209.189 50.4529 207.381 49.5124 205.652 48.9012C205.811 48.9012 205.97 48.8855 206.128 48.9012C204.78 48.3839 203.004 48.5407 201.577 48.3212C201.577 48.2272 202.053 48.2429 201.736 48.0704C201.181 48.2742 199.563 48.0078 198.755 48.1958C198.374 48.0861 198.707 47.8667 198.374 47.7413L197.153 48.0391C197.026 48.0704 196.868 48.1018 196.741 48.1175C196.772 47.6316 197.803 46.4874 198.659 45.4059C199.5 44.3714 200.467 43.0078 200.816 41.5501C200.816 41.7225 200.768 42.036 200.927 41.8165C201.72 39.4027 201.752 36.315 200.182 33.9012C199.421 32.6943 198.136 31.8636 196.757 31.5501C195.361 31.2366 193.918 31.5501 192.665 32.0673C192.824 31.8949 192.951 31.6128 192.586 31.6128C192.475 32.0203 190.874 32.7727 189.336 34.105C189.129 34.0109 188.543 34.5595 187.591 35.5626C186.672 36.5187 185.276 38.0234 184.753 38.3996L185.149 37.898C184.896 38.1959 184.658 38.478 184.436 38.7444C184.341 38.8542 184.245 38.9482 184.166 39.0422C184.087 39.1206 184.119 39.0579 184.103 39.0736C184.087 39.0266 184.166 38.8385 184.277 38.6347C184.547 38.1959 184.816 37.71 184.943 37.4435C185.07 37.1614 185.07 37.0673 184.896 37.083L186.354 34.8416C185.799 35.2648 186.434 34.1833 186.878 33.3369C187.385 32.4122 187.702 31.7068 187.718 31.1739L187.575 31.2836C187.718 30.1394 188.083 29.4028 188.003 28.572L188.067 28.4937C187.988 26.362 187.686 25.1394 187.369 25.3119C187.369 24.92 187.623 25.3746 187.766 25.8134C187.956 26.2366 188.083 26.6441 188.194 26.0172C187.94 25.1395 187.544 24.3244 187.036 23.5721C186.497 22.8511 185.847 22.2084 185.086 21.7225C183.579 20.7507 181.724 20.3902 179.916 20.4686C179.013 20.5156 178.109 20.6567 177.237 20.9075C176.349 21.1739 175.587 21.4561 174.62 21.9576C172.797 22.8981 170.989 24.246 169.292 25.547C168.864 25.688 168.674 25.7351 168.848 25.4529C168.753 25.5313 168.642 25.641 168.499 25.7507C168.277 25.9545 168.42 25.7664 168.499 25.6567C168.642 25.4059 168.785 25.1708 168.88 24.967C169.07 24.5909 169.197 24.246 169.07 24.246C168.959 24.4655 170.037 23.0391 170.212 22.71C170.418 22.3652 170.497 22.1457 170.561 21.989C170.577 21.8479 170.545 21.7695 170.529 21.6442C170.466 21.4247 170.577 21.0015 170.941 20.1395C170.862 20.7351 171.036 20.7507 171.243 20.5C171.243 20.0297 171.354 19.2931 171.385 18.525C171.417 17.7884 171.338 17.0203 171.116 16.3464C171.243 16.5501 171.338 16.8793 171.449 16.8166C170.862 15.3589 170.592 13.9639 169.371 13.1802C169.562 13.2272 169.72 13.3056 169.911 13.384C169.165 12.4749 168.864 12.5533 168.705 12.5846C168.515 12.663 168.42 12.6787 167.548 12.3495C168.008 12.3965 167.881 12.2868 167.992 12.2241C166.121 11.9106 163.346 12.7884 161.649 13.525C161.744 13.4624 161.697 13.4153 161.697 13.4153C160.761 13.7758 159.81 14.1207 158.858 14.5282C158.367 14.7319 157.923 14.9357 157.399 15.2022C156.86 15.4686 156.321 15.7664 155.734 16.1269C154.973 16.4247 156.083 15.2962 154.228 16.3934C153.911 17.0517 150.692 18.7445 150.993 19.1677L150.819 19.2617C150.819 19.2617 150.676 19.3558 150.739 19.2774L150.93 19.0266C151.088 18.8542 151.183 18.6818 151.231 18.5094C151.263 18.431 151.326 18.337 151.326 18.2586L151.278 18.0705C151.278 18.0705 151.31 17.8981 151.167 17.8981L150.819 17.8511C151.532 16.8479 151.833 16.2837 152.23 15.6567L152.499 15.2022C152.579 15.0611 152.595 14.9827 152.642 14.873C152.721 14.6692 152.801 14.4812 152.88 14.2931C153.086 13.8855 153.039 13.6661 153.07 13.3997C153.086 13.1489 153.102 12.9294 153.07 12.757C153.165 13.2272 153.308 12.9294 153.419 12.7727C153.514 12.616 153.673 12.5689 153.657 13.2899C153.768 12.8824 153.831 12.5689 153.911 12.1614C154.117 12.3652 153.895 13.2272 154.117 12.8824C154.117 12.6473 154.022 11.8009 153.816 11.0956C153.625 10.3589 153.34 9.68493 153.229 9.35578C152.373 8.14888 151.278 7.33384 149.518 6.17396C150.454 6.62851 149.328 5.42161 149.946 5.76644C148.9 5.40594 147.853 5.23353 146.838 5.23353C146.157 5.07679 146.791 4.826 145.744 4.73196C145.776 4.87302 145.316 4.84168 144.999 4.92005C144.872 4.87302 144.143 4.826 143.413 4.826C142.684 4.826 141.939 4.85735 141.732 4.66926C141.384 4.54387 142.89 4.40281 142.065 4.35578C140.718 4.59089 140.686 4.74763 139.433 5.1865L139.386 5.13948C138.498 5.37459 137.134 6.47177 138.085 6.22099C138.624 5.95453 137.752 6.07992 138.609 5.79779C138.149 6.26801 136.896 7.08305 135.897 7.92945C136.198 7.60029 136.087 7.5376 136.151 7.31816C135.849 7.66299 135.564 8.00782 135.263 8.35264C134.914 8.77584 134.565 9.21471 134.216 9.65358C133.344 10.7351 132.504 12.2868 131.489 14.2774C131.441 14.5752 131.663 13.9796 131.885 13.3526C132.107 12.7257 132.345 12.1144 132.472 11.989C131.552 13.2743 130.648 14.9671 129.792 16.7539C129.142 18.1489 129.522 17.2241 129.3 17.5533L129.11 17.7884L129.015 17.8981C129.015 17.8981 129.015 17.8824 128.872 18.1018C128.476 18.7288 128.079 19.3401 127.683 19.9357C128.349 16.5188 129.094 12.8511 129.253 11.7696C129.158 12.804 128.761 13.2586 128.856 12.9608C128.952 12.3652 129.047 11.8323 129.11 11.362C129.142 11.1269 129.189 10.9075 129.221 10.7037C129.221 10.594 129.221 10.5 129.221 10.3903C129.221 10.0141 129.221 9.73195 129.221 9.46549C129.253 8.91691 129.189 8.69747 128.92 8.24293C129.015 7.92945 128.412 7.30249 127.905 6.72255C127.572 6.47177 127.857 6.50312 128.27 7.0517C127.905 6.64418 127.017 5.6097 125.764 4.77898C124.527 3.90124 122.989 3.36832 121.752 3.03917C121.768 3.13322 120.183 3.27428 119.628 3.30563L119.85 3.0235C119.31 2.81974 117.915 3.16456 117.788 2.9608C117.186 3.22726 118.375 2.92945 119.517 2.81974C120.674 2.71002 121.768 2.81974 120.912 2.81974C120.468 2.50626 118.565 3.24293 118.914 2.86676C117.725 2.9608 116.678 3.49372 115.521 3.57209C115.838 3.52506 116.345 2.91378 115.41 3.22726C113.792 3.83854 114.981 3.47804 113.713 4.08933C113.459 4.23039 113.221 4.40281 112.968 4.55955C113.031 4.81033 111.604 5.2492 112.302 5.20218C111.984 5.07679 110.288 6.59716 110.177 6.17396V5.75077C109.558 6.22098 109.384 6.78525 109.035 7.27114C108.94 7.30249 108.734 7.38086 108.734 7.31816C108.987 7.78838 107.338 8.46236 107.005 9.4028C105.737 10.3746 104.262 12.3652 103.517 12.757C103.279 13.1802 102.629 14.1207 102.105 14.8887C101.535 15.7037 100.9 16.5501 100.219 17.3338C100.488 16.9106 100.853 16.4091 100.9 16.1583C100.345 16.6912 100.092 17.083 99.7428 17.6003C99.6001 17.4122 99.4415 17.1928 99.2195 16.9106C99.3622 16.989 97.9668 14.1207 97.4277 12.9765C96.5238 11.895 96.5714 12.5219 96.3335 12.4906C96.1591 11.2367 94.0659 10.0298 93.4158 8.86988C93.7647 9.05797 94.8271 9.87302 94.2245 9.08932C93.7805 7.92945 92.3692 7.8981 91.0214 6.94199L91.1799 7.52192C90.6567 6.86362 88.8965 6.86362 89.1978 6.48744C88.6428 6.45609 87.3425 6.01722 87.4852 6.48744C86.2325 6.17396 84.7102 6.62851 83.5527 7.41221C82.3792 8.18023 81.5705 9.26173 80.7777 9.79465C80.6191 10.1708 80.0641 11.0329 80.3812 10.9545C80.8887 10.4686 80.6984 10.0611 80.9521 9.92004C80.7777 10.2335 80.8411 10.3589 80.8728 10.4216C80.3495 11.1113 80.0324 11.7696 80.08 10.8448C78.9541 12.5533 79.8897 12.9921 78.8114 15.3902C78.6845 15.2178 78.5418 15.3902 78.304 16.1269L78.082 17.6316C77.3684 19.2617 77.3367 18.4153 77.0354 18.3526C76.9085 18.7915 76.5914 19.5125 76.3694 20.0454C76.1474 20.6254 75.9413 21.1269 75.862 21.4874C75.5448 21.8009 75.2594 22.0674 74.974 22.3025C75.2911 22.036 75.196 22.3025 74.974 22.7257C74.863 22.9294 74.7203 23.1802 74.5934 23.4153C74.53 23.5407 74.4665 23.6504 74.4031 23.7445C74.3397 23.8542 74.308 23.7915 74.2763 23.8385C74.3555 23.8699 74.4507 23.6191 74.5458 23.4153C74.5141 23.4153 74.4348 23.525 74.3397 23.6191C74.2445 23.5877 74.1335 23.5564 74.0225 23.5564C73.7688 23.1645 73.4993 22.7727 73.2614 22.4749C73.3248 22.757 73.6895 23.4623 74.0701 24.1833C74.1653 24.199 74.2763 24.199 74.3714 24.199C74.419 24.2304 74.4666 24.152 74.5141 24.0736C74.5617 23.9953 74.6093 23.9326 74.6568 23.8699C74.5776 24.0266 74.4824 24.3401 74.3873 24.3871C74.2921 24.4498 74.197 24.5282 74.086 24.6065C73.8006 24.2147 73.5151 23.7915 73.1663 23.431C73.2773 23.3369 72.9284 22.6943 72.4686 21.9733C71.977 21.3464 71.3903 20.5627 70.9938 20.2178C70.4547 19.6849 70.1851 19.873 70.0107 19.7476C70.09 19.6065 69.0276 19.0266 69.6301 19.1833C69.868 19.2931 70.0424 19.6379 70.4547 19.779C70.1217 19.4028 70.3278 19.1833 69.3288 18.7915C68.5518 18.5564 69.2337 19.3558 67.9968 18.5564C68.3774 18.6504 68.5043 18.5564 68.8214 18.6191C68.4408 18.3526 68.0127 18.1175 67.6004 17.8824L67.4418 18.1175C67.2833 17.9921 67.426 18.0078 67.3467 17.9451C66.871 18.0391 65.2536 17.4279 64.8888 17.7413C64.207 17.663 63.4617 17.3965 62.7957 17.3965L62.9226 17.3652C62.098 17.1928 61.0197 17.5062 60.4171 17.8511V17.7884C60.0049 17.8667 59.0534 18.2743 58.657 18.6661C57.6421 19.0266 57.7849 17.9294 56.9444 18.9482C55.993 19.6692 55.9613 20.5156 56.3894 20.3119C54.7879 21.5971 54.106 23.8542 53.2973 25.547C53.3449 25.8605 53.4241 25.688 53.3924 26.2836C53.3449 26.5971 53.2497 26.9106 53.2497 27.2241L53.218 27.71V28.0548C53.2022 28.2115 53.2339 28.3683 53.2497 28.525L53.3766 29.4811C53.44 29.826 53.3766 30.0611 53.6303 30.5626C54.0109 31.4874 54.3122 32.2711 54.772 33.3213C55.8661 35.7037 56.9444 38.0391 57.9751 40.2962C58.3399 41.0955 58.7046 41.8636 59.0534 42.6316C59.1169 42.7883 59.2279 43.0078 59.2596 43.1175L59.3547 43.4153C59.4023 43.6034 59.4499 43.7601 59.4816 43.8855C58.2289 42.3495 57.0237 40.8761 55.8661 39.4341C57.0554 40.7194 56.8017 40.3118 56.2784 39.5908C55.7393 38.8542 54.9464 37.8354 54.7086 37.4278C54.1536 36.989 53.4242 36.1112 52.9643 35.547C52.4886 34.967 52.2666 34.7162 52.219 34.967C52.774 35.9545 52.6154 35.9231 55.6441 39.5125C54.3122 38.0548 52.8216 36.409 51.2676 34.7006L50.7602 34.1363C50.5857 33.9482 50.3954 33.7288 50.3003 33.6661L49.555 33.0705L48.8097 32.4749C48.556 32.2711 48.3974 32.2711 48.1913 32.1457C47.8266 31.989 47.335 31.7382 47.1289 31.6912C46.9069 31.6128 46.7007 31.5501 46.5104 31.4874C46.114 31.362 45.781 31.2836 45.559 31.1739C46.0189 31.3777 45.6383 31.362 45.2577 31.409C45.448 31.0329 44.116 30.8134 43.1487 31.0799L43.0377 31.3307C42.8157 31.2523 42.6096 31.2209 42.3876 31.1739C42.0229 31.315 42.0863 31.7225 41.1349 31.7539C41.0556 31.6755 40.9763 31.6128 40.786 31.6128C39.8822 32.13 38.9625 33.0705 38.1062 33.6191C37.8366 33.7444 37.5353 33.8542 37.2658 33.9952C37.012 34.3871 36.7108 35.0924 37.2816 34.5438C36.013 35.8291 35.6325 37.0203 35.1885 37.4905C35.125 38.2115 35.125 38.9952 35.1568 39.7946C35.2043 40.2021 35.2043 40.5783 35.2836 41.0328C35.3312 41.2836 35.3153 41.3933 35.4105 41.7695C35.5215 42.2084 35.6325 42.6316 35.7435 43.0705L35.8228 43.3996C35.8703 43.525 35.9655 43.6661 36.0289 43.8071L36.4729 44.6378C36.7742 45.2021 37.0279 45.7037 37.4719 46.4404L39.9139 50.594C40.564 51.6911 41.1983 52.7726 41.8485 53.8385L41.9753 54.1049C42.0229 54.199 41.9912 54.1676 42.2925 54.7005C42.8157 55.6253 43.3232 56.5344 43.8306 57.4435C41.9119 55.688 40.009 53.9482 38.1379 52.2397C36.8535 51.0798 35.5849 49.9356 34.3322 48.8071C34.4115 48.8071 34.4749 48.8071 34.5383 48.8071C33.6186 47.9764 33.0319 47.4435 32.7465 47.2554C32.5245 47.1614 32.4135 47.1457 32.3183 47.1457C32.1439 47.1457 32.0012 47.13 31.2083 46.6911C31.5413 46.6911 31.129 46.4717 30.8753 46.3463C30.6216 46.2052 30.5106 46.0799 31.2083 46.0955C30.8753 46.0015 30.574 45.9545 30.3838 45.9388C30.241 45.9074 30.1142 45.9388 29.9873 45.9388C29.7336 45.9545 29.5275 46.0015 29.353 46.0799C28.9725 46.2052 28.687 46.409 28.2748 46.5344C28.1955 46.7695 28.9249 46.2679 28.8139 46.5814C28.687 46.6284 26.9903 46.8322 26.9903 47.3024C26.6415 47.3024 26.7525 46.9733 26.8635 46.7695C26.6256 46.9262 26.4195 47.0987 26.2133 47.2868C25.6742 47.3651 26.0389 46.9106 26.5146 46.4717C26.9586 46.0172 27.5295 45.6567 26.8635 45.6096C26.5939 45.7037 26.3402 45.8761 26.0865 46.0015C25.6266 46.0172 26.0865 45.6723 26.4671 45.4372C26.8476 45.2335 27.0538 45.0454 25.9596 45.4686C25.1033 46.0799 24.8179 46.9889 25.5632 46.6441C24.8021 47.2084 24.8179 47.5532 24.7862 47.8197C24.7862 48.1331 24.7069 48.3839 24.1361 49.1049C23.6286 49.3557 25.0558 47.9294 24.6276 48.0077C23.7555 48.478 23.5811 49.5125 23.1529 50.1864C23.6921 49.4654 23.6445 50.2962 23.4701 50.8134C22.9626 51.6441 23.3908 50.0924 22.8516 51.362C22.9626 51.6598 22.7882 52.8824 23.2163 51.8949C23.5335 52.4592 22.7406 53.2115 23.0578 54.0109C22.6772 54.4497 22.4552 52.4905 22.1222 54.0422C22.4235 53.8385 22.5186 55.9701 23.0102 55.1394C22.9309 55.7193 22.7089 55.8134 22.4711 55.3745C22.2966 56.2836 23.2956 57.3338 22.7723 57.7413L23.1529 57.945C23.1371 58.2272 23.1529 58.6347 23.1529 59.1206C23.4066 59.8886 24.6276 61.2209 24.1836 61.3933C24.3422 61.5971 25.3571 63.1488 25.2302 62.3651C24.7862 61.3149 24.3105 61.3933 24.4215 60.641C24.4532 61.503 25.2778 62.0046 25.7535 62.4435C25.7218 62.5218 25.6742 62.5532 25.6742 62.6629C25.9438 62.9764 26.3878 63.478 26.8159 63.9638C27.2599 64.4497 27.7832 64.9043 28.1003 65.0924C27.4978 64.6065 27.5771 64.8886 27.9893 65.3745L29.1469 66.0798C32.5879 68.9482 28.9408 66.55 32.017 69.1519L29.3848 67.1143C29.9398 67.5532 30.2569 68.1801 31.6999 69.34C32.8258 69.9983 34.6969 71.2209 35.8386 71.9419C35.8386 71.9419 35.8386 71.9576 35.8386 71.9732C35.2202 71.9732 34.8079 71.8635 34.459 71.7695C34.1102 71.6754 33.8406 71.6127 33.2222 71.6754C33.7613 71.6284 34.4273 71.6284 34.57 71.4717C34.5225 71.3933 34.015 71.2679 33.1905 71.1112C32.239 70.9074 31.0815 70.688 30.0032 70.5782C29.4006 70.5626 28.7029 70.5939 28.4016 70.688C28.1162 70.782 28.2748 70.9231 29.6702 71.1582C28.3858 71.0171 26.4829 70.6409 27.2123 70.5312C25.9438 70.4372 26.0865 70.5312 26.3085 70.6253C26.5146 70.7193 26.8159 70.8447 25.6425 70.7977C25.0558 70.6409 23.9775 70.4529 22.8833 70.2334C22.3759 70.1394 21.8526 70.0453 21.3452 69.967C21.0598 69.8886 20.7902 69.8102 20.5523 69.7475C21.0122 69.6065 21.3135 69.4811 22.0588 69.3714L20.9963 69.3087C22.1222 69.0109 20.4413 69.0109 21.0915 68.6817C20.5048 68.6033 19.7753 68.7131 19.2045 68.8071C20.9012 69.387 17.3016 69.6378 17.8408 70.1864C16.7308 70.3118 16.3502 70.0297 15.9696 69.8259C15.5891 69.6221 15.1609 69.5124 14.0826 70.1237C14.4791 70.2021 13.4801 70.782 14.8279 70.4058C13.4642 70.5939 14.0192 71.0641 12.4494 71.2366C13.5276 70.7193 11.0539 71.0328 12.6396 70.2804C12.5762 70.4685 13.6228 70.1707 13.8765 70.0924C13.2739 70.014 13.8765 69.5124 12.4652 69.8572C11.6089 70.108 10.4831 70.5469 10.7526 70.7507C10.8795 71.0014 11.9895 70.2961 11.5614 70.7663C9.99151 71.409 9.56336 71.1739 9.21451 71.9419C10.1025 71.456 10.4831 71.6598 10.5465 71.8635C10.1818 72.0359 9.89636 72.271 9.57922 72.4591L9.67437 72.177C8.00937 72.9607 9.35722 72.6942 7.91422 73.666C7.61294 73.7287 7.32751 73.8071 7.01037 73.8855C7.0738 73.2742 9.21451 72.4591 8.64365 72.177C7.59708 72.7883 7.48608 73.2898 6.53466 73.9168C6.69323 73.713 6.94694 73.4779 7.10551 73.2742C6.78837 73.5406 5.83694 73.2428 5.01237 74.8886C4.56837 75.7036 5.01237 75.1864 5.17094 75.3431C4.06095 76.9262 4.06095 77.5688 3.66452 78.6347C3.2998 78.2585 3.04609 80.5939 2.98266 79.2303C3.17295 78.9638 3.47423 78.2115 3.83895 77.4434C4.1878 76.6754 4.58423 75.9074 4.6318 75.5155C3.79137 75.7977 5.59909 74.3086 5.59909 73.713C4.47323 74.9043 4.17195 74.5751 3.7438 74.5908C3.45837 74.967 3.26809 75.4058 3.1888 75.688C3.34738 76.0171 3.64866 75.4842 3.94995 75.6409C2.80823 77.0986 2.42766 78.8854 2.53866 79.8416C2.33252 80.3745 1.99952 80.155 2.14223 79.4654C1.96781 80.5155 1.87266 81.597 2.03123 82.6472C2.20566 83.6817 2.50695 84.7005 2.99852 85.5782C2.90338 84.9042 3.17295 85.3745 3.5218 85.8604C3.87066 86.3306 4.31466 86.8165 4.1878 86.3619C3.60109 85.4999 3.56937 84.5908 4.01337 84.9356C4.2988 85.4372 3.82309 85.0296 3.87066 85.2961C4.48909 85.7663 4.25123 86.55 5.12337 86.8165C3.75966 85.6252 4.42566 86.9575 3.91823 86.9732C5.05994 87.8509 3.64866 87.1299 4.71109 88.1331C5.9638 88.9324 7.61294 89.6691 9.18279 90.1864C10.9746 91.3306 14.2729 91.6284 16.1282 91.8321C17.0796 92.1299 16.3661 92.4904 17.4444 92.6785C18.7129 92.7882 16.5405 92.1456 18.4116 92.4904L18.2213 92.5688C18.7922 92.5375 21.6782 92.992 22.2173 92.3337L21.6465 92.8039C21.9953 92.8353 22.3283 92.7255 22.6138 92.6785C22.6296 92.8353 23.0578 92.945 22.4711 93.0704C23.6603 93.3368 24.9448 92.8823 26.1975 92.7099C25.9121 92.6629 25.6266 92.6002 25.3571 92.5218C27.4819 92.0672 28.9566 92.0829 30.9705 91.503V91.7851C31.3669 91.6284 31.7633 91.4873 32.1439 91.3149C31.9219 91.644 33.0795 91.4873 33.6503 91.0798C32.683 91.6127 31.684 92.1143 30.6533 92.6002C29.7178 92.6472 31.5572 92.0516 30.9229 91.9262C30.3996 91.8321 28.5126 92.2867 28.243 92.5845C28.9883 92.4904 29.02 92.4121 29.5592 92.2083C29.8763 92.5218 28.7663 92.7569 28.243 93.0861C28.6395 93.0077 29.2103 93.0234 29.2738 92.8823C28.5443 93.2114 27.7673 93.3995 26.4671 93.5563C27.3233 93.2898 25.9596 93.3839 26.2768 93.2428C26.2133 93.5876 24.9765 93.8541 23.3591 93.8384C22.2015 93.5249 20.3303 94.1832 18.4275 93.9481C19.2045 93.666 20.1876 93.4309 21.3135 93.2898C20.1559 93.1174 20.0132 93.2898 18.8715 93.0704C18.3006 93.2898 17.8725 93.666 16.3185 93.6503L16.2709 93.3995C14.8755 93.3368 14.8121 93.713 13.0678 93.3212C10.0708 92.6315 7.05794 91.503 5.09166 90.108L5.15509 89.8572C4.45737 89.7161 3.5218 89.0578 2.71309 88.1801C1.88852 87.3024 1.25424 86.2209 0.778522 85.4058C0.223523 83.9168 -0.0777621 82.1926 0.0173806 80.688C0.112523 79.1676 0.556523 77.9137 1.03224 77.2554C1.98366 74.7318 3.53766 72.6472 5.50394 70.9858C6.50294 70.1707 7.59708 69.4497 8.81808 68.9011C10.0232 68.3682 11.3076 67.9607 12.6714 67.6629C12.3859 67.8353 12.1322 68.0547 11.8626 68.2428C12.7506 67.7413 12.5286 68.2742 13.4484 68.0234C12.3066 67.945 14.6852 67.3808 15.3512 67.13C16.5881 67.1143 17.9676 67.0359 19.3155 66.9732C19.9973 66.9419 20.6633 66.8949 21.2976 66.8635C21.6782 66.8635 21.7575 66.8322 21.9161 66.8008C22.0429 66.7695 22.1698 66.7538 22.2966 66.7225L22.4711 66.9732C22.8675 66.8008 23.2163 66.8008 23.7396 66.8792C23.9933 66.9105 24.2946 66.9732 24.6276 67.0359L25.1509 67.1457L25.2936 67.177C25.2936 67.177 25.2619 67.1457 25.2619 67.13L25.1509 67.0203L24.7386 66.5657C24.8338 66.5344 25.0241 66.456 24.5959 66.0328C23.9458 65.6096 23.6445 65.3902 23.3273 65.1237C23.1846 64.9983 23.0419 64.8729 22.8833 64.7319C22.8358 64.7005 22.6772 64.5124 22.5186 64.34C22.3601 64.1519 22.2015 63.9638 22.0271 63.7444C21.1073 62.3964 20.0766 59.8886 19.8863 58.1958C18.9191 55.2334 19.0459 51.8165 20.5523 48.8071C21.3293 47.3181 22.3759 45.9388 23.8506 44.9043C25.2778 43.8542 26.9586 43.2272 28.7188 42.9294L29.2579 43.1802C29.7019 43.1018 30.1618 43.0861 30.6216 43.0705C31.0022 43.0705 31.018 43.0548 31.2083 43.0705C31.4938 43.0861 31.7475 43.1645 31.9853 43.2899C32.128 43.3683 32.3183 43.525 32.3818 43.5877C32.2708 43.4153 32.1756 43.2429 32.0963 43.0705C31.9536 42.71 31.8585 42.3338 31.8268 41.9576C31.7316 40.8448 31.7792 39.5438 31.9536 38.3996C32.1598 37.2397 32.4293 36.1582 32.8099 35.1865L33.0795 35.8761C33.7772 34.3244 34.903 32.4122 34.3798 32.5532C34.9665 31.8636 35.7276 31.0172 36.5522 30.3275C37.3767 29.6535 38.2647 29.1833 38.8832 29.1206C40.6116 28.4937 40.9287 28.1332 42.451 27.804C44.3222 27.6786 45.5749 27.8354 46.78 28.0705C47.0813 28.1175 47.3826 28.1802 47.6839 28.2742L48.1437 28.3996C48.2706 28.431 48.3816 28.4623 48.5084 28.4937C48.6512 28.5407 48.7939 28.5877 48.9524 28.6347C49.0317 28.6661 49.1269 28.6974 49.222 28.7288L49.0317 28.6034C48.9524 28.6818 48.9049 28.8855 49.2062 29.0579C49.5867 29.0266 50.665 30.2805 49.6977 28.9325C49.7612 29.0109 49.8246 29.0893 49.9039 29.1833C50.221 29.6065 49.9832 29.2147 49.9039 29.0109C49.8087 28.7758 49.7136 28.4937 49.666 28.2742C49.6343 28.1645 49.6184 28.0548 49.6184 27.9451C49.6184 27.8824 49.6184 27.8824 49.6184 27.757L49.666 27.0517C49.7612 26.1269 49.9832 25.2492 50.3003 24.4811C50.0624 24.7319 50.2527 23.8542 50.3003 23.4623C50.8236 21.9263 51.6799 20.4686 52.6947 19.246C53.7096 18.0235 54.8671 17.036 55.9137 16.1739C56.4053 15.9702 55.3587 16.8323 56.5004 16.1583C57.1664 15.7037 56.3894 15.9388 57.2299 15.4059C59.6243 14.0423 62.5261 13.7602 65.095 14.1677C67.6797 14.6066 70.0107 15.6567 71.977 17.0047C72.3576 17.2241 72.7064 17.5062 73.0553 17.7884L73.4676 18.1175C73.6261 18.2429 73.7371 18.3683 73.8323 18.5094C73.8481 18.5407 73.8798 18.5877 73.8957 18.6034L73.9591 18.478L74.086 18.2272L74.2921 17.757L74.9264 16.1112L75.6717 14.0736C76.7183 11.3464 77.7965 8.33697 80.2227 5.84481V6.00155C81.1107 4.81033 82.7281 3.91691 84.3455 3.50939C86.0105 3.08619 87.5645 3.18024 88.7538 3.00782C89.4357 3.18024 91.2592 3.6818 90.7042 3.76017C91.8142 3.94826 93.2255 4.66926 94.5099 5.68807C95.8102 6.70688 96.9202 7.94512 98.0144 8.96393C97.8558 8.74449 97.7289 8.63477 97.4911 8.43101C98.2364 9.48117 98.9341 10.453 99.6318 11.4404C99.8538 11.7382 100.028 11.9577 100.203 12.3808C100.25 12.3652 100.314 12.3025 100.377 12.2711C100.33 12.4122 100.219 12.616 100.187 12.804C100.187 12.804 100.187 12.8197 100.187 12.8354V12.8667C100.33 12.8667 100.52 12.4279 100.615 12.1771C100.726 11.9106 100.789 11.7696 101.043 11.9106C101.218 11.6912 100.948 11.5658 100.884 11.6755L101.043 11.5188L101.44 11.0642L102.248 10.1395C102.803 9.52819 103.358 8.90123 103.929 8.27427C105.087 7.0517 106.324 5.82914 107.687 4.71629C110.415 2.45924 113.776 0.672405 117.471 0.0454466C118.819 -0.0642711 119.517 0.0454466 119.865 0.155164C120.214 0.249208 120.214 0.343252 120.183 0.421622C120.135 0.594035 119.913 0.547013 122.006 0.562687C122.323 0.719427 122.292 0.390274 122.323 0.515665C123.988 0.672405 124.607 1.73823 125.717 1.97334C125.463 1.44043 126.494 2.14576 126.621 2.00469C128 2.97648 128.603 3.77585 129.158 4.4655C129.681 5.1865 130.204 5.78211 130.934 6.84794L130.68 6.76957L131.156 7.36518C131.283 7.5376 131.33 7.61597 131.409 7.74136C131.536 7.96079 131.6 8.18023 131.647 8.38399C131.679 8.60343 131.695 8.80719 131.663 8.86988C131.663 8.86988 131.647 8.94825 131.679 8.83854L131.79 8.52506C131.869 8.30562 131.933 8.08619 131.996 7.86675C132.155 7.58462 132.329 7.31816 132.519 7.09873L132.583 7.02036L132.963 6.64418C133.217 6.37772 133.534 6.12694 133.82 5.86048C134.422 5.35892 135.041 4.87302 135.723 4.43415C138.371 2.67867 141.732 1.73823 144.999 2.00469C148.25 2.2398 151.627 3.65046 153.831 6.50312C154.894 7.8981 155.592 9.51252 155.925 11.1896C155.988 11.6128 156.067 12.036 156.083 12.4749V12.6316V12.6787C156.083 12.7257 156.083 12.757 156.083 12.7884C156.083 12.8197 156.083 12.8511 156.051 12.8667L156.162 12.7727L156.258 12.71L156.289 12.6787L157.383 12.1771C159.429 11.3307 161.332 10.6097 163.599 10.0141C164.773 9.73195 166.152 9.49684 167.722 9.7633C169.292 10.0141 170.83 10.9075 171.829 12.036C172.844 13.1645 173.463 14.4655 173.796 15.7821C173.97 16.4404 174.065 17.1301 174.097 17.804C174.097 18.1489 174.097 18.4937 174.081 18.8385V19.152C174.081 19.152 174.033 19.246 174.002 19.2931C173.97 19.3558 174.065 19.246 174.144 19.246H174.16L174.541 19.0893C174.953 18.9169 175.365 18.7758 175.794 18.6348C176.666 18.3526 177.57 18.1645 178.489 18.0548C180.329 17.8511 182.247 17.9764 184.119 18.6348C186.101 19.6065 186.973 20.547 187.782 21.4247C188.559 22.3338 189.462 23.3526 190.16 25.5783C190.033 25.4216 189.938 25.1394 189.954 25.4529C190.192 25.5156 190.382 26.2993 190.493 27.1144C190.572 27.9294 190.572 28.7445 190.747 28.9482C190.747 29.1363 190.747 29.3401 190.715 29.5282L190.683 29.8103V29.8573L190.652 29.967L190.604 30.1708C190.557 30.2962 190.525 30.4216 190.477 30.5156C190.477 30.5156 190.43 30.5783 190.461 30.5626L190.541 30.4686L190.699 30.3119C190.81 30.2178 190.905 30.1394 191 30.0924C190.969 30.1551 190.81 30.6097 191.016 30.4686C191.048 30.4059 191.064 30.3432 191.08 30.2962C191.08 30.2648 191.08 30.2492 191.08 30.2178C191.08 30.1865 191.238 30.1081 191.302 30.0454H191.54C192.317 29.7006 193.221 29.2304 192.285 29.3871C193.538 28.9639 194.996 28.7131 196.503 28.9012C198.025 29.0893 199.452 29.6692 200.673 30.641C203.115 32.6316 204.003 35.4999 204.051 38.0705C204.083 39.3714 203.845 40.735 203.448 41.9106C203.052 43.0861 202.497 44.1676 201.894 45.1708L201.419 45.8918L201.181 46.2366L201.101 46.2836L200.864 46.4717C200.864 46.4717 201.006 46.5344 201.149 46.5657C201.212 46.5657 201.149 46.5657 201.339 46.5971L202.433 46.7382C203.163 46.8636 203.892 46.9733 204.638 47.1457C207.524 47.8197 210.679 48.9795 213.01 51.5814C214.31 53.1018 215.373 55.4529 215.642 57.7413C215.96 60.0454 215.785 62.177 215.579 64.0109C214.517 69.387 212.249 74.4497 208.285 78.1801C206.303 80.0296 203.956 81.4716 201.323 82.3651C198.707 83.2585 195.758 83.6033 192.792 82.992C192.792 82.992 193.252 82.8353 194.251 82.7099C195.25 82.5688 196.804 82.3807 198.977 81.8321L199.072 81.55Z" fill="white"/>
<path d="M35.2995 91.2052C34.8714 91.1425 33.6979 91.4246 34.5225 90.8604C34.6969 91.0014 35.3629 91.0014 35.2995 91.2052Z" fill="white"/>
<path d="M5.09158 87.2083C5.09158 87.2083 4.85372 86.8792 4.80615 86.8008C5.07572 87.0202 5.40872 87.1143 5.56729 87.365C5.28187 87.1613 5.26601 87.271 5.09158 87.224V87.2083Z" fill="white"/>
<path d="M2.42773 81.0796C2.57045 81.205 2.77659 82.6 3.06202 83.368C2.77659 82.6627 2.49116 81.9103 2.42773 81.0796Z" fill="white"/>
<path d="M5.39308 75.4215C5.88465 75.0924 5.80537 75.2491 5.39308 75.8447C5.28208 75.8447 5.39308 75.6096 5.39308 75.4215Z" fill="white"/>
<path d="M5.37695 74.81C5.72581 74.3712 6.01124 74.2458 6.26495 74.1361C6.12224 74.0263 5.4721 75.1392 5.37695 74.81Z" fill="white"/>
<path d="M18.9668 70.1236C19.3474 70.108 20.1561 69.9669 20.5208 70.1707C20.1243 70.0139 18.6814 70.3901 18.9668 70.1236Z" fill="white"/>
<path d="M30.7642 70.8135C31.2399 70.8762 31.5094 70.9389 31.9217 70.9389C32.9524 71.1426 32.3816 71.2053 31.6522 71.1426L30.7642 70.8135Z" fill="white"/>
<path d="M92.4326 7.92954C92.2106 7.80415 91.9886 7.71011 91.7666 7.60039L91.9569 7.50635C92.1155 7.64741 92.2899 7.7728 92.4326 7.92954Z" fill="white"/>
<path d="M135.675 8.57185C136.182 7.97624 136.182 8.35242 136.293 8.28972C135.786 8.74427 136.341 7.96057 135.675 8.57185Z" fill="white"/>
<path d="M154.165 16.9264L153.895 17.0831L154.291 16.4248C154.244 16.5972 154.196 16.7696 154.165 16.9264Z" fill="white"/>
<path d="M65.1586 63.2274C65.1586 63.2274 65.063 63.3528 65.0789 63.2274C65.1427 63.1804 65.1905 63.1647 65.1586 63.2274Z" fill="white"/>
<path d="M69.4079 57.3024C69.3286 57.3181 69.3286 57.3024 69.3604 57.2554C69.4079 57.2084 69.4872 57.2398 69.5189 57.2711C69.6141 57.3495 69.6775 57.4749 69.8678 57.4435C69.8995 57.4435 69.6934 57.6316 69.7726 57.6316C70.1849 57.5219 70.3118 57.9294 70.2959 58.3213L70.2325 58.3526C70.2325 58.3526 70.4545 58.3056 70.4545 58.3683C70.4228 58.3996 70.3911 58.3996 70.3594 58.4623C70.4704 58.3683 70.4704 58.4937 70.5655 58.431C70.5338 58.478 70.4545 58.5564 70.4228 58.6191L70.5655 58.5407C70.9144 58.3526 70.6924 58.7131 70.9144 58.6818C70.8826 58.6974 70.8509 58.7131 70.8351 58.7444C71.1522 58.7444 71.2632 58.9639 71.4694 59.0893C71.4218 59.1206 71.3266 59.1676 71.2791 59.2147C71.4218 59.1206 71.5011 59.152 71.5645 59.1833C71.4376 59.3087 71.7548 59.1833 71.7231 59.293H71.6914C71.8816 59.246 71.6438 59.4341 71.8499 59.3401L71.7548 59.4498C71.9768 59.3244 71.6914 59.5908 71.8182 59.5438L71.8658 59.5125C71.8658 59.5125 71.8499 59.5908 71.8975 59.6065H71.8816C71.9926 59.6692 71.8816 59.7789 72.0561 59.6692C71.9451 59.7789 71.9451 59.6379 71.7865 59.7946C72.1036 59.9357 72.2305 60.2021 72.3574 60.4686C72.3098 60.5313 72.2939 60.5626 72.2305 60.6096C72.2781 60.6096 72.3098 60.688 72.4208 60.6723C72.4208 60.6723 72.3415 60.735 72.3415 60.7507C72.2939 60.8291 72.5635 60.7037 72.5001 60.7977C72.4366 60.7977 72.3891 60.8134 72.3256 60.8604C72.4842 60.8448 72.5001 60.9075 72.5635 60.9388C72.5318 60.9388 72.5001 60.9388 72.4525 60.9702C72.6428 60.9702 72.4525 61.0955 72.5952 61.0955L72.4842 61.1269C72.3891 61.2523 72.7221 61.0642 72.6745 61.1582C72.6269 61.1582 72.5952 61.1739 72.5476 61.1896C72.7696 61.1896 72.7379 61.315 72.8331 61.362C72.8172 61.362 72.7855 61.362 72.7855 61.362C72.8331 61.4247 72.8014 61.5187 72.9124 61.5814C72.8806 61.6285 72.6428 61.6598 72.7062 61.7225C72.9282 61.6598 72.8331 61.8322 73.0709 61.7225C73.0709 61.8009 73.0075 61.9419 73.0868 61.9576C72.9916 61.9576 72.8172 62.0517 72.7855 62.0046L72.6586 62.083C72.5635 62.0987 72.6745 62.036 72.5635 62.083C72.5635 62.1144 72.6904 62.1614 72.6586 62.1927C72.8014 62.2084 73.0709 62.2084 73.1185 62.3024C73.0234 62.2711 72.8806 62.3651 72.8331 62.3495L73.2929 62.3965C73.2929 62.3965 73.1185 62.4278 73.1819 62.4592C73.2454 62.4592 73.2771 62.4592 73.3246 62.4592C73.2929 62.4592 73.4039 62.5846 73.1819 62.6159C73.1026 62.6473 73.1344 62.5689 73.0551 62.6159C73.0551 62.6629 73.1344 62.6629 73.1502 62.7256H73.1185C73.1185 62.7256 73.2295 62.8354 73.3405 62.7727C73.3405 62.7413 73.2136 62.7883 73.2612 62.757C73.3881 62.757 73.4356 62.8354 73.4356 62.8981C73.4039 62.8824 73.3405 62.8981 73.2771 62.8981C73.4515 62.9607 73.5149 63.0391 73.5942 63.1332C73.7052 63.1332 73.4039 63.1018 73.4515 63.0861C73.3088 63.1959 73.6576 63.3212 73.4515 63.4153C73.4356 63.3996 73.6101 63.4153 73.5784 63.4153C73.5784 63.478 73.4039 63.4623 73.4674 63.5093C73.3722 63.5093 73.4991 63.5564 73.5149 63.6034C73.5784 63.6347 73.4674 63.6034 73.4674 63.572C73.5308 63.6191 73.6735 63.8542 73.5149 63.9639C73.5784 63.9639 73.7211 64.0736 73.7052 64.1049L73.5625 64.0736C73.4674 64.0736 73.5625 64.1676 73.4356 64.152C73.5942 64.246 73.3405 63.9012 73.4356 63.9952C73.3088 63.9952 73.6418 64.152 73.4356 64.1049C73.4356 64.1676 73.5784 64.246 73.4356 64.2774C73.4674 64.2774 73.2612 64.1833 73.2612 64.2303C73.2612 64.3087 73.3246 64.2617 73.3563 64.3401L73.4039 64.4027C73.5308 64.4498 73.3722 64.4654 73.5149 64.4811C73.4039 64.4654 73.5466 64.6222 73.3246 64.5438L73.1502 64.4811C73.1502 64.4811 73.3088 64.5908 73.3722 64.6535C73.3564 64.6535 73.3246 64.6535 73.2929 64.6535C73.5466 64.7476 73.2453 64.7319 73.4198 64.8416C73.3088 64.8886 73.3405 65.0297 73.1502 64.9984C73.1978 65.0924 73.2612 65.1864 73.1661 65.2178C73.1661 65.1864 73.1661 65.1708 73.1026 65.1394C73.0075 65.1394 73.0709 65.1864 73.1026 65.2335C73.0709 65.2021 72.9282 65.2335 72.8172 65.2178C72.8489 65.3118 72.9916 65.3745 73.0551 65.4372C72.8014 65.3275 73.0868 65.688 72.8489 65.594C72.8489 65.5469 72.8014 65.4372 72.7221 65.4372C72.4842 65.3118 72.8014 65.641 72.6428 65.6253L72.8172 65.7507C72.6903 65.688 72.8172 65.9388 72.6586 65.7821C72.6904 65.8604 72.5318 65.8134 72.6904 65.9545C72.4525 65.9231 72.4525 66.2993 72.1512 66.0328C72.1512 66.0799 72.0878 66.0642 72.1512 66.1582C72.2464 66.2366 72.1512 66.0642 72.1988 66.1269C72.1988 66.1426 72.2146 66.1896 72.2305 66.2209C72.1671 66.2209 72.1195 66.2209 72.0561 66.0328C71.8975 65.9701 72.1671 66.409 71.9926 66.3933C71.9609 66.315 71.9292 66.2836 71.8975 66.315V66.4874C71.8024 66.4874 71.7706 66.3306 71.6914 66.1896C71.6596 66.2366 71.6121 66.2523 71.6438 66.362L71.5169 66.2053C71.6121 66.315 71.5169 66.2993 71.5169 66.3463V66.2993C71.5169 66.2993 71.4535 66.2993 71.4376 66.315C71.4694 66.409 71.5328 66.4247 71.5804 66.4404C71.5804 66.5031 71.5486 66.5031 71.5486 66.5971C71.5011 66.456 71.4376 66.5187 71.4059 66.5187C71.3584 66.5031 71.4059 66.6598 71.3901 66.6598C71.3584 66.5814 71.3266 66.6598 71.3266 66.5501C71.3266 66.5187 71.3742 66.6128 71.3742 66.5501C71.3266 66.5031 71.2949 66.3777 71.2791 66.4874C71.2632 66.5658 71.3742 66.7695 71.2791 66.7068C71.2791 66.6598 71.2791 66.6128 71.2791 66.5501L71.1839 66.4874L71.2156 66.6128C71.2156 66.6128 71.2156 66.5658 71.1998 66.5501C71.1998 66.6911 71.1046 66.6128 71.1205 66.7852C71.0888 66.8009 71.0254 66.7068 70.9778 66.7068C70.9144 66.6285 70.8826 66.6911 70.8509 66.7852V66.7538C70.8509 66.7538 70.7716 66.7695 70.7558 66.8636C70.6765 66.7695 70.6765 66.362 70.6289 66.5344C70.5814 66.5344 70.5655 66.7852 70.5972 66.8792C70.4862 66.8009 70.3752 67.0203 70.2642 66.8165C70.2642 66.8792 70.2642 66.9106 70.2325 66.9419C70.0739 66.8949 69.8836 67.0987 69.7885 66.8165C69.8361 66.7695 69.7885 66.6755 69.8044 66.5971C69.7568 66.7225 69.7726 66.4717 69.7409 66.6755C69.7409 66.8009 69.7251 66.8636 69.7568 66.9106C69.6616 66.9733 69.5189 66.9576 69.4872 66.8322C69.5031 66.8949 69.4872 66.9263 69.4555 66.9576C69.4872 66.7695 69.4238 66.7225 69.3604 66.7852L69.3286 66.8949V66.7695C69.3286 66.7695 69.2494 67.0203 69.2176 66.8949C69.2176 66.8479 69.2176 66.8009 69.2176 66.7695C69.1542 66.8636 69.0432 67.0046 69.0115 66.8949V66.7225C69.0115 66.7225 68.9164 66.8322 68.9481 66.8949C68.8688 66.7695 68.8212 66.7382 68.8212 66.5971C68.5834 66.9263 68.3455 66.8636 68.1711 66.7852L68.2028 66.7068C68.1869 66.6128 68.1235 66.8479 68.1235 66.7852C68.1711 66.7068 68.1394 66.5971 68.2186 66.5031C68.1869 66.3933 68.0918 66.6285 68.0284 66.6441C67.9808 66.7538 68.0918 66.5814 68.0284 66.7225C68.0125 66.7538 67.9649 66.5971 67.8856 66.7695C67.8856 66.6911 67.9491 66.5814 67.9808 66.5187L67.9174 66.5814C67.9332 66.362 68.1552 66.268 68.1869 66.0015H68.1394C68.1711 65.8291 68.2979 65.8448 68.2345 65.7664C68.1711 65.8448 68.0442 66.0642 68.0601 66.1582C67.9649 66.1739 67.8856 66.5501 67.7905 66.5031C67.7905 66.3933 67.8698 66.5031 67.9015 66.362C67.9015 66.2053 67.7905 66.409 67.7746 66.3463C67.7905 66.4247 67.6954 66.5814 67.6478 66.5971C67.6319 66.5031 67.7429 66.456 67.6795 66.409C67.6319 66.5031 67.5368 66.5501 67.5685 66.6284C67.4575 66.8322 67.5209 66.5501 67.4099 66.6911C67.4575 66.5344 67.6161 66.362 67.5844 66.2679C67.5368 66.4247 67.4099 66.4247 67.3624 66.6598C67.3624 66.6128 67.3941 66.4874 67.4575 66.409C67.4575 66.2993 67.2514 66.6284 67.3624 66.3463L67.2831 66.4874C67.2831 66.4874 67.2831 66.3933 67.2989 66.2993C67.2672 66.2836 67.0928 66.4404 67.2038 66.2209C67.1879 66.2366 67.1086 66.1896 67.0611 66.362C67.0611 66.4717 67.1721 66.2836 67.1086 66.5031C67.1562 66.315 67.0294 66.5031 66.9659 66.5344L66.9976 66.4404C66.9976 66.4404 66.9342 66.4404 66.8708 66.5187C66.9025 66.4717 66.9342 66.409 66.9184 66.3933L66.8391 66.5187C66.7281 66.5501 66.9342 66.2836 66.8391 66.2836L66.9342 66.2053C66.9342 66.2053 66.9342 66.0955 66.9025 66.1112C66.8232 66.2209 66.7439 66.3463 66.6805 66.4404C66.6171 66.4717 66.7281 66.2993 66.6329 66.3933L66.7598 66.2836C66.7598 66.2836 66.8232 66.0799 66.7598 66.0485C66.7122 66.0799 66.5695 66.2209 66.5854 66.2993C66.5536 66.2993 66.5536 66.2053 66.6329 66.1269C66.5536 66.1269 66.5695 66.2523 66.4902 66.2993C66.4902 66.2053 66.5219 66.0799 66.5378 65.9388L66.6964 65.7821H66.6646C66.7915 65.6253 66.7122 65.641 66.8232 65.4843C66.8232 65.4529 66.7598 65.4843 66.7122 65.5156C66.6329 65.8134 66.4426 65.8291 66.3158 66.0642C66.1889 66.0642 66.5854 65.4686 66.2841 65.7821C66.2682 65.8448 66.1096 66.0015 66.2048 65.9701C66.1572 65.9074 66.0304 66.1739 66.0145 66.0485C66.1255 65.9858 66.1096 65.7821 66.2682 65.688C66.2206 65.7664 66.2682 65.7664 66.2999 65.7507C66.3316 65.641 66.4426 65.5156 66.3951 65.4843C66.3475 65.4843 66.2999 65.4686 66.2365 65.5783C66.1572 65.7037 66.2999 65.594 66.1889 65.7194C66.0938 65.7194 66.2048 65.5156 66.0304 65.7194C66.0779 65.7194 66.0145 65.8761 65.9511 65.9545H65.8559L65.9194 65.8918C65.8718 65.7821 65.7925 66.0328 65.7291 65.9545L65.8084 65.7664C65.9194 65.641 65.8876 65.9074 66.0145 65.6567C65.9669 65.6096 65.8718 65.7194 65.8718 65.6253C65.9035 65.6253 65.9194 65.6253 65.9352 65.594C65.9352 65.5783 66.1096 65.2491 65.9352 65.3902C65.8559 65.4372 65.8718 65.4686 65.8084 65.5469C65.7132 65.5156 65.6181 65.594 65.5546 65.5626C65.6815 65.4059 65.4754 65.4843 65.6656 65.3432C65.6181 65.4686 65.7449 65.5313 65.8876 65.3902C65.9986 65.1708 65.9352 65.4529 66.0938 65.2648C66.0304 65.2178 66.1731 65.014 66.2524 64.8886C66.2524 64.873 66.1889 64.92 66.1572 64.92C66.0621 65.0454 66.0938 65.0454 65.9986 65.1708C65.9511 65.0924 65.8401 65.1081 65.7132 65.2021C65.7291 65.1237 65.8242 65.014 65.8718 65.014C65.7608 64.9984 65.6974 64.92 65.6498 64.8259C65.5388 65.0611 65.5388 64.8103 65.4436 64.9984C65.4436 65.0767 65.3802 65.2335 65.2851 65.3118C65.2692 65.2805 65.3485 65.2335 65.3802 65.1864C65.2692 65.2648 65.4595 64.9827 65.3009 65.1238C65.4278 65.1238 65.5071 64.9043 65.6339 64.7632C65.5229 64.8103 65.7291 64.6535 65.6656 64.6222C65.5546 64.6692 65.4278 64.6849 65.3485 64.6692C65.3961 64.4654 65.1741 64.5281 65.1106 64.4654C65.1424 64.3714 65.3168 64.2303 65.3009 64.1676C65.2534 64.1363 65.1741 64.3714 65.1741 64.246L65.2058 64.2147C65.2058 64.2147 65.2058 64.0109 64.9679 64.2147L65.1582 64.0579C65.1582 64.0579 65.1106 64.0579 65.0948 64.0579C65.1424 64.0109 65.1899 63.9482 65.2375 63.9169C65.3168 63.7758 65.1582 63.8698 65.1106 63.8385L65.0314 63.9639C64.8886 63.9639 64.9521 63.8385 64.8569 63.8071L64.9521 63.7131H64.8569C64.9679 63.6504 64.9996 63.5564 64.8886 63.6191L65.2216 63.4937C65.1899 63.572 65.0789 63.572 64.9838 63.6817C64.9045 63.7758 64.9838 63.8071 65.0948 63.7288C65.0948 63.6974 65.0631 63.7288 65.0155 63.7288C65.1424 63.5877 65.1741 63.6347 65.2851 63.5564C65.2692 63.5564 65.2851 63.4937 65.2534 63.5407C65.3485 63.4937 65.3644 63.5093 65.4119 63.5407C65.3326 63.572 65.3326 63.6347 65.2851 63.6661C65.4119 63.5564 65.4754 63.5564 65.4912 63.6191C65.3802 63.7915 65.6656 63.6191 65.6656 63.6974C65.5229 63.8071 65.4119 63.8698 65.3326 63.8855C65.3009 63.9795 65.3644 63.9169 65.3326 64.0109C65.4278 63.9325 65.5864 63.8071 65.6656 63.7915L65.5864 63.8855C65.6656 63.8855 65.7925 63.7444 65.8084 63.8071C65.8559 63.9169 65.9352 63.9952 65.9986 64.0579L65.9194 64.152C66.1255 63.9796 66.1096 64.1676 66.2206 64.1206C66.2206 64.2774 66.4744 64.1676 66.3951 64.3714C66.6012 64.4027 66.7915 64.4184 66.9342 64.5438L66.8074 64.6849C66.9025 64.5908 66.7756 64.7789 66.8074 64.7789C66.8549 64.6379 66.9501 64.6379 67.0294 64.5595C67.0294 64.7162 67.2038 64.6379 67.3306 64.5595L67.2672 64.6692C67.4416 64.4968 67.4258 64.7162 67.5051 64.7946C67.5051 64.8416 67.4575 64.9513 67.4892 64.9513C67.6319 64.7946 67.6478 64.8103 67.7588 64.7319C67.8064 64.7632 67.8698 64.8416 67.8856 64.9357C68.1869 64.7633 68.3138 64.9984 68.5675 64.9043L68.5358 65.0454C68.8212 64.8103 68.9798 65.1394 69.1859 65.0297L69.1066 65.2648C69.1384 65.3589 69.2494 65.2335 69.2652 65.0454C69.2969 65.1238 69.4079 64.9513 69.4079 65.1551C69.4555 65.2021 69.4872 65.0611 69.5348 65.0297C69.6299 65.1394 69.6616 65.1238 69.7726 65.0767H69.7568C69.7568 65.0767 69.7251 65.2178 69.7568 65.2335C69.8044 65.1708 69.8836 65.3118 69.8678 65.014C69.9629 65.1864 70.1056 64.8886 70.1849 65.1081C70.1849 65.0297 70.1849 65.014 70.2008 64.9513C70.2801 64.9513 70.3752 65.1081 70.4228 64.9513C70.4386 64.9827 70.4228 65.0924 70.4545 65.0924C70.4545 65.0611 70.4545 64.9827 70.4545 64.9357C70.5496 64.7789 70.7241 65.0454 70.8192 64.9827C70.9461 64.7789 71.1205 64.7789 71.2315 64.6692L71.2632 64.7162C71.1522 64.5125 71.5169 64.8103 71.3108 64.5281C71.3584 64.5595 71.3584 64.5281 71.4376 64.6065C71.3425 64.4654 71.6438 64.6065 71.5169 64.4341C71.5169 64.4341 71.5169 64.4341 71.5328 64.4654C71.6755 64.4811 71.5645 64.3557 71.6914 64.3401C71.7072 64.3557 71.7231 64.3871 71.7706 64.4184C71.8816 64.4498 71.5804 64.246 71.8499 64.3557C71.8499 64.3401 71.7231 64.2774 71.7231 64.293C71.8975 64.199 71.7865 63.9482 71.7548 63.7758C71.9451 63.6817 72.2305 63.8542 72.0402 63.7131C72.1036 63.7131 71.9292 63.6974 71.9926 63.6974C71.9134 63.6504 72.3256 63.6817 72.1829 63.6191C72.0085 63.6191 72.0878 63.5877 71.9768 63.572C72.1036 63.4937 72.2622 63.478 72.1354 63.3996H72.2305C71.9768 63.3056 72.1036 63.2115 71.8024 63.1488C71.7389 62.71 71.4694 62.3024 71.3108 61.8949C71.2315 61.4717 70.8985 61.1112 70.7875 60.6096C70.9461 60.3902 70.9302 60.3745 70.7875 60.3275C70.8192 60.3118 70.8351 60.3275 70.8668 60.2805C70.6924 60.3745 70.8034 60.2178 70.6289 60.3118C70.5655 60.1394 70.4228 60.0297 70.3118 59.873C70.3435 59.873 70.4862 59.7946 70.4545 59.7789L70.3276 59.826L70.3752 59.7946C70.3752 59.7946 70.2325 59.826 70.2008 59.8886C69.7885 59.6222 69.7885 59.0109 69.4238 58.7131C69.4079 58.572 69.2335 58.525 69.1225 58.4623C69.1066 58.3526 69.0749 58.2429 69.0432 58.1488C69.0432 58.1018 68.9956 58.0391 69.0115 58.0078C69.0274 57.9764 69.1859 57.7883 69.2335 57.6786C69.2969 57.5532 69.3286 57.4435 69.3286 57.3965C69.3286 57.3651 69.3286 57.3651 69.3286 57.3651C69.3128 57.3338 69.3762 57.4435 69.2811 57.3024V57.2868C69.2811 57.3024 69.4238 57.2554 69.3762 57.2711C69.3762 57.2711 69.3128 57.3338 69.3128 57.3651C69.3128 57.4122 69.3128 57.3651 69.2494 57.3651C69.2494 57.3651 69.3128 57.3808 69.3128 57.3965C69.2652 57.3965 69.4555 57.2084 69.3445 57.2868L69.4079 57.3024Z" fill="white"/>
<path d="M65.2227 63.2744C65.2227 63.2744 65.1431 63.4155 65.0156 63.4782C65.0794 63.4155 65.1431 63.3214 65.2227 63.2744Z" fill="white"/>
<path d="M65.428 64.8887C65.428 64.8887 65.428 64.9357 65.4121 64.9514C65.3963 64.9514 65.3329 64.9984 65.3487 64.9514C65.3646 64.9514 65.3963 64.92 65.428 64.8887Z" fill="white"/>
<path d="M65.6827 65.1396C65.6827 65.1396 65.5234 65.218 65.4756 65.2023L65.6827 65.1396Z" fill="white"/>
<path d="M65.7292 65.6411C65.7133 65.7195 65.6816 65.7508 65.6499 65.7195C65.6816 65.6725 65.6975 65.6725 65.7292 65.6411Z" fill="white"/>
<path d="M65.8721 65.4844C65.8721 65.4844 65.8721 65.5471 65.8721 65.5941C65.9199 65.5314 65.7924 65.5941 65.8721 65.4844Z" fill="white"/>
<path d="M66.3635 66.0796C66.3635 66.0796 66.4586 66.0326 66.4111 66.1266C66.4269 66.064 66.2842 66.1893 66.3635 66.0796Z" fill="white"/>
<path d="M66.7282 66.127C66.7282 66.127 66.7282 66.1583 66.76 66.127C66.76 66.174 66.7122 66.221 66.6963 66.221L66.7441 66.1113L66.7282 66.127Z" fill="white"/>
<path d="M72.8339 65.6099L72.85 65.6732L72.7856 65.6099H72.8339Z" fill="white"/>
<path d="M73.6261 62.898C73.6261 62.898 73.7053 62.8667 73.7212 62.8667C73.7212 62.898 73.6102 62.8667 73.6261 62.898Z" fill="white"/>
<path d="M72.9292 61.6128V61.6285L72.7539 61.6755L72.9292 61.6128Z" fill="white"/>
<path d="M60.2589 72.3964C60.2589 72.3964 60.3227 72.2396 60.3386 72.365C60.2749 72.4121 60.243 72.4591 60.2589 72.3964Z" fill="white"/>
<path d="M60.1477 71.1894C60.0367 71.1894 59.9416 71.1737 59.8464 71.1423V71.205C59.8306 70.9699 60.0367 70.7348 60.2746 70.6565C60.5124 70.5624 60.7503 70.5311 61.004 70.437C61.0674 70.437 60.9564 70.6878 61.0991 70.6408C61.3687 70.4997 61.8286 70.6565 61.9396 71.0483C62.0664 71.4401 61.8127 71.8163 61.5273 71.9104L61.4956 71.8477C61.4004 71.879 61.4956 72.1455 61.3687 72.1925C61.337 72.1612 61.3687 72.1141 61.2894 72.0828C61.3529 72.2238 61.1626 72.2552 61.1626 72.3649C61.0991 72.3336 61.0516 72.2239 60.9881 72.1925V72.3649C60.8771 72.8038 60.5283 72.4276 60.2587 72.506C60.2904 72.4746 60.3221 72.459 60.3221 72.4119C59.783 72.4903 59.45 71.738 59.5134 71.1894C59.561 71.2207 59.672 71.2521 59.7354 71.2364C59.561 71.1894 59.5451 71.0013 59.5769 70.8445C59.7513 70.8445 59.5451 70.5311 59.7513 70.4213V70.4527C59.7196 70.2176 59.9733 70.3743 59.9257 70.1392L60.0843 70.1862C60.005 69.9355 60.3221 70.1862 60.3697 70.0452V69.9981C60.3697 69.9981 60.5283 70.0295 60.6076 69.9511V69.9825C60.8454 69.8728 60.9881 70.0452 60.9881 69.8414C61.0674 69.9982 60.7661 69.8884 60.893 70.1235C61.6066 69.9354 62.3836 70.6721 62.447 71.4088C62.3836 71.4872 62.3519 71.5342 62.2726 71.5499C62.3201 71.6282 62.2884 71.8007 62.3677 71.9104C62.3677 71.879 62.2567 71.9104 62.2409 71.9574C62.1299 72.0358 62.3836 72.1925 62.2409 72.2709C62.2409 72.1925 62.1774 72.1455 62.0981 72.1141C62.1774 72.3022 62.0664 72.4276 61.9871 72.553C61.9871 72.506 61.9871 72.4746 61.9396 72.4276C61.9396 72.6627 61.7176 72.5843 61.6541 72.7568V72.6314C61.4004 72.6157 61.7017 72.8822 61.4797 72.8978C61.5114 72.8508 61.4797 72.8038 61.4797 72.7568C61.4004 73.0389 61.0674 73.0546 60.893 73.1329C60.893 73.1173 60.893 73.0859 60.893 73.0859C60.6869 73.1329 60.4807 73.0389 60.2429 73.0546C60.1794 72.9762 60.3697 72.8195 60.1794 72.7568C60.0684 72.9919 59.8464 72.6314 59.783 72.9292C59.6403 72.7724 59.5293 72.4746 59.4183 72.3963C59.5293 72.4276 59.6086 72.1612 59.6879 72.2865L59.783 72.1141C59.8781 72.0671 59.783 72.2238 59.894 72.1141C59.8623 72.0671 59.7037 71.9574 59.7354 71.879C59.561 71.832 59.2756 71.7693 59.2597 71.5185C59.3549 71.6126 59.5134 71.4402 59.561 71.5185C59.4183 71.4402 59.2756 71.3304 59.1646 71.1894C59.1646 71.0953 59.339 71.1894 59.3231 71.064C59.2597 71.064 59.2439 71.0013 59.2121 70.9543C59.228 70.9229 59.3231 70.5781 59.561 70.6721C59.6561 70.6721 59.5293 70.7975 59.6561 70.7662C59.7354 70.6565 59.672 70.6094 59.783 70.4997H59.8147C59.9099 70.484 59.9733 70.2646 59.8147 70.2489C59.7513 70.296 59.9257 70.3273 59.8147 70.343C59.7671 70.2019 59.9257 70.0452 60.1001 69.9825C60.0684 70.0452 60.1001 70.0922 60.116 70.1392C60.1636 70.0138 60.2587 69.9198 60.3697 69.8571C60.4807 69.7787 60.5917 69.622 60.7503 69.6063C60.7503 69.4809 60.6551 69.8257 60.6234 69.7787C60.9723 69.9041 61.4797 69.6063 61.7017 70.0138C61.6383 70.0138 61.7493 69.8414 61.7493 69.8728C61.9237 69.9981 61.8127 70.1392 61.9554 70.1549C61.892 70.2489 62.0981 70.2176 62.225 70.296C62.336 70.296 62.2091 70.3586 62.1299 70.296C62.336 70.296 62.9703 70.9229 62.8276 71.3931C62.891 71.3775 63.113 71.6753 63.0813 71.785L62.9227 71.7223C62.8276 71.8006 62.891 72.0514 62.7324 72.0201C62.7959 72.1455 62.8276 71.9417 62.7959 71.7536C62.78 71.5655 62.6849 71.3931 62.78 71.5342C62.669 71.5812 63.0179 71.9574 62.7959 71.8633C62.78 72.0358 62.8751 72.3022 62.6531 72.3963C62.7007 72.3492 62.5104 72.1612 62.4629 72.2865C62.3677 72.506 62.4946 72.3806 62.4311 72.6L62.3994 72.7411C62.5104 72.8665 62.2091 72.8978 62.3994 72.9605C62.2884 72.8822 62.114 73.3054 61.9871 73.0546L61.9079 72.8508C61.9079 72.8508 61.8761 73.1486 61.8286 73.274C61.8127 73.274 61.7651 73.2427 61.7493 73.1956C61.8603 73.5091 61.4956 73.2897 61.4163 73.5718C61.1467 73.5405 60.7503 73.6502 60.671 73.4307C60.4807 73.5091 60.2587 73.5718 60.0843 73.4307C60.1319 73.4307 60.1953 73.4307 60.227 73.368C60.1319 73.2427 60.0843 73.2897 59.9574 73.2897C60.0209 73.2427 59.783 73.0546 59.8623 72.7724C59.7037 72.7254 59.6244 72.8665 59.561 72.9135C59.6561 72.6314 59.117 72.6157 59.2597 72.2709C59.3231 72.3179 59.4659 72.4276 59.4817 72.2709C59.6879 72.0358 59.1963 72.0828 59.3073 71.7693L59.0853 71.879C59.1963 71.738 58.9584 71.4872 59.1804 71.5028C59.1011 71.4088 59.3073 71.205 59.0853 71.205C59.2439 70.9856 59.3073 70.7191 59.4659 70.4997C59.6244 70.2803 59.8464 70.1235 60.0684 70.2176C60.1001 70.1549 60.2587 70.1079 60.1636 70.0295C60.005 69.9825 60.0843 70.1706 60.005 70.1235C60.0526 70.0922 60.0209 70.0295 60.005 69.9981C60.1636 69.9511 60.2746 69.9511 60.2429 70.1392C60.5441 70.1706 60.3856 69.669 60.8771 69.716C60.8771 69.8101 60.893 69.8414 61.0199 69.8414C61.0991 69.7944 61.1784 69.763 61.2736 69.7317C61.559 69.8571 61.3846 69.9825 61.3529 70.1235C61.4797 70.1392 61.6224 70.2333 61.7334 70.1706C61.7334 70.2646 61.7493 70.343 61.7651 70.4213C61.7651 70.2333 61.9079 70.4213 61.9713 70.4213H61.892C61.892 70.4213 62.003 70.5467 62.0664 70.5938C62.1299 70.5311 62.0664 70.3743 62.003 70.2803C62.114 70.2803 62.1774 70.3743 62.3043 70.4213C62.1616 70.484 62.3677 70.6721 62.3994 70.7975C62.4311 70.9229 62.5897 70.8916 62.6056 70.9386C62.5263 70.9699 62.669 71.158 62.5263 71.0796C62.4787 71.0483 62.5739 70.9543 62.4629 70.9072C62.4629 71.0013 62.3043 71.0326 62.4629 71.1737C62.5739 71.2834 62.7483 71.0953 62.7166 71.3775C62.669 71.3148 62.6056 71.2991 62.5421 71.2521C62.5421 71.3304 62.5263 71.4088 62.4946 71.4715H62.6373C62.6373 71.4715 62.5897 71.5028 62.5739 71.5028C62.7324 71.5812 62.6056 71.8633 62.7483 71.9574C62.7483 72.0985 62.5897 72.1768 62.5263 72.2709V72.2395C62.3994 72.3179 62.3519 72.4903 62.3519 72.647V72.6157C62.3519 72.6157 62.1774 72.8195 62.1457 72.9292C61.9396 72.9762 61.8127 72.5373 61.7493 72.7881C61.6224 72.8665 61.5907 73.1486 61.7017 73.1956C61.3687 73.2583 60.9564 73.5405 60.6551 73.3054C60.5917 73.3524 60.6234 73.3994 60.5124 73.4151C60.2587 73.3524 60.005 73.274 59.7513 73.18C59.561 73.0389 59.3073 72.7881 59.3231 72.5217C59.4659 72.6157 59.4341 72.459 59.5134 72.4119C59.3549 72.3649 59.561 72.2395 59.3549 72.2865C59.2439 72.3492 59.1804 72.3649 59.2121 72.5217C58.9584 72.2552 58.8791 71.738 59.006 71.5655C58.9426 71.6439 58.9109 71.5812 58.8791 71.5185C59.0694 71.5342 59.1011 71.3304 59.0694 71.158L58.9584 71.111L59.1011 71.0326C59.1011 71.0326 58.8791 70.8916 59.0536 70.7662C59.1011 70.7662 59.1487 70.7818 59.1963 70.7662C59.1646 70.5781 59.1804 70.2333 59.4183 70.1235C59.4976 70.1235 59.5927 70.1235 59.672 70.1235C59.7196 70.0608 59.7989 69.8728 59.6244 69.9355C59.7989 69.8571 59.9416 69.8101 60.0526 69.7787L60.5283 69.669L60.6234 69.7317C60.7661 69.8101 60.8454 69.8884 60.8613 69.9981C61.6383 69.9355 62.3043 70.9229 62.0981 71.8007L62.0189 71.7536C61.892 71.9574 62.1616 71.9104 62.0506 72.0514C61.9871 71.9574 61.8127 72.1455 61.781 71.9574C61.6066 72.1925 61.7651 72.3806 61.6541 72.5844C61.7334 72.6941 61.7017 72.3963 61.7969 72.5217C61.8127 72.6 61.4163 72.8195 61.4639 72.9762C61.3529 72.9762 61.337 72.8195 61.3211 72.7411C61.2894 72.8038 61.2577 72.8665 61.2101 72.9135C60.9406 72.8508 61.3687 72.3336 61.0357 72.2709L60.9564 72.3649C60.782 72.2709 61.0357 72.0358 60.8137 72.1298C60.7979 72.2552 60.8137 72.5373 60.9406 72.553C60.7027 72.7254 60.9881 73.0232 60.6076 73.1016C60.4807 73.0232 60.9089 73.0075 60.782 72.8822C60.5917 72.8038 60.4649 73.0389 60.3063 73.0075C60.4807 73.0546 60.3539 73.2583 60.227 73.2897C60.0209 73.1956 60.3539 73.1329 60.0843 73.1016C60.0367 73.2113 59.7354 73.227 59.9733 73.3367C59.8147 73.5561 59.6561 73.2113 59.4183 73.3054C59.4024 73.1173 59.8464 73.0546 59.5769 72.8665C59.5769 73.0546 59.1011 72.8665 59.1487 73.1486C59.0377 73.0232 59.1011 72.9135 59.2439 72.8978C59.1487 72.7411 58.6413 72.7411 58.8474 72.4903L58.673 72.5217C58.673 72.4276 58.6571 72.3179 58.6889 72.1925C58.5937 72.0358 58.3241 71.6596 58.5779 71.6596C58.5303 71.6126 58.5779 71.2364 58.4034 71.3618C58.2766 71.6126 58.5144 71.6439 58.3083 71.8163C58.4669 71.6126 58.2607 71.4402 58.229 71.2521H58.3241C58.2924 71.1423 58.3717 70.9543 58.2924 70.8759C58.3241 70.9543 58.3876 70.9386 58.4351 70.8759L58.34 70.7348C58.4351 70.3743 58.5937 70.7662 58.7364 70.4527C58.7206 70.5467 58.7047 70.6251 58.7047 70.7191C58.7047 70.6565 58.8791 70.6408 58.9267 70.4997C58.8474 70.3743 58.8157 70.1862 58.784 70.0608C58.9109 69.8571 58.9584 70.0922 59.0377 69.8571C58.9901 69.9511 58.9584 70.0608 58.9267 70.1549C58.9267 70.2176 59.1963 70.1862 59.4024 70.0452C59.5134 69.9198 59.7354 69.6376 59.4024 69.7003C59.5451 69.622 59.7989 69.6533 59.7037 69.763C60.0367 69.6376 59.6086 69.6376 59.9099 69.4966C60.0843 69.5436 60.4173 69.6847 60.56 69.8571C60.4649 69.9041 60.3697 69.9668 60.2904 70.0452H60.4331C60.227 70.2176 60.4966 70.2019 60.3697 70.3743C60.4331 70.4213 60.5441 70.3743 60.6393 70.3743C60.4807 69.9982 61.0674 70.1079 61.1309 69.8571C61.5431 70.0295 60.9723 70.5154 61.5114 70.4213C61.5114 70.3273 61.7969 70.296 61.559 70.2019C61.7017 70.3743 61.8761 70.1235 61.9871 70.4057C61.781 70.3273 61.9079 70.7348 61.6066 70.6408C61.6859 70.5938 61.559 70.484 61.5114 70.484C61.5114 70.6094 61.3053 70.6721 61.4321 70.7975C61.5273 70.8602 61.6224 70.9856 61.7334 70.8916C61.8603 70.7975 61.6066 70.7505 61.781 70.7191C61.9871 70.9072 61.781 71.0483 62.0823 71.017C61.9871 70.8916 62.0823 70.7662 62.1774 70.7035L62.336 70.8445H62.225C62.3201 71.1894 62.447 70.8445 62.558 71.1737L62.4153 71.3931C62.2409 71.3931 62.3043 70.9386 62.0664 71.111C62.1457 71.2834 62.3043 71.2991 62.2884 71.4872C62.2567 71.4558 62.225 71.4088 62.1933 71.3775C62.1933 71.4558 61.8761 71.6126 62.1457 71.8007C62.2567 71.9104 62.2567 71.8163 62.3519 71.8007C62.4311 72.1141 62.5421 72.2082 62.558 72.4433C62.3677 72.3806 62.4946 72.8351 62.3043 72.5687C62.4629 72.4746 62.4311 71.9574 62.2091 71.8947C61.9871 72.0358 62.2091 71.6596 61.9396 71.6596C61.9871 71.879 61.7334 71.9104 61.5907 71.9731C61.5907 72.0201 61.6541 72.0671 61.6859 72.0985C61.8444 72.0985 61.8286 72.0358 61.9871 72.0044C61.9871 72.2552 62.0506 72.4746 62.1616 72.6627C62.0664 72.7411 61.9237 72.6627 61.9396 72.5844C61.9396 72.8978 61.781 73.2113 61.5273 73.4151C61.8603 73.4151 61.2894 73.7129 61.5273 73.7599C61.7176 73.6815 61.9713 73.6345 61.9713 73.8069C61.8603 73.901 61.892 73.7285 61.8127 73.7442C61.7651 73.9793 61.4797 73.7442 61.4639 74.0107C61.7334 73.7285 61.3529 73.7285 61.2894 73.5405C61.1784 73.7442 61.226 73.4307 61.0516 73.5405C60.9406 73.7285 60.7186 73.8853 60.4966 73.9323C60.2111 73.7912 59.7513 73.8696 59.4817 73.6502C59.4183 73.4778 59.6403 73.3837 59.5769 73.2583C59.4659 73.1486 59.4659 73.5091 59.4024 73.2583H59.45C59.339 73.2113 59.4024 72.8195 59.1329 72.7411C59.2121 72.7724 59.2914 72.8038 59.3707 72.8195C59.3866 72.7724 59.339 72.7411 59.3231 72.6941C59.4024 72.6941 59.4659 72.6627 59.5134 72.7254C59.6879 72.647 59.5293 72.4903 59.6086 72.3649C59.561 72.3649 59.4976 72.3649 59.4341 72.3649C59.4659 72.0828 59.7037 72.0358 59.894 71.879L59.9574 72.0044C59.9574 72.0044 60.0209 71.9104 60.0526 71.879C60.0684 72.0044 60.1953 72.0514 60.2429 71.9417C60.1477 72.0671 60.1001 72.2082 60.1001 72.3336C59.9891 72.3022 60.0843 72.1612 59.9733 72.0671C59.8623 71.9887 59.7196 72.1612 59.7989 72.2709C59.8623 72.2395 59.8306 72.2082 59.8464 72.1298C59.9733 72.2709 59.894 72.3179 59.9574 72.4433C59.9574 72.4119 60.0367 72.4433 60.005 72.3806C60.0209 72.4903 60.005 72.5217 59.9733 72.5844C59.9416 72.506 59.8623 72.553 59.8306 72.506C59.9733 72.6 59.9733 72.6784 59.9257 72.7254C59.7196 72.7881 60.0367 72.8195 60.0209 72.8508C59.8623 72.9135 59.7037 72.9292 59.6244 72.8351C59.561 72.9605 59.6561 72.9292 59.6244 73.0702C59.7671 73.0546 59.9416 72.9762 60.0367 72.9605L59.9574 73.0546C60.0684 73.0546 60.1477 72.8978 60.2111 72.9605C60.3221 73.0702 60.5441 73.0546 60.6869 73.0075L60.7344 73.1173C60.7027 72.8508 60.9247 72.8978 60.8771 72.7568C61.0833 72.6627 60.893 72.4119 61.115 72.3336C61.0199 71.9731 60.8137 71.7223 60.6234 71.4401L60.7979 71.3618C60.6551 71.3931 60.8454 71.2521 60.7661 71.2207C60.7186 71.3775 60.56 71.2834 60.4649 71.3618C60.4331 71.158 60.1794 71.2521 60.1953 71.3931V71.2677C60.2111 71.4715 60.1953 71.2834 60.0526 71.3461C60.005 71.3304 59.894 71.2834 59.8781 71.3304C60.0367 71.4715 60.0209 71.5028 60.1319 71.5499C60.1319 71.5812 60.0684 71.5812 60.0209 71.6439C60.1477 71.5812 60.1636 71.5499 60.2429 71.5342C60.338 71.5342 60.2904 71.4245 60.3697 71.5342C60.3697 71.5342 60.4014 71.5499 60.338 71.5342L60.3697 71.5499C60.227 71.4715 60.227 71.5028 60.2111 71.4245C60.2111 71.3931 60.2111 71.3618 60.1794 71.3618C60.1477 71.3618 60.1794 71.3618 60.1794 71.3148C60.1794 71.3461 60.1953 71.2521 60.2429 71.1737V71.1423L60.7027 71.0953C60.7027 71.0953 60.7027 71.2364 60.8137 71.3304C60.7503 71.2834 60.893 71.4245 60.7027 71.3461C60.6393 71.3775 60.782 71.4401 60.8137 71.4715C60.7027 71.5342 60.7344 71.5969 60.7979 71.6282C60.7979 71.6282 60.6393 71.6439 60.6234 71.6753C60.6869 71.6909 60.6234 71.7693 60.8137 71.6282C60.782 71.6439 60.782 71.6596 60.782 71.6596L60.8771 71.6439C60.9406 71.6439 60.9723 71.6282 60.9881 71.738C60.9881 71.6596 61.0199 71.6439 61.0199 71.5969C61.0516 71.5969 61.1784 71.7066 61.1626 71.5655C61.1943 71.5812 61.2101 71.6753 61.2419 71.6596C61.2419 71.6282 61.1943 71.5812 61.1784 71.5342C61.1467 71.4245 61.3687 71.4245 61.3053 71.2677C61.1309 71.1423 60.9881 71.064 60.8613 71.1894L60.8296 71.158C60.9564 71.2677 60.56 71.2207 60.8296 71.3148C60.782 71.3148 60.7979 71.3618 60.7027 71.3461C60.8296 71.3461 60.5759 71.5499 60.782 71.5185C60.782 71.5185 60.782 71.5185 60.7503 71.5185C60.6869 71.6753 60.8613 71.5812 60.8771 71.7223C60.8613 71.738 60.8296 71.7536 60.7979 71.8007C60.7979 71.926 60.9723 71.5812 60.9089 71.8633C60.9406 71.8633 60.9564 71.7223 60.9406 71.738C61.1626 71.879 61.3529 71.5342 61.2894 71.3931C61.448 71.3148 61.7176 71.4558 61.5273 71.3148C61.5749 71.3148 61.4321 71.3148 61.4797 71.3148C61.4004 71.2834 61.7176 71.1894 61.5749 71.158C61.448 71.2207 61.4797 71.158 61.4004 71.1894C61.4321 71.0796 61.4956 70.9543 61.337 70.9543L61.3846 70.9072C61.1784 70.9856 61.0991 70.8602 61.0199 71.0796C60.8613 71.0796 60.7979 71.2521 60.8613 71.3304C60.9089 71.4088 61.004 71.3775 61.0199 71.3618C61.0357 71.3931 61.0674 71.3618 61.0674 71.3461C61.0674 71.3304 61.0833 71.3461 61.0833 71.2364C61.1626 71.017 61.0833 70.9856 61.0199 71.0796C61.0199 71.0483 61.0199 71.0326 61.0199 71.0013C61.0199 71.1894 60.9564 71.017 60.9881 71.205C60.9881 71.205 60.9881 71.205 60.9564 71.205L60.9089 71.0953C60.9089 71.0953 60.9881 71.2207 60.9723 71.205L60.9406 71.3304C60.9406 71.3304 60.7661 71.2521 60.7661 71.2834L60.8771 71.3461H60.8296C60.8296 71.3461 60.9564 71.3931 61.0199 71.3931C61.0199 71.4245 61.0833 71.4245 61.0199 71.4401C60.9089 71.4558 60.8137 71.5028 60.7661 71.5342C60.7661 71.5342 60.7186 71.5655 60.7503 71.5499L60.7027 71.5969C60.7027 71.5969 60.7186 71.5342 60.7344 71.4245C60.7344 71.2677 60.7344 71.3148 60.7503 71.3304C60.782 71.3304 60.8296 71.3304 60.8613 71.3304C60.893 71.3304 60.9247 71.2991 60.9247 71.2991C60.9247 71.2991 61.0991 71.3775 61.115 71.3618C61.1309 71.3618 61.1467 71.3618 61.115 71.3618C61.1943 71.3461 61.1784 71.3618 61.1943 71.3461C61.1943 71.3461 61.0674 71.4402 61.0199 71.5499C61.0357 71.5342 60.9247 71.3461 60.7979 71.3304C60.671 71.2991 60.6551 71.2834 60.6393 71.2991L60.4014 70.5311C60.5917 70.7035 60.7979 70.8602 61.0357 71.0013C61.0357 71.0013 60.5917 71.2991 60.2111 71.1267L60.1477 71.1894Z" fill="white"/>
<path d="M60.1952 72.412C60.2111 72.3023 60.1155 72.2553 60.1952 72.1299C60.1952 72.2239 60.2271 72.3336 60.1952 72.412Z" fill="white"/>
<path d="M61.1468 73.9321C61.1468 73.9321 61.2265 73.9321 61.2583 73.9321C61.2105 73.9792 61.1946 74.0732 61.1309 74.0575C61.1787 74.0262 61.1468 73.9792 61.1627 73.9321H61.1468Z" fill="white"/>
<path d="M61.9874 72.9761C62.0671 73.0231 62.0352 73.3052 61.9556 73.462C61.9874 73.2896 62.0034 73.1328 61.9874 72.9761Z" fill="white"/>
<path d="M62.415 71.8479C62.4628 71.7382 62.5106 71.7538 62.5425 71.8949C62.4947 71.9106 62.4628 71.8636 62.415 71.8479Z" fill="white"/>
<path d="M62.1932 71.8004C62.1773 71.7064 62.2091 71.6594 62.241 71.5967C62.1773 71.6124 62.3366 71.8004 62.1932 71.8004Z" fill="white"/>
<path d="M60.8294 69.7475C60.8294 69.7475 60.5598 69.7475 60.5122 69.6221C60.5915 69.7004 60.9404 69.6377 60.8294 69.7475Z" fill="white"/>
<path d="M59.1496 69.967C59.1496 69.967 59.07 69.9983 59.0381 70.0454C58.9266 70.0767 58.9744 69.9513 59.0381 69.9043L59.1496 69.967Z" fill="white"/>
<path d="M59.0857 72.0516C59.0857 72.0516 59.0379 71.9889 59.022 71.9419H59.1176C59.1176 71.9419 59.1016 72.0046 59.0857 72.0516Z" fill="white"/>
<path d="M60.0531 69.7786C59.9734 69.8727 59.9256 69.7316 59.9097 69.7316C60.0053 69.6846 59.9256 69.8413 60.0531 69.7786Z" fill="white"/>
<path d="M60.1002 73.023L60.0684 73.0073L60.1639 72.8506L60.1002 73.023Z" fill="white"/>
<path d="M78.7481 71.8951C78.7481 71.8951 78.5569 71.7541 78.7003 71.8011C78.764 71.8795 78.8277 71.9578 78.7481 71.8951Z" fill="white"/>
<path d="M77.8598 70.7665C78.1452 70.5471 78.3038 70.7665 78.2879 70.9076C78.2879 71.08 78.2245 71.2054 78.4148 71.4091C78.4306 71.4562 78.0342 71.3308 78.1135 71.4091C78.3196 71.5659 78.3038 71.801 78.1452 71.9264C77.9866 72.0518 77.717 72.0204 77.606 71.848L77.8439 72.0674C77.8439 72.0674 77.9549 71.9734 78.0025 71.942H78.1135C78.1928 71.942 77.8439 71.8323 77.9073 71.7696C77.9708 71.7696 78.0025 71.801 78.0976 71.8166C77.8915 71.7696 78.0183 71.7069 77.8756 71.6286C77.9708 71.6286 78.1293 71.6756 78.2245 71.6913L78.0025 71.5815C77.495 71.2524 78.1452 71.3778 77.9549 71.1113C78.0025 71.1583 78.0183 71.1897 78.0818 71.2054C77.9391 70.7978 78.2562 70.5784 78.5416 70.3746C78.5416 70.4687 78.5892 70.6098 78.6368 70.7038C78.5733 70.453 78.6526 70.359 78.7478 70.2963C78.7953 70.5627 78.9063 70.0455 79.0332 70.2022V70.2649C79.16 69.9985 79.1125 70.453 79.271 70.1395C79.271 70.2179 79.271 70.2806 79.271 70.359C79.4613 70.0298 79.3186 70.5784 79.4455 70.453L79.493 70.3903C79.604 70.359 79.5248 70.5314 79.6199 70.5157L79.5882 70.5471C79.7626 70.5784 79.6516 70.7822 79.8895 70.5941C79.7309 70.7822 79.715 70.5471 79.5089 70.8292C80.0005 70.9389 80.1273 71.5188 79.9529 71.942C79.826 71.942 79.7785 71.942 79.6675 71.9107C79.715 71.9734 79.6358 72.0518 79.7309 72.1771C79.7309 72.1771 79.604 72.0988 79.5723 72.0988C79.4613 72.0518 79.715 72.4123 79.5406 72.3496C79.5406 72.2555 79.493 72.1771 79.4296 72.0988C79.493 72.3182 79.382 72.3496 79.3186 72.4279C79.3186 72.3809 79.3186 72.3496 79.3186 72.2555C79.2869 72.5376 79.16 72.2242 79.0966 72.3966V72.2242C79.0173 72.0204 79.0966 72.5847 78.9698 72.4593C79.0015 72.4123 79.0015 72.3339 79.0015 72.2712C78.8746 72.569 78.7002 72.4436 78.5733 72.5063C78.5733 72.4906 78.605 72.4436 78.605 72.4436C78.4782 72.4436 78.4148 72.3182 78.2403 72.3966C78.2403 72.3025 78.4148 72.0204 78.2879 72.0361C78.1452 72.3496 78.0501 72.0831 77.9391 72.4593C77.8598 72.3652 77.7963 72.1772 77.6695 72.2398C77.7805 72.1458 77.8598 71.8637 77.9391 71.8793L78.0025 71.6756C78.0818 71.5659 78.0183 71.7383 78.0976 71.5815C78.0659 71.5815 77.9073 71.6286 77.9073 71.5815C77.7329 71.7069 77.4316 71.9891 77.3048 71.9264C77.4316 71.8637 77.5268 71.6286 77.5902 71.5972C77.3999 71.7226 77.2096 71.848 77.0193 71.9577C76.9718 71.942 77.2096 71.754 77.0986 71.7696C77.0352 71.8323 76.9718 71.848 76.9083 71.8793C76.9242 71.848 76.7022 71.7696 76.9559 71.5502C77.051 71.4562 77.0511 71.5502 77.1145 71.4561C77.0669 71.3935 76.9718 71.4561 76.9083 71.3935L76.9401 71.3621C76.9401 71.3621 76.7339 71.2837 76.5912 71.4405C76.5912 71.4875 76.7656 71.3308 76.7022 71.4405C76.5119 71.5032 76.4009 71.4091 76.3533 71.2994C76.4168 71.2994 76.4961 71.2681 76.5912 71.2524C76.2899 71.2524 76.1472 71.0329 76.0203 70.9076C75.8618 70.9232 76.3216 70.9076 76.2423 70.9389C76.4326 70.7508 75.8935 70.5784 76.2582 70.406C76.2899 70.4373 76.0203 70.406 76.0679 70.406C76.0996 70.3119 76.3375 70.3276 76.2741 70.2649C76.4168 70.2649 76.2582 70.2022 76.2265 70.1239C76.1313 70.0768 76.3058 70.1239 76.2899 70.1709C76.1789 70.0925 76.1313 69.7007 76.4643 69.638C76.3692 69.6223 76.1948 69.4342 76.2423 69.4029L76.4485 69.4969C76.6071 69.5283 76.5278 69.4029 76.7181 69.4656C76.5119 69.3088 76.6863 69.7634 76.5753 69.6066C76.7815 69.6536 76.3533 69.3715 76.6229 69.4969C76.6705 69.4499 76.4961 69.2775 76.7656 69.3402C76.7181 69.3402 77.0035 69.5126 77.0511 69.4812C77.1145 69.4185 76.9718 69.4185 76.9876 69.3402L76.9559 69.2618C76.7498 69.1364 77.0669 69.2304 76.7973 69.1051C76.9876 69.2148 76.8449 68.964 77.1779 69.1991L77.4316 69.3872C77.4316 69.3872 77.2255 69.1678 77.1462 69.0737C77.1779 69.0894 77.2413 69.1207 77.2889 69.1521C76.9083 68.8386 77.4316 69.1521 77.2096 68.8699C77.4475 68.9483 77.5585 68.7916 77.8281 69.0424C77.8281 68.9013 77.8756 68.7446 78.0976 68.8386C78.0976 68.8856 78.05 68.9013 78.0976 68.9953C78.272 69.1207 78.2086 68.9953 78.2879 68.9326C78.2879 68.9953 78.6685 69.2304 78.7795 69.4185C78.9063 69.3245 78.8588 69.0894 78.8746 68.9483C79.0015 69.2148 79.1442 69.2148 79.3662 69.2304C79.5565 69.2148 79.8895 69.3558 79.8736 69.6223C79.7468 69.5596 79.4138 69.5126 79.5406 69.732C79.5089 69.9201 79.5565 69.9515 79.6833 69.9828C79.8578 70.0141 80.0956 70.0925 80.0798 70.2806C80.1908 70.2336 80.2859 70.1866 80.381 70.1395C80.2542 70.3276 80.8726 70.6568 80.4445 70.5941C80.6189 70.7195 80.4128 70.8762 80.7775 70.9389C80.5555 71.2367 80.9836 71.8793 80.381 71.5815C80.4286 71.6599 80.381 71.6756 80.5396 71.801C80.7299 71.895 80.4128 71.6286 80.5396 71.7069C80.5396 71.7383 80.6348 71.8166 80.6823 71.848C80.603 71.848 80.5713 71.8793 80.3176 71.6129C80.1273 71.5659 80.825 72.2085 80.6506 72.2869C80.5396 72.1615 80.492 72.1301 80.5079 72.1928L80.6665 72.4906C80.5872 72.5533 80.4128 72.2712 80.2383 72.0674C80.2383 72.1615 80.2383 72.2085 80.3335 72.3966L80.1273 72.1928C80.2859 72.3496 80.2066 72.3652 80.2225 72.4436L80.1908 72.3652C80.1273 72.2869 80.1432 72.3966 80.1432 72.4593C80.2225 72.5847 80.3018 72.5847 80.3335 72.5847C80.381 72.7101 80.3335 72.7257 80.3969 72.8668C80.27 72.6474 80.2542 72.8041 80.2066 72.8041C80.1432 72.8041 80.27 73.0392 80.2542 73.0549C80.1908 72.9452 80.1749 73.1019 80.1273 72.9138C80.1273 72.8668 80.2066 72.9922 80.1749 72.8668C80.1115 72.8041 80.0163 72.616 80.0322 72.8198C80.0322 72.9608 80.2383 73.243 80.0956 73.1803C80.0956 73.1019 80.0639 73.0079 80.048 72.9295L79.9212 72.8825L80.0005 73.0862C80.0005 73.0862 79.9688 73.0235 79.9529 72.9922C80.0163 73.2273 79.8419 73.1489 79.9053 73.3997C79.8578 73.4467 79.7468 73.3213 79.6992 73.3213C79.604 73.2116 79.5406 73.3213 79.5089 73.4781V73.4311C79.5089 73.4311 79.382 73.4938 79.3503 73.6192C79.2235 73.4781 79.2235 72.8668 79.16 73.1333C79.0808 73.1489 79.0332 73.5251 79.0808 73.6505C78.9539 73.5408 78.5416 73.8543 78.3513 73.4467C78.2879 73.5094 78.2879 73.5721 78.1928 73.5878C77.9866 73.4624 77.6853 73.3684 77.4475 73.1489C77.2096 72.9295 77.0828 72.6003 77.2255 72.3496C77.3523 72.475 77.4316 72.3025 77.5426 72.2712C77.3365 72.2085 77.7012 72.1301 77.384 72.1301C77.2096 72.1615 77.0986 72.1615 77.0669 72.3339C76.8608 72.0204 76.9718 71.4248 77.2096 71.3464C77.0986 71.3935 77.0669 71.3151 77.0352 71.2367C77.3048 71.3621 77.4158 71.1897 77.4158 71.0173L77.2731 70.9076C77.2731 70.9076 77.4158 70.9076 77.4792 70.9389C77.4792 70.8605 77.2255 70.6568 77.4475 70.6568C77.5109 70.7038 77.5585 70.7351 77.6219 70.7508C77.6061 70.5471 77.6219 70.2179 77.8439 70.2493C77.9232 70.2963 78.0183 70.359 78.0818 70.406C78.1135 70.359 78.1452 70.1552 78.0025 70.1552C78.3196 70.1552 78.4782 70.1552 78.605 70.3433C78.8746 69.6536 79.7943 69.7007 80.2066 69.9985L80.1273 70.1082C80.1908 70.2806 80.3018 69.9358 80.3335 70.0612C80.2383 70.1552 80.2859 70.3433 80.1115 70.4373C80.1749 70.6411 80.4128 70.3433 80.5555 70.3746C80.6823 70.2493 80.4128 70.406 80.5555 70.2493C80.6189 70.2179 80.6823 70.5157 80.8726 70.3276C80.8409 70.4373 80.6823 70.5627 80.5872 70.6254L80.7458 70.5941C80.603 70.8919 80.1749 70.8292 80.0163 71.2054H80.0956C79.937 71.4561 79.7785 71.3621 79.8102 71.5188C79.937 71.4561 80.2542 71.2367 80.2859 71.0956C80.4603 71.1583 80.8092 70.7038 80.936 70.8919C80.8568 71.033 80.7933 70.7822 80.6506 70.9546C80.5555 71.1583 80.8726 71.033 80.8726 71.1583C80.9043 71.0173 81.1739 70.9232 81.2532 70.9703C81.2215 71.1427 80.9995 71.0486 81.0629 71.2054C81.2056 71.1427 81.3959 71.2367 81.4118 71.0486C81.7606 70.9389 81.4118 71.2681 81.713 71.2367C81.5069 71.3778 81.1263 71.3151 81.0788 71.5345C81.2849 71.4091 81.4752 71.6286 81.7606 71.4091C81.7289 71.5188 81.5545 71.5815 81.3959 71.5815C81.2849 71.7226 81.9033 71.7226 81.4435 71.8793H81.6972C81.6972 71.8793 81.5862 71.9891 81.4593 72.0674C81.4752 72.1458 81.824 72.3809 81.4593 72.3809C81.5069 72.4123 81.4593 72.6474 81.7289 72.569C81.8875 72.3966 81.5545 72.3966 81.8875 72.2869C81.6179 72.4123 81.935 72.522 82.0143 72.6474H81.8716C81.8716 72.6474 81.8716 72.8511 82.0143 72.9138C81.935 72.8511 81.8399 72.8668 81.7923 72.9138L81.9985 73.0235C82.046 73.3057 81.6179 72.9922 81.6179 73.2273C81.5862 73.1489 81.5545 73.0862 81.5069 73.0235C81.5386 73.0706 81.3166 73.0862 81.3483 73.196C81.5228 73.29 81.713 73.4624 81.8399 73.5565C81.8558 73.7289 81.6179 73.5251 81.7289 73.7289C81.6813 73.6348 81.6338 73.5565 81.5862 73.4781C81.5386 73.4311 81.2373 73.4467 81.1739 73.5721C81.1739 73.6818 81.3325 73.9797 81.5228 73.9013C81.4752 73.9797 81.3008 74.011 81.2215 73.8699C81.1739 74.058 81.4118 73.9797 81.4118 74.1834C81.269 74.1521 80.9836 74.1834 80.7775 74.1207C80.7299 74.011 80.6982 73.9013 80.6348 73.7916L80.5713 73.8543C80.4603 73.6035 80.3969 73.7445 80.2383 73.5094C80.1749 73.5094 80.2066 73.6035 80.2225 73.6975C80.6348 73.9326 80.4762 74.2775 80.7458 74.5753C80.5555 74.8417 80.0798 73.8386 80.1749 74.5126C80.27 74.5909 80.2859 74.9201 80.381 74.732C80.2066 74.7634 80.4603 75.1552 80.1908 75.0925C80.2542 74.8887 79.8895 74.779 79.9846 74.4655C80.0322 74.5909 80.1273 74.5126 80.1273 74.4655C80.0005 74.3558 79.9529 74.105 79.8419 74.1521C79.7943 74.2148 79.6833 74.2618 79.7626 74.4499C79.8419 74.6693 79.8895 74.3872 79.9053 74.6223C79.7468 74.7634 79.6199 74.4342 79.6516 74.8417C79.7626 74.779 79.8736 74.9985 79.9053 75.1552C79.8578 75.2022 79.8102 75.2492 79.7626 75.2963V75.1395C79.4772 75.0925 79.7468 75.4373 79.4613 75.4373L79.3028 75.1552C79.3345 74.8887 79.6833 75.2179 79.5565 74.7947C79.4138 74.7947 79.382 75.0298 79.2235 74.9358C79.2552 74.8887 79.3028 74.8887 79.3186 74.8417C79.2552 74.8417 79.1759 74.2775 79.0015 74.6066C78.8905 74.732 78.9698 74.7634 78.9698 74.9201C78.716 74.9514 78.605 75.1082 78.4148 75.0925C78.5099 74.7947 78.1135 74.9828 78.383 74.732C78.4148 74.9358 78.827 74.9828 78.9222 74.685C78.8588 74.3245 79.0966 74.732 79.1283 74.3558C78.9698 74.3558 78.9856 73.9797 78.9698 73.7445C78.938 73.7445 78.9063 73.8229 78.8746 73.8543C78.8429 74.0737 78.8746 74.0737 78.8746 74.3088C78.7002 74.2304 78.5258 74.3245 78.3513 74.4969C78.3196 74.3715 78.4148 74.1677 78.494 74.1677C78.272 74.1677 78.0501 74.0267 77.9391 73.8543C77.8281 74.2304 77.7012 73.7759 77.5743 74.058C77.606 74.1991 77.5743 74.4812 77.384 74.5753C77.3206 74.4969 77.4792 74.4499 77.495 74.3715C77.273 74.4499 77.5743 74.0267 77.2731 74.1677C77.5426 74.2618 77.6219 73.8856 77.8598 73.7132C77.6536 73.7445 78.0025 73.5721 77.9232 73.4938C77.7329 73.5251 77.5268 73.4624 77.3999 73.3527C77.5585 73.0862 77.2413 72.9452 77.1938 72.7728C77.3206 72.663 77.6536 72.663 77.7012 72.6003C77.6853 72.522 77.3523 72.7101 77.495 72.5533H77.5585C77.4792 72.522 77.7646 72.3496 77.3048 72.2712L77.6536 72.3339C77.6536 72.3339 77.606 72.2869 77.5743 72.2712C77.6853 72.2712 77.7963 72.2712 77.8756 72.3025C78.1135 72.2712 77.8598 72.1771 77.8598 72.0988H77.6378C77.5109 71.9264 77.7488 71.8793 77.7329 71.7383L77.9232 71.8323L77.8598 71.7069C78.0342 71.8166 78.1611 71.8323 78.0501 71.7069C78.1611 71.848 78.272 71.9734 78.4148 72.0831C78.2879 72.0674 78.2086 71.942 78.0183 71.8793C77.8439 71.8323 77.8439 71.9734 78.0183 72.0361C78.0501 72.0047 78.0183 71.9891 77.9549 71.942C78.2245 72.0361 78.1928 72.0831 78.3672 72.1615C78.3672 72.1458 78.4465 72.1615 78.3672 72.1301C78.4782 72.2085 78.5099 72.2242 78.494 72.2712C78.3989 72.2242 78.3196 72.2398 78.2403 72.2085C78.4782 72.2712 78.5575 72.3182 78.4782 72.3496C78.1928 72.3652 78.6526 72.4436 78.5892 72.4906C78.3355 72.4906 78.1293 72.4593 78.0342 72.3966C77.9073 72.4593 78.0342 72.4593 77.9073 72.522C78.0976 72.5377 78.3989 72.522 78.5099 72.5533L78.3196 72.5847C78.4148 72.616 78.7002 72.5533 78.6526 72.6003C78.5892 72.6944 78.6209 72.7728 78.6526 72.8198L78.5099 72.9295C78.8429 72.7101 78.7002 72.9138 78.827 72.7884C78.7953 72.9765 78.9539 72.663 78.9063 72.9765C79.0649 72.8511 79.0966 72.7101 79.2076 72.7257L79.3028 72.9765C79.2393 72.7884 79.382 73.1176 79.3979 73.0549C79.271 72.8825 79.3028 72.7884 79.2235 72.6474C79.382 72.8041 79.3028 72.569 79.1442 72.4436L79.2869 72.569C79.0173 72.3339 79.2552 72.5377 79.3345 72.522C79.4138 72.5533 79.5882 72.5847 79.5565 72.569C79.3028 72.475 79.2076 72.4906 79.1759 72.475C79.0966 72.475 79.1442 72.475 79.2869 72.4279C79.0808 72.4593 79.1125 72.4593 78.9698 72.475L79.0332 72.3809C79.0332 72.3809 78.9856 72.4593 79.0015 72.4279C79.0015 72.4279 79.0173 72.3966 79.0332 72.3809C79.0332 72.3496 79.049 72.3182 79.0649 72.2869V72.2555V72.0831V72.1301C79.0649 72.1772 79.0808 72.2242 79.0966 72.2398C79.0966 72.2398 79.0966 72.2398 79.0966 72.2555C79.0966 72.2555 79.0649 72.2085 79.0332 72.1771C78.9856 72.1301 78.9856 72.1301 78.938 72.0988C78.827 72.0204 78.7636 72.0204 78.7636 72.0204C78.7319 72.0204 78.7953 72.0204 78.7636 72.0204C78.6368 72.0831 78.8112 71.9891 78.8429 71.8166C78.8429 71.8166 78.8429 71.801 78.8429 71.7853V71.7383L78.938 70.9859H78.9222C78.8905 71.0016 78.8588 71.0329 78.8905 71.0486C78.9063 71.08 78.9222 71.0956 78.938 70.9859C78.938 71.0486 78.938 71.1897 78.9698 71.2054C78.9698 71.1583 78.9539 71.0486 78.9539 70.9859C78.9539 70.7665 79.0966 71.1427 79.1283 71.0173C79.0808 70.7508 79.0966 70.7665 79.049 70.6568H79.0808C78.9698 70.6098 79.1283 70.6568 78.9856 70.5784C78.9856 70.5784 78.9856 70.5627 79.0173 70.5784C78.9856 70.5784 78.9856 70.5471 78.9698 70.5314C78.9539 70.5314 78.938 70.5 78.9222 70.5C78.9222 70.5 78.8588 70.4687 78.8112 70.4217C78.8112 70.4217 78.8112 70.4217 78.8112 70.3903C78.7636 70.3433 78.8112 70.453 78.7319 70.3433L78.7636 70.3903C78.605 70.2963 78.5575 70.3746 78.5733 70.4217C78.3196 70.3746 78.0342 70.2179 78.2086 70.3276C78.1293 70.3119 78.3355 70.3746 78.2562 70.3433C78.3355 70.3746 77.8122 70.2649 77.9866 70.3433C78.2245 70.3903 78.0976 70.3903 78.2403 70.4217C78.05 70.4217 77.8122 70.4217 77.9708 70.5H77.8439C78.1928 70.5627 77.9866 70.6411 78.4306 70.6254V70.6568C77.1303 70.8762 78.0659 70.7195 77.7805 70.7665C77.7963 70.7665 77.8598 70.7508 77.9073 70.7351C78.0025 70.7038 78.1293 70.6411 78.272 70.5471L78.4465 70.4373C78.4465 70.4373 78.4623 70.4373 78.4782 70.4373C78.4941 70.4373 78.5258 70.4373 78.5733 70.4373C78.716 70.453 78.8746 70.4687 79.049 70.5C79.16 70.2963 78.8905 71.1427 78.9222 71.3621C78.9222 71.5032 78.9222 71.5815 78.938 71.6129L78.9856 71.7383C78.9856 71.7383 79.0173 71.801 79.0173 71.7853C79.0491 71.801 78.9063 71.6913 78.7319 71.6756C78.5575 71.6442 78.4306 71.6913 78.4623 71.6756C78.494 71.6599 78.5258 71.6599 78.6368 71.5659C78.6368 71.5659 78.716 71.5032 78.716 71.4875C78.7795 71.4405 78.7953 71.3308 78.7953 71.3778L78.7636 71.6442V71.6286V71.6756V71.6913C78.7636 71.6913 78.7636 71.7383 78.7636 71.7069C78.7953 71.8793 79.0332 72.1145 79.0808 72.1145C79.1442 72.1458 78.938 72.0518 78.7636 72.0674L77.4633 71.4718C77.4633 71.4718 77.4633 71.5659 77.4633 71.5345C77.495 71.5659 77.3523 71.3621 77.1938 71.3151C76.9401 71.2054 76.9559 71.2837 77.1938 71.2367C77.4475 71.1897 77.5743 70.9703 77.4792 71.1427C77.5109 71.1427 77.3841 71.1427 77.6853 70.8605L77.8598 70.7665Z" fill="white"/>
<path d="M78.7319 71.9422C78.605 71.8482 78.5099 71.8481 78.3672 71.6914C78.494 71.7698 78.6209 71.8482 78.7319 71.9422Z" fill="white"/>
<path d="M77.6226 73.8228C77.6226 73.8228 77.6226 73.9012 77.6066 73.9168C77.5748 73.9012 77.4473 73.9482 77.4792 73.8698C77.5111 73.9012 77.5589 73.8385 77.6226 73.8071V73.8228Z" fill="white"/>
<path d="M78.3036 74.3872C78.2402 74.5126 78.0023 74.5126 77.8755 74.4656C78.0341 74.4656 78.1609 74.4342 78.3036 74.3872Z" fill="white"/>
<path d="M79.0813 75.1084C79.161 75.2181 79.145 75.2808 79.0176 75.2808C79.0176 75.2024 79.0494 75.1711 79.0813 75.1084Z" fill="white"/>
<path d="M79.144 74.7949C79.144 74.7949 79.2555 74.8733 79.2874 74.936C79.2874 74.8263 79.1121 75.0144 79.144 74.7949Z" fill="white"/>
<path d="M81.0469 74.5127C81.0469 74.5127 81.0787 74.3246 81.2221 74.3873C81.1106 74.3403 81.1425 74.6851 81.0469 74.5127Z" fill="white"/>
<path d="M81.5386 73.6347C81.5386 73.6347 81.5864 73.6033 81.5704 73.5563C81.6501 73.525 81.7138 73.6347 81.6979 73.6817L81.5386 73.619V73.6347Z" fill="white"/>
<path d="M80.1748 69.9199L80.3341 70.0453L80.1748 70.0767V69.9199Z" fill="white"/>
<path d="M76.1158 71.3306C76.2273 71.3776 76.0202 71.4246 76.0043 71.456C75.9565 71.3933 76.1636 71.4246 76.1158 71.3306Z" fill="white"/>
<path d="M78.161 72.4124H78.145L78.2565 72.1616L78.161 72.4124Z" fill="white"/>
</svg>
