<svg width="169" height="22" viewBox="0 0 169 22" fill="none" xmlns="http://www.w3.org/2000/svg">
<path d="M85.4072 16.5698C84.8297 16.5902 84.2685 16.3817 83.8466 15.9932C83.4165 15.5762 83.1871 14.9914 83.2116 14.3944V10.1378H81.8599V8.83339H83.2116V6.50266H84.6576V8.83339H86.5419V10.1378H84.6576V13.9283C84.6126 14.3004 84.7191 14.6725 84.9566 14.9628C85.1369 15.1386 85.3786 15.2368 85.6325 15.2368C85.7472 15.2368 85.8578 15.2245 85.9684 15.1959C86.0749 15.1713 86.1773 15.1386 86.2757 15.0937L86.7303 16.3694C86.3043 16.5125 85.8578 16.582 85.4113 16.5698H85.4072Z" fill="#38BDAE"/>
<path d="M91.2937 16.6965C90.241 16.7293 89.2251 16.3122 88.5001 15.5475C87.7587 14.7624 87.3654 13.7198 87.4023 12.6443C87.3695 11.5771 87.7505 10.5385 88.4673 9.74933C89.9584 8.22822 92.3997 8.20369 93.9235 9.68799C94.6445 10.5426 95.005 11.6425 94.9353 12.7547L94.9189 12.9101H88.8728C88.8647 13.5889 89.1391 14.2391 89.6266 14.7134C90.6015 15.6498 92.1499 15.6211 93.0879 14.648C93.264 14.4639 93.4115 14.2554 93.5221 14.0305L94.8083 14.652C94.4765 15.2777 93.9809 15.8011 93.3706 16.1609C92.7397 16.5289 92.0188 16.717 91.2896 16.7047L91.2937 16.6965ZM88.9875 11.7243H93.3992C93.3665 11.2173 93.133 10.743 92.7479 10.4117C92.3055 10.0478 91.7443 9.85973 91.1709 9.88835C90.6588 9.87609 90.1591 10.056 89.7658 10.3872C89.3644 10.7348 89.0899 11.2009 88.9875 11.7202V11.7243Z" fill="#38BDAE"/>
<path d="M99.8547 16.6966C98.7896 16.7252 97.7574 16.3081 97.0159 15.5435C96.2745 14.7584 95.8731 13.7157 95.9018 12.6403C95.869 11.5608 96.2704 10.5181 97.0159 9.73707C97.7615 8.97243 98.7896 8.55535 99.8588 8.58806C100.588 8.57171 101.305 8.77616 101.915 9.1687C102.505 9.56125 102.964 10.1214 103.234 10.7757L101.915 11.3195C101.591 10.424 100.719 9.84339 99.7646 9.89245C99.1051 9.89245 98.4783 10.1828 98.0523 10.6857C97.1102 11.8225 97.1102 13.4662 98.0523 14.603C98.9207 15.5762 100.416 15.6661 101.391 14.7993C101.649 14.5703 101.854 14.284 101.993 13.9651L103.279 14.5089C103.017 15.1714 102.55 15.7315 101.952 16.1159C101.325 16.5125 100.596 16.7129 99.8547 16.7006V16.6966Z" fill="#38BDAE"/>
<path d="M104.533 5.32504H105.979V8.8375L105.917 9.89246H105.979C106.224 9.49583 106.577 9.17279 106.99 8.96017C107.425 8.71892 107.912 8.58807 108.412 8.58807C109.219 8.53491 110.009 8.82523 110.587 9.38951C111.128 10.0192 111.402 10.837 111.349 11.663V16.4471H109.903V11.941C109.903 10.5753 109.288 9.89246 108.064 9.89246C107.486 9.89246 106.937 10.1582 106.581 10.6121C106.184 11.0824 105.966 11.6834 105.979 12.2968V16.443H104.533V5.32504Z" fill="#38BDAE"/>
<path d="M113.041 8.83339H114.421V9.88835H114.483C114.729 9.49172 115.081 9.16869 115.495 8.95606C115.929 8.71481 116.416 8.58396 116.916 8.58396C117.723 8.5308 118.514 8.82112 119.091 9.38541C119.632 10.0151 119.906 10.8329 119.853 11.6589V16.443H118.407V11.7529C118.514 10.8247 117.846 9.99058 116.916 9.88426C116.781 9.86791 116.642 9.872 116.506 9.88426C115.945 9.87609 115.409 10.1337 115.06 10.5753C114.671 11.0374 114.466 11.6262 114.479 12.2273V16.4348H113.033V8.82521L113.041 8.83339Z" fill="#38BDAE"/>
<path d="M121.115 12.6403C121.078 11.5608 121.479 10.514 122.229 9.73707C122.974 8.97243 124.003 8.55944 125.072 8.58806C126.133 8.55535 127.161 8.97243 127.898 9.73707C129.405 11.3809 129.405 13.9038 127.898 15.5475C127.161 16.3122 126.133 16.7293 125.072 16.6966C124.007 16.7252 122.974 16.3122 122.229 15.5475C121.479 14.7706 121.078 13.7198 121.115 12.6444V12.6403ZM122.561 12.6403C122.528 13.3722 122.79 14.0878 123.282 14.6275C124.232 15.613 125.801 15.6457 126.792 14.697C126.817 14.6725 126.841 14.6521 126.862 14.6275C127.824 13.4826 127.824 11.8102 126.862 10.6653C125.936 9.67983 124.388 9.62667 123.4 10.5508C123.359 10.5876 123.323 10.6285 123.286 10.6653C122.79 11.2009 122.532 11.9124 122.561 12.6403Z" fill="#38BDAE"/>
<path d="M131.712 5.32504V16.4471H130.266V5.32504H131.712Z" fill="#38BDAE"/>
<path d="M132.953 12.6403C132.916 11.5608 133.317 10.514 134.067 9.73707C134.812 8.97243 135.84 8.55535 136.91 8.58806C137.97 8.55535 138.999 8.97243 139.736 9.73707C141.243 11.3809 141.243 13.9038 139.736 15.5475C138.999 16.3122 137.97 16.7293 136.91 16.6966C135.845 16.7293 134.812 16.3122 134.067 15.5475C133.317 14.7706 132.916 13.7198 132.953 12.6444V12.6403ZM134.399 12.6403C134.366 13.3722 134.628 14.0878 135.119 14.6275C136.07 15.613 137.639 15.6457 138.63 14.697C138.655 14.6725 138.679 14.6521 138.7 14.6275C139.662 13.4826 139.662 11.8102 138.7 10.6653C137.774 9.67983 136.225 9.62667 135.238 10.5508C135.197 10.5876 135.16 10.6285 135.124 10.6653C134.632 11.2009 134.37 11.9124 134.403 12.6403H134.399Z" fill="#38BDAE"/>
<path d="M145.594 20.0495C145.184 20.0495 144.779 19.9964 144.385 19.886C144.021 19.7837 143.677 19.6284 143.357 19.428C143.058 19.2399 142.792 19.0027 142.567 18.7329C142.345 18.463 142.178 18.1604 142.063 17.8333L143.427 17.2731C143.578 17.7106 143.861 18.0827 144.242 18.3444C144.639 18.6184 145.11 18.7574 145.594 18.7492C146.278 18.7901 146.946 18.5366 147.429 18.0541C147.892 17.5225 148.129 16.8315 148.088 16.1282V15.3922H148.027C147.748 15.8011 147.368 16.1323 146.921 16.349C146.45 16.5821 145.93 16.7006 145.405 16.6965C144.414 16.7006 143.468 16.2754 142.812 15.5312C142.104 14.7379 141.719 13.7034 141.743 12.6403C141.719 11.5812 142.1 10.5549 142.812 9.76978C143.46 9.0174 144.41 8.58396 145.405 8.58805C145.93 8.58396 146.45 8.70255 146.921 8.93562C147.368 9.15234 147.748 9.48355 148.027 9.89245H148.088V8.82931H149.473V16.1159C149.641 18.1154 148.158 19.8737 146.155 20.0414C145.971 20.0577 145.782 20.0577 145.598 20.0454L145.594 20.0495ZM145.639 15.3922C146.307 15.4126 146.946 15.1345 147.384 14.6316C148.326 13.4785 148.326 11.8225 147.384 10.6694C146.95 10.1623 146.311 9.88018 145.639 9.89245C144.971 9.88018 144.332 10.1664 143.894 10.6694C143.415 11.2132 143.161 11.9206 143.185 12.6443C143.157 13.3681 143.41 14.0714 143.894 14.6112C144.332 15.1182 144.967 15.4044 145.639 15.3962V15.3922Z" fill="#38BDAE"/>
<path d="M153.098 6.20826C153.102 6.47813 152.996 6.73574 152.799 6.92383C152.398 7.31638 151.755 7.31638 151.353 6.92383C150.96 6.53538 150.956 5.89749 151.345 5.50086C151.345 5.50086 151.349 5.49677 151.353 5.49268C151.755 5.10014 152.398 5.10014 152.799 5.49268C152.992 5.68078 153.102 5.93838 153.098 6.20826ZM152.799 8.8334V16.443H151.353V8.8334H152.799Z" fill="#38BDAE"/>
<path d="M158.059 16.6965C157.006 16.7293 155.99 16.3122 155.265 15.5475C154.524 14.7624 154.13 13.7198 154.163 12.6443C154.13 11.5771 154.511 10.5385 155.232 9.74933C156.723 8.22822 159.165 8.20369 160.688 9.68799C161.409 10.5426 161.77 11.6425 161.7 12.7547L161.684 12.9101H155.638C155.63 13.5889 155.904 14.2391 156.391 14.7134C157.362 15.6498 158.911 15.6211 159.849 14.652C160.025 14.468 160.172 14.2595 160.283 14.0305L161.569 14.652C161.241 15.2777 160.742 15.8011 160.131 16.1609C159.501 16.5289 158.78 16.717 158.05 16.7047L158.059 16.6965ZM155.752 11.7243H160.164C160.131 11.2173 159.898 10.743 159.513 10.4117C159.07 10.0478 158.509 9.85973 157.936 9.88835C157.424 9.87609 156.924 10.056 156.531 10.3872C156.129 10.7348 155.859 11.2009 155.757 11.7202L155.752 11.7243Z" fill="#38BDAE"/>
<path d="M168.988 14.3331C168.988 15.0037 168.656 15.6293 168.107 16.0096C167.468 16.4839 166.686 16.7252 165.895 16.6925C165.17 16.7088 164.457 16.5003 163.855 16.0955C163.282 15.7152 162.843 15.1632 162.598 14.5212L163.888 13.9774C164.056 14.4067 164.343 14.7747 164.715 15.0446C165.06 15.294 165.477 15.4249 165.899 15.4249C166.305 15.4412 166.706 15.339 167.054 15.1305C167.321 14.9996 167.497 14.7338 167.517 14.4353C167.517 13.9487 167.14 13.5889 166.383 13.364L165.064 13.0369C163.564 12.6648 162.819 11.9492 162.819 10.8942C162.802 10.2277 163.126 9.60212 163.675 9.22593C164.892 8.44494 166.44 8.38769 167.71 9.07873C168.23 9.36496 168.636 9.81884 168.865 10.3668L167.579 10.8942C167.431 10.5712 167.177 10.3054 166.866 10.1419C166.526 9.95787 166.145 9.86382 165.76 9.86791C165.404 9.86382 165.051 9.96196 164.748 10.15C164.486 10.2809 164.314 10.5426 164.302 10.8329C164.302 11.2663 164.715 11.5771 165.543 11.7652L166.706 12.0596C168.234 12.4276 169 13.1882 169 14.3372L168.988 14.3331Z" fill="#38BDAE"/>
<path d="M26.5479 5.32913H28.6083V8.45313L28.4813 9.8393H28.6083C28.8418 9.46311 29.1695 9.15644 29.5586 8.94381C29.9846 8.70665 30.4639 8.58807 30.9513 8.59625C31.7829 8.53082 32.598 8.84976 33.1592 9.4672C33.6672 10.1542 33.9211 10.9924 33.8761 11.847V16.4635H31.8198V12.0923C31.8484 11.6589 31.7133 11.2255 31.4388 10.8861C31.1644 10.6039 30.7793 10.4527 30.3861 10.4731C30.1239 10.469 29.8658 10.5303 29.6323 10.653C29.4111 10.7716 29.2227 10.9392 29.0753 11.1396C28.9196 11.3563 28.8008 11.6017 28.7271 11.8634C28.6451 12.1496 28.6083 12.444 28.6083 12.7425V16.4594H26.5519V5.32913H26.5479Z" fill="#38BDAE"/>
<path d="M42.8594 14.6234C42.5112 15.2368 42.0196 15.7561 41.4216 16.1323C40.758 16.533 39.9879 16.7334 39.2137 16.7088C38.6566 16.7129 38.1036 16.6107 37.5875 16.4062C37.1041 16.2141 36.6617 15.9237 36.2889 15.5598C35.9203 15.1959 35.6294 14.7584 35.4328 14.2759C35.2239 13.7607 35.1215 13.2086 35.1256 12.6525C35.1256 12.1169 35.2239 11.5853 35.4246 11.0905C35.8097 10.1214 36.5634 9.34045 37.5219 8.92337C38.0299 8.70256 38.5788 8.59216 39.1318 8.60034C39.697 8.59216 40.2582 8.69439 40.7826 8.90292C41.2413 9.09102 41.6551 9.37725 41.991 9.74117C42.3228 10.1092 42.5726 10.5385 42.7283 11.0088C42.9003 11.5199 42.9864 12.0555 42.9782 12.5953V12.7834C42.97 12.8406 42.9618 12.8979 42.9618 12.9551C42.9495 13.0124 42.9454 13.0696 42.9454 13.1269H37.1451C37.1778 13.409 37.2639 13.6789 37.4031 13.9283C37.5301 14.145 37.694 14.3331 37.8906 14.4885C38.079 14.6357 38.2961 14.7461 38.5255 14.8115C38.7549 14.877 38.9925 14.9138 39.2301 14.9138C39.6438 14.9301 40.0534 14.8197 40.4016 14.5948C40.7047 14.3904 40.9546 14.1164 41.1307 13.7934L42.843 14.6316L42.8594 14.6234ZM40.9874 11.6712C40.971 11.5158 40.9259 11.3604 40.8522 11.2214C40.7662 11.0456 40.6474 10.8902 40.5081 10.7552C40.3443 10.604 40.1517 10.4813 39.9428 10.3995C39.6848 10.3014 39.4103 10.2523 39.1318 10.2605C38.7139 10.2523 38.3043 10.3831 37.9684 10.6326C37.6243 10.8943 37.3786 11.2582 37.2639 11.6753H40.9874V11.6712Z" fill="#38BDAE"/>
<path d="M44.3052 16.4594V5.32913H46.3656V16.4635H44.3052V16.4594Z" fill="#38BDAE"/>
<path d="M48.123 16.4594V5.32913H50.1835V16.4635H48.123V16.4594Z" fill="#38BDAE"/>
<path d="M59.1585 14.6234C58.8103 15.2368 58.3147 15.7561 57.7207 16.1323C57.0571 16.533 56.287 16.7334 55.5128 16.7088C54.9557 16.7129 54.4027 16.6107 53.8866 16.4062C53.4033 16.2141 52.9609 15.9237 52.5881 15.5598C52.2194 15.1959 51.9286 14.7584 51.732 14.2759C51.5231 13.7607 51.4166 13.2086 51.4248 12.6525C51.4248 12.1169 51.5231 11.5853 51.7238 11.0905C52.1088 10.1214 52.8625 9.34045 53.8211 8.92337C54.329 8.70256 54.8779 8.59216 55.4309 8.60034C55.9962 8.59216 56.5574 8.69439 57.0817 8.90292C57.5405 9.09102 57.9542 9.37725 58.2901 9.74117C58.6219 10.1092 58.8718 10.5385 59.0274 11.0088C59.1995 11.5199 59.2855 12.0555 59.2773 12.5953V12.7834C59.2691 12.8406 59.2609 12.8979 59.2609 12.9551C59.2486 13.0124 59.2445 13.0696 59.2445 13.1269H53.4442C53.477 13.409 53.563 13.6789 53.7023 13.9283C53.8293 14.145 53.9931 14.3331 54.1897 14.4885C54.3782 14.6357 54.5953 14.7461 54.8247 14.8115C55.0541 14.877 55.2916 14.9138 55.5292 14.9138C55.9429 14.9301 56.3526 14.8197 56.7008 14.5948C57.0039 14.3904 57.2538 14.1164 57.4299 13.7934L59.1462 14.6316L59.1585 14.6234ZM57.2865 11.6712C57.2701 11.5158 57.2251 11.3604 57.1513 11.2214C57.0653 11.0456 56.9465 10.8902 56.8032 10.7552C56.6393 10.604 56.4468 10.4813 56.2379 10.3995C55.9798 10.3014 55.7054 10.2523 55.4309 10.2605C55.0131 10.2523 54.6035 10.3831 54.2676 10.6326C53.9235 10.8943 53.6777 11.2582 53.563 11.6753H57.2865V11.6712Z" fill="#38BDAE"/>
<path d="M62.5377 9.83519H62.6647C62.9064 9.45083 63.2423 9.14006 63.6396 8.92335C64.0697 8.69436 64.5531 8.57987 65.0406 8.58805C65.4748 8.57987 65.909 8.65756 66.3145 8.82112C66.6668 8.96424 66.974 9.19322 67.2198 9.48354C67.4656 9.78613 67.6458 10.1337 67.7523 10.5099C67.8752 10.9433 67.9366 11.389 67.9325 11.8388V16.4553H65.8721V12.0882C65.909 11.6507 65.7779 11.2132 65.5034 10.8656C65.2167 10.5876 64.8276 10.4404 64.4261 10.469C64.1681 10.4649 63.91 10.5262 63.6806 10.6489C63.4635 10.7675 63.2792 10.931 63.1317 11.1314C62.9719 11.3481 62.8572 11.5894 62.7876 11.847C62.7057 12.1332 62.6688 12.4276 62.6688 12.7261V16.4594H60.6084V8.84157H62.5418V9.83519H62.5377Z" fill="#38BDAE"/>
<path d="M70.7713 7.81524C70.5952 7.81524 70.4231 7.78253 70.2593 7.71301C70.0995 7.64759 69.9561 7.55354 69.8332 7.43496C69.7145 7.31638 69.6161 7.17736 69.5506 7.02197C69.4154 6.69076 69.4154 6.32275 69.5506 5.99154C69.8496 5.31686 70.6443 5.01427 71.3202 5.31277C71.4677 5.37819 71.5987 5.46815 71.7134 5.57856C72.2255 6.07332 72.2378 6.88704 71.7421 7.39816C71.7339 7.40634 71.7216 7.41861 71.7134 7.42678C71.4636 7.67621 71.1236 7.81524 70.7713 7.81115V7.81524ZM69.7513 16.4594V8.84158H71.8117V16.4594H69.7513Z" fill="#38BDAE"/>
<path d="M80.9259 14.5171C80.5982 15.1509 80.1148 15.6948 79.5209 16.0955C78.8491 16.5248 78.0626 16.7374 77.2638 16.7088C76.7026 16.717 76.1455 16.6107 75.6212 16.4062C75.1378 16.2141 74.6995 15.9278 74.3309 15.5598C73.9663 15.1918 73.6796 14.7543 73.483 14.2759C73.274 13.7607 73.1675 13.2086 73.1757 12.6525C73.1716 12.0923 73.274 11.5403 73.483 11.021C73.6755 10.5385 73.9663 10.1051 74.3309 9.73708C74.6995 9.37315 75.1378 9.09101 75.6212 8.89883C76.1455 8.69438 76.7026 8.58806 77.2638 8.59624C78.0585 8.56762 78.8409 8.78025 79.5127 9.20142C80.1025 9.58578 80.5654 10.1296 80.8481 10.7716L78.9638 11.5485C78.8122 11.2255 78.5746 10.9474 78.2797 10.7471C77.9643 10.5549 77.6038 10.4608 77.2351 10.4772C76.9689 10.4772 76.7067 10.5303 76.465 10.6326C75.9694 10.8411 75.5843 11.2459 75.3959 11.753C75.187 12.3377 75.187 12.9756 75.3959 13.5562C75.4901 13.8097 75.6417 14.0428 75.8301 14.2391C76.0104 14.4231 76.2275 14.5703 76.465 14.6725C76.7067 14.7747 76.9689 14.8279 77.2351 14.8279C77.6202 14.8402 78.0011 14.742 78.3288 14.5417C78.6402 14.3372 78.8859 14.0469 79.0457 13.7116L80.93 14.5212L80.9259 14.5171Z" fill="#38BDAE"/>
<path d="M0 11C0 16.7967 4.71833 21.5 10.5428 21.5H11.1958C17.0162 21.5 21.7386 16.8008 21.7386 11C21.7386 5.19919 17.0162 0.5 11.1958 0.5H10.5428C4.71833 0.5 0 5.19919 0 11ZM7.52647 15.8821C7.52647 16.1504 7.30606 16.3659 7.03667 16.3618H5.81219C5.54281 16.3618 5.32648 16.1463 5.3224 15.8821V6.11789C5.3224 5.84959 5.54281 5.63415 5.81219 5.63821H7.03667C7.30606 5.63821 7.52238 5.85366 7.52647 6.11789V15.878V15.8821ZM16.4162 15.8821C16.4162 16.0772 16.2978 16.252 16.1182 16.3293C16.057 16.3537 15.9917 16.3659 15.9264 16.3659H14.7019C14.4325 16.3659 14.2162 16.1504 14.2121 15.8862V12.7154C14.2121 12.3699 13.9305 12.0935 13.5836 12.0935H10.3101C10.0407 12.0935 9.82441 11.878 9.82032 11.6138V10.4024C9.82032 10.1341 10.0407 9.9187 10.3101 9.92276H13.6162C13.9468 9.92276 14.2162 9.65854 14.2203 9.32927V6.13008C14.2203 6 14.2733 5.87805 14.3631 5.78862C14.457 5.69919 14.5795 5.64634 14.7101 5.64634H15.9346C15.9999 5.64634 16.0652 5.65854 16.1264 5.68293C16.306 5.7561 16.4243 5.93496 16.4243 6.13008V15.8902L16.4162 15.8821Z" fill="#38BDAE"/>
</svg>
