<svg width="148" height="148" viewBox="0 0 148 148" fill="none" xmlns="http://www.w3.org/2000/svg">
<path d="M73.9127 85.5136C80.3197 85.5136 85.5136 80.3197 85.5136 73.9127C85.5136 67.5058 80.3197 62.3119 73.9127 62.3119C67.5058 62.3119 62.3119 67.5058 62.3119 73.9127C62.3119 80.3197 67.5058 85.5136 73.9127 85.5136Z" fill="#F43B56"/>
<path d="M147.829 73.9073C147.815 64.2451 144.229 54.9291 137.761 47.7511C131.293 40.573 122.4 36.0398 112.791 35.0232C111.784 25.412 107.254 16.5142 100.073 10.0466C92.8926 3.57905 83.5712 0 73.9073 0C64.2435 0 54.922 3.57905 47.7415 10.0466C40.5609 16.5142 36.0301 25.412 35.0232 35.0232C25.412 36.0301 16.5142 40.5609 10.0466 47.7415C3.57906 54.922 0 64.2435 0 73.9073C0 83.5712 3.57906 92.8926 10.0466 100.073C16.5142 107.254 25.412 111.784 35.0232 112.791C36.0301 122.403 40.5609 131.3 47.7415 137.768C54.922 144.236 64.2435 147.815 73.9073 147.815C83.5712 147.815 92.8926 144.236 100.073 137.768C107.254 131.3 111.784 122.403 112.791 112.791C122.401 111.777 131.296 107.245 137.764 100.066C144.233 92.8875 147.817 83.5702 147.829 73.9073ZM73.9073 8.53116C82.0089 8.53982 89.7762 11.762 95.505 17.4907C101.234 23.2195 104.456 30.9868 104.465 39.0884C104.494 50.7343 100.595 62.0499 93.3985 71.2063C93.0342 68.5687 92.1375 66.0328 90.7629 63.7525V63.7197C85.768 55.525 78.8866 48.643 70.6922 43.6474C62.4979 38.6518 53.2281 35.6874 43.6556 35.0014C44.6508 27.6796 48.2624 20.9655 53.8233 16.0998C59.3841 11.234 66.5182 8.54556 73.9073 8.53116ZM71.2281 84.7224C68.7224 84.1041 66.5087 82.636 64.9642 80.5683C63.4197 78.5006 62.6401 75.9613 62.7583 73.3831C62.8764 70.805 63.885 68.3476 65.6122 66.4298C67.3393 64.5121 69.678 63.2526 72.2298 62.8661C74.7815 62.4797 77.3883 62.9901 79.6059 64.3104C81.8234 65.6307 83.5145 67.6792 84.3908 70.1068C85.2671 72.5343 85.2744 75.1906 84.4115 77.6229C83.5486 80.0552 81.8689 82.113 79.6586 83.4455C78.4074 84.2048 77.0182 84.7085 75.5711 84.9277C74.1241 85.1468 72.648 85.077 71.2281 84.7224ZM8.53115 73.9073C8.53981 65.8057 11.762 58.0384 17.4907 52.3096C23.2195 46.5809 30.9868 43.3587 39.0884 43.3501C50.7361 43.3206 62.0534 47.2193 71.2117 54.4161C68.5723 54.7797 66.0344 55.6764 63.7525 57.0517H63.7197C55.5246 62.0475 48.6423 68.9299 43.6468 77.1251C38.6512 85.3204 35.687 94.5911 35.0014 104.164C27.6792 103.168 20.965 99.5553 16.0993 93.9936C11.2337 88.4318 8.54538 81.297 8.53115 73.9073ZM73.9073 139.289C65.8057 139.28 58.0384 136.058 52.3096 130.329C46.5809 124.601 43.3587 116.833 43.3501 108.732C43.3224 97.0885 47.2189 85.7758 54.4107 76.6193C54.7759 79.2557 55.6745 81.79 57.0517 84.0676V84.1003C62.0482 92.2953 68.9306 99.1777 77.1257 104.174C85.3207 109.17 94.5911 112.136 104.164 112.824C103.167 120.145 99.5536 126.858 93.992 131.723C88.4303 136.587 81.2962 139.275 73.9073 139.289ZM108.737 104.465C97.0979 104.494 85.7885 100.6 76.6356 93.4094C79.2681 93.0389 81.7982 92.1386 84.073 90.7629H84.1058C92.3014 85.7671 99.1842 78.8848 104.181 70.6896C109.177 62.4945 112.142 53.2238 112.83 43.6502C120.473 44.7284 127.424 48.6591 132.288 54.6526C137.152 60.6461 139.568 68.2582 139.049 75.9595C138.531 83.6608 135.118 90.8807 129.495 96.1684C123.872 101.456 116.456 104.42 108.737 104.465Z" fill="black"/>
</svg>
