<svg width="259" height="261" viewBox="0 0 259 261" fill="none" xmlns="http://www.w3.org/2000/svg">
<g clip-path="url(#clip0_29_27343)">
<path d="M0.00537109 239.984H12.2228V243.405H7.97209V255.732H4.21791V243.405H0.00537109V239.984Z" fill="black"/>
<path d="M11.5408 247.699C12.0498 246.889 12.7732 246.236 13.6307 245.811C14.5551 245.35 15.577 245.118 16.61 245.135C17.6392 245.116 18.657 245.352 19.573 245.822C20.4159 246.257 21.1279 246.909 21.6356 247.71C22.1358 248.573 22.3992 249.553 22.3992 250.55C22.3992 251.548 22.1358 252.528 21.6356 253.391C21.1328 254.197 20.4197 254.852 19.573 255.284C18.6429 255.726 17.6261 255.955 16.5964 255.955C15.5666 255.955 14.5498 255.726 13.6198 255.284C12.744 254.851 12.011 254.175 11.508 253.337C11.005 252.5 10.7531 251.535 10.7823 250.559C10.7573 249.553 11.0205 248.561 11.5408 247.699ZM14.5474 251.917C14.7422 252.297 15.0413 252.613 15.4095 252.829C15.7707 253.036 16.1799 253.145 16.5964 253.145C17.0128 253.145 17.422 253.036 17.7832 252.829C18.1439 252.615 18.4356 252.303 18.6235 251.928C18.8391 251.497 18.9442 251.019 18.9291 250.537C18.9405 250.067 18.8356 249.602 18.6235 249.183C18.4304 248.81 18.1401 248.495 17.7832 248.272C17.4305 248.056 17.0237 247.944 16.61 247.95C16.1877 247.944 15.7718 248.055 15.4095 248.272C15.0479 248.491 14.7505 248.802 14.5474 249.173C14.3381 249.597 14.2292 250.064 14.2292 250.537C14.2292 251.01 14.3381 251.477 14.5474 251.901V251.917Z" fill="black"/>
<path d="M39.899 255.731H36.5158V249.434C36.5249 249.081 36.4845 248.729 36.3958 248.387C36.3422 248.136 36.2104 247.909 36.0193 247.737C35.8025 247.586 35.5413 247.511 35.2772 247.525C34.9965 247.521 34.7211 247.601 34.486 247.754C34.2407 247.903 34.0496 248.127 33.9403 248.392C33.8157 248.72 33.7564 249.068 33.7657 249.418V255.715H30.3989V249.434C30.4089 249.08 30.3628 248.727 30.2625 248.387C30.1939 248.139 30.0511 247.918 29.8533 247.754C29.6389 247.602 29.3792 247.527 29.1166 247.541C28.8398 247.536 28.5674 247.61 28.3309 247.754C28.0879 247.908 27.8976 248.133 27.7852 248.398C27.652 248.727 27.5888 249.08 27.5997 249.434V255.731H24.3257V245.364H27.5997V246.892C27.7791 246.53 28.0211 246.203 28.3145 245.926C28.5951 245.663 28.9253 245.459 29.2858 245.326C29.686 245.18 30.1094 245.107 30.5353 245.113C31.0026 245.105 31.4683 245.169 31.9159 245.304C32.2741 245.409 32.6029 245.595 32.8763 245.849C33.1244 246.121 33.3106 246.443 33.4219 246.793C33.7675 246.256 34.2458 245.816 34.8106 245.517C35.3755 245.218 36.0078 245.069 36.6468 245.086C37.3099 245.05 37.9687 245.211 38.5403 245.549C39.0174 245.872 39.3713 246.347 39.5443 246.897C39.7657 247.584 39.8709 248.303 39.8553 249.025L39.899 255.731Z" fill="black"/>
<path d="M42.671 247.699C43.1781 246.889 43.8996 246.236 44.7554 245.811C45.6816 245.349 46.7054 245.117 47.7402 245.135C48.7677 245.117 49.7836 245.353 50.6977 245.822C51.5435 246.255 52.2576 246.907 52.7658 247.71C53.1602 248.335 53.4202 249.034 53.5294 249.765C53.6386 250.495 53.5945 251.24 53.4 251.953C53.2055 252.665 52.8647 253.329 52.3995 253.903C51.9343 254.476 51.3547 254.947 50.6977 255.284C49.7677 255.726 48.7509 255.955 47.7211 255.955C46.6914 255.955 45.6746 255.726 44.7445 255.284C43.8709 254.848 43.1398 254.172 42.6371 253.335C42.1345 252.498 41.8812 251.535 41.9071 250.559C41.884 249.552 42.1491 248.56 42.671 247.699ZM45.6722 251.917C45.867 252.297 46.1661 252.613 46.5343 252.829C46.8927 253.04 47.3022 253.149 47.7184 253.145C48.1367 253.152 48.5487 253.043 48.908 252.829C49.2687 252.615 49.5604 252.303 49.7483 251.928C49.9658 251.497 50.0727 251.019 50.0593 250.537C50.0689 250.067 49.962 249.602 49.7483 249.183C49.5552 248.81 49.2649 248.495 48.908 248.272C48.5569 248.057 48.1521 247.945 47.7402 247.95C47.3161 247.943 46.8985 248.055 46.5343 248.272C46.1727 248.491 45.8753 248.802 45.6722 249.173C45.4664 249.598 45.3595 250.064 45.3595 250.537C45.3595 251.009 45.4664 251.476 45.6722 251.901V251.917Z" fill="black"/>
<path d="M58.8063 255.731H55.4941V245.364H58.8063V255.731ZM61.18 248.485C60.9505 248.375 60.6976 248.323 60.4433 248.332C60.1432 248.327 59.8492 248.417 59.603 248.589C59.3346 248.782 59.131 249.052 59.0191 249.364C58.8674 249.766 58.7952 250.194 58.8063 250.624L58.0097 249.434C58.0002 248.679 58.1664 247.932 58.4953 247.252C58.7849 246.649 59.2131 246.124 59.7449 245.718C60.2171 245.364 60.7915 245.173 61.3819 245.173C61.7603 245.169 62.1343 245.255 62.4732 245.424C62.7731 245.551 63.0359 245.752 63.2371 246.008L61.7802 248.954C61.6059 248.767 61.4034 248.609 61.18 248.485Z" fill="black"/>
<path d="M67.9079 255.731H64.5957V245.364H67.9079V255.731ZM70.2815 248.485C70.052 248.375 69.7992 248.323 69.5449 248.332C69.2448 248.327 68.9508 248.417 68.7046 248.589C68.4361 248.782 68.2326 249.052 68.1207 249.364C67.969 249.766 67.8967 250.194 67.9079 250.624L67.1221 249.434C67.1126 248.679 67.2789 247.932 67.6078 247.252C67.8974 246.649 68.3256 246.124 68.8573 245.718C69.3296 245.364 69.904 245.173 70.4943 245.173C70.8728 245.169 71.2468 245.255 71.5857 245.424C71.8856 245.551 72.1484 245.752 72.3496 246.008L70.8927 248.954C70.7151 248.766 70.5088 248.608 70.2815 248.485Z" fill="black"/>
<path d="M73.5501 247.699C74.0606 246.89 74.7835 246.237 75.6399 245.811C76.5661 245.349 77.5899 245.117 78.6247 245.135C79.6522 245.117 80.6681 245.353 81.5822 245.822C82.4269 246.257 83.1407 246.908 83.6503 247.71C84.0447 248.335 84.3047 249.034 84.4139 249.765C84.5231 250.495 84.479 251.24 84.2845 251.953C84.09 252.665 83.7492 253.329 83.284 253.903C82.8188 254.476 82.2392 254.947 81.5822 255.284C80.6522 255.726 79.6354 255.955 78.6056 255.955C77.5759 255.955 76.5591 255.726 75.629 255.284C74.9841 254.933 74.4167 254.455 73.9607 253.88C73.5048 253.304 73.1697 252.642 72.9756 251.934C72.7815 251.226 72.7323 250.486 72.831 249.758C72.9297 249.03 73.1743 248.33 73.5501 247.699ZM76.5567 251.917C76.7515 252.297 77.0506 252.613 77.4188 252.829C77.78 253.036 78.1892 253.145 78.6056 253.145C79.0221 253.145 79.4313 253.036 79.7925 252.829C80.1532 252.615 80.4449 252.303 80.6328 251.928C80.8503 251.497 80.9572 251.019 80.9438 250.537C80.9534 250.067 80.8465 249.602 80.6328 249.183C80.4397 248.81 80.1494 248.495 79.7925 248.272C79.4414 248.057 79.0366 247.945 78.6247 247.95C78.2006 247.943 77.783 248.055 77.4188 248.272C77.0572 248.491 76.7598 248.802 76.5567 249.173C76.3473 249.597 76.2384 250.064 76.2384 250.537C76.2384 251.01 76.3473 251.477 76.5567 251.901V251.917Z" fill="black"/>
<path d="M88.0976 245.386L90.242 250.668L93.1341 244.594L96.1189 250.695L98.2633 245.386H101.75L96.4954 256.386L93.1341 250.242L89.8601 256.386L84.5835 245.386H88.0976Z" fill="black"/>
<path d="M108.304 239.984L106.028 245.719H103.644L104.855 239.984H108.304Z" fill="black"/>
<path d="M109.013 252.998C109.363 253.223 109.739 253.406 110.132 253.543C110.401 253.633 110.682 253.682 110.966 253.691C111.237 253.712 111.505 253.632 111.719 253.467C111.802 253.389 111.866 253.294 111.909 253.188C111.951 253.083 111.97 252.969 111.965 252.856C111.964 252.656 111.893 252.462 111.763 252.31C111.577 252.116 111.352 251.963 111.103 251.863C110.679 251.679 110.243 251.524 109.799 251.399C109.332 251.214 108.878 250.997 108.44 250.75C108.002 250.502 107.628 250.154 107.349 249.735C107.05 249.243 106.906 248.672 106.934 248.098C106.915 247.526 107.09 246.964 107.431 246.504C107.78 246.051 108.251 245.706 108.789 245.511C109.41 245.278 110.069 245.163 110.732 245.173C111.295 245.17 111.856 245.238 112.402 245.375C112.897 245.509 113.377 245.692 113.837 245.92C114.276 246.143 114.693 246.408 115.081 246.712L113.891 248.938C113.474 248.521 112.988 248.178 112.456 247.923C111.983 247.677 111.461 247.539 110.928 247.519C110.695 247.507 110.463 247.57 110.268 247.699C110.19 247.751 110.126 247.821 110.083 247.905C110.04 247.988 110.019 248.08 110.022 248.174C110.024 248.28 110.05 248.384 110.099 248.479C110.147 248.574 110.216 248.656 110.301 248.72C110.542 248.9 110.811 249.04 111.097 249.134C111.441 249.26 111.867 249.424 112.363 249.62C112.874 249.798 113.367 250.022 113.837 250.291C114.255 250.535 114.617 250.866 114.895 251.262C115.189 251.724 115.332 252.266 115.304 252.812C115.326 253.457 115.17 254.095 114.852 254.656C114.545 255.159 114.089 255.552 113.547 255.781C112.893 256.053 112.188 256.183 111.479 256.163C110.791 256.17 110.104 256.084 109.439 255.906C108.835 255.743 108.252 255.508 107.703 255.208C107.184 254.924 106.69 254.597 106.225 254.231L107.616 251.983C108.053 252.359 108.52 252.698 109.013 252.998Z" fill="black"/>
<path d="M128.084 239.984V255.731H124.373V239.984H128.084ZM126.692 239.984H129.721C130.86 239.948 131.993 240.159 133.044 240.6C133.883 240.971 134.586 241.592 135.057 242.379C135.498 243.231 135.727 244.176 135.727 245.135C135.727 246.094 135.498 247.038 135.057 247.89C134.587 248.68 133.884 249.305 133.044 249.68C131.996 250.131 130.861 250.345 129.721 250.308H126.692V247.137H129.721C130.166 247.146 130.608 247.07 131.025 246.914C131.366 246.782 131.657 246.545 131.854 246.237C132.03 245.9 132.121 245.526 132.121 245.146C132.121 244.766 132.03 244.391 131.854 244.054C131.656 243.744 131.366 243.504 131.025 243.367C130.61 243.204 130.167 243.124 129.721 243.132H126.692V239.984Z" fill="black"/>
<path d="M139.112 255.295C138.275 254.877 137.581 254.223 137.115 253.412C136.625 252.542 136.38 251.556 136.405 250.559C136.394 249.786 136.526 249.019 136.793 248.294C137.036 247.648 137.427 247.067 137.933 246.597C138.453 246.112 139.068 245.74 139.739 245.506C140.51 245.249 141.318 245.124 142.129 245.135C143.158 245.102 144.179 245.315 145.109 245.757C145.897 246.145 146.545 246.769 146.964 247.541C147.416 248.417 147.638 249.393 147.608 250.378V250.848C147.608 251.001 147.608 251.137 147.608 251.257H138.332V249.374H144.607L143.81 250.411C143.885 250.28 143.945 250.141 143.99 249.997C144.03 249.877 144.052 249.752 144.056 249.625C144.066 249.219 143.99 248.816 143.832 248.441C143.691 248.127 143.457 247.864 143.161 247.688C142.85 247.507 142.495 247.414 142.135 247.421C141.788 247.412 141.444 247.477 141.125 247.612C140.841 247.737 140.595 247.935 140.41 248.185C140.204 248.471 140.057 248.796 139.979 249.14C139.876 249.587 139.828 250.045 139.838 250.504C139.809 251.049 139.891 251.595 140.078 252.108C140.236 252.525 140.518 252.883 140.885 253.134C141.27 253.381 141.721 253.507 142.178 253.494C142.706 253.507 143.229 253.391 143.701 253.156C144.13 252.93 144.477 252.575 144.694 252.141L147.701 252.889C147.211 253.848 146.453 254.645 145.518 255.18C144.512 255.716 143.383 255.979 142.244 255.944C141.163 255.985 140.088 255.762 139.112 255.295Z" fill="black"/>
<path d="M150.063 247.699C150.57 246.889 151.292 246.236 152.148 245.811C153.074 245.35 154.098 245.118 155.133 245.135C156.16 245.117 157.176 245.353 158.09 245.822C158.936 246.255 159.65 246.907 160.158 247.71C160.553 248.335 160.813 249.034 160.922 249.765C161.031 250.495 160.987 251.24 160.792 251.953C160.598 252.665 160.257 253.329 159.792 253.903C159.327 254.476 158.747 254.947 158.09 255.284C157.16 255.726 156.143 255.955 155.113 255.955C154.084 255.955 153.067 255.726 152.137 255.284C151.263 254.848 150.532 254.172 150.029 253.335C149.527 252.498 149.274 251.535 149.299 250.559C149.276 249.552 149.541 248.56 150.063 247.699ZM153.064 251.917C153.214 252.193 153.418 252.437 153.663 252.632C153.908 252.828 154.19 252.973 154.492 253.058C154.795 253.143 155.111 253.167 155.422 253.127C155.734 253.088 156.034 252.986 156.306 252.829C156.664 252.614 156.954 252.302 157.141 251.928C157.358 251.497 157.465 251.019 157.452 250.537C157.461 250.067 157.354 249.602 157.141 249.183C156.95 248.81 156.661 248.495 156.306 248.272C155.953 248.056 155.546 247.944 155.133 247.95C154.708 247.943 154.291 248.055 153.927 248.272C153.566 248.493 153.269 248.803 153.064 249.173C152.859 249.598 152.752 250.064 152.752 250.537C152.752 251.009 152.859 251.476 153.064 251.901V251.917Z" fill="black"/>
<path d="M162.766 260.681V245.402H166.106V260.681H162.766ZM173.718 253.62C173.295 254.383 172.673 255.017 171.917 255.453C171.201 255.858 170.393 256.07 169.571 256.07C168.953 256.08 168.341 255.949 167.781 255.688C167.253 255.436 166.793 255.062 166.439 254.596C166.052 254.072 165.766 253.48 165.598 252.85C165.213 251.36 165.213 249.796 165.598 248.305C165.766 247.677 166.052 247.086 166.439 246.564C166.791 246.089 167.251 245.704 167.781 245.44C168.339 245.173 168.952 245.038 169.571 245.047C170.393 245.044 171.203 245.257 171.917 245.664C172.677 246.104 173.3 246.746 173.718 247.519C174.21 248.47 174.449 249.532 174.411 250.602C174.445 251.651 174.207 252.691 173.718 253.62ZM170.548 249.184C170.34 248.825 170.038 248.53 169.674 248.332C169.304 248.134 168.889 248.033 168.469 248.038C168.182 248.039 167.898 248.089 167.628 248.185C167.344 248.287 167.084 248.447 166.864 248.654C166.633 248.885 166.448 249.157 166.319 249.456C166.048 250.159 166.048 250.937 166.319 251.639C166.504 252.063 166.809 252.424 167.197 252.676C167.585 252.928 168.039 253.061 168.501 253.058C168.922 253.062 169.336 252.961 169.707 252.763C170.071 252.563 170.373 252.267 170.58 251.906C170.81 251.487 170.923 251.014 170.908 250.537C170.907 250.062 170.783 249.596 170.548 249.184Z" fill="black"/>
<path d="M179.72 238.183V255.731H176.337V238.183H179.72Z" fill="black"/>
<path d="M184.44 255.295C183.604 254.876 182.907 254.222 182.438 253.412C181.952 252.541 181.709 251.556 181.734 250.559C181.723 249.786 181.854 249.019 182.121 248.294C182.363 247.648 182.751 247.067 183.256 246.597C183.779 246.113 184.396 245.742 185.068 245.506C185.838 245.249 186.646 245.124 187.458 245.135C188.486 245.103 189.507 245.316 190.437 245.757C191.224 246.147 191.872 246.77 192.292 247.541C192.742 248.418 192.964 249.394 192.936 250.379V250.848C192.936 251.001 192.936 251.137 192.936 251.257H183.66V249.374H189.897L189.1 250.411C189.173 250.279 189.233 250.14 189.28 249.997C189.32 249.877 189.342 249.752 189.346 249.625C189.356 249.219 189.28 248.816 189.122 248.441C188.982 248.127 188.747 247.864 188.451 247.688C188.138 247.506 187.781 247.414 187.42 247.421C187.075 247.412 186.733 247.477 186.416 247.612C186.131 247.737 185.885 247.935 185.701 248.185C185.492 248.47 185.345 248.795 185.27 249.14C185.164 249.587 185.114 250.045 185.122 250.504C185.098 251.05 185.182 251.595 185.368 252.108C185.524 252.526 185.806 252.884 186.175 253.134C186.56 253.381 187.011 253.507 187.469 253.494C187.996 253.506 188.518 253.39 188.991 253.156C189.42 252.93 189.767 252.575 189.984 252.141L192.991 252.889C192.5 253.847 191.742 254.643 190.808 255.18C189.802 255.716 188.673 255.979 187.534 255.944C186.466 255.979 185.405 255.756 184.44 255.295Z" fill="black"/>
<path d="M93.2214 166.106C86.3242 162.455 78.1502 161.91 73.894 161.91H73.703C66.6476 162.008 58.8227 164.84 53.1205 169.336C47.582 164.289 39.9372 162.636 34.4424 162.144C32.8745 161.978 31.299 161.894 29.7224 161.893C22.0831 161.893 14.0345 163.776 5.16745 167.645C4.37624 167.994 0 170.018 0 170.018V229.496H15.7643V181.166C15.7643 180.561 15.7643 180.561 16.37 180.299L16.6155 180.195C20.8708 178.456 25.4203 177.551 30.017 177.527C33.9186 177.527 39.2933 178.242 42.7856 181.652C44.4608 183.289 44.6954 185.99 44.7227 187.878L44.8373 229.474H60.3724L60.487 180.462C61.6602 179.993 62.8988 179.551 64.1866 179.147C67.5864 178.085 71.1288 177.55 74.6907 177.559C78.5103 177.559 87.6066 178.28 89.2381 184.926C89.4341 185.897 89.5473 186.883 89.5764 187.873V229.474H105.341V187.883C105.526 178.198 100.986 170.057 93.2214 166.106Z" fill="black"/>
<path d="M192.969 163.541H177.205V229.474H192.969V163.541Z" fill="black"/>
<path d="M157.779 213.29C155.296 214.73 151.908 215.472 147.717 215.472C135.636 215.892 128.4 207.135 128.346 196.581C128.482 185.597 135.931 177.134 147.717 177.576C152.213 177.576 155.504 178.329 158.27 180.026L169.336 167.732C159.438 161.157 145.491 160.595 134.332 163.809C119.937 168.016 112.865 181.466 113.176 196.581C112.843 218.452 126.42 231.504 147.717 231.237C155.52 231.177 163.034 229.692 169.402 225.393L158.248 213.006L157.779 213.29Z" fill="black"/>
<path d="M185.084 85.5221C191.491 85.5221 196.685 80.3282 196.685 73.9213C196.685 67.5143 191.491 62.3204 185.084 62.3204C178.677 62.3204 173.483 67.5143 173.483 73.9213C173.483 80.3282 178.677 85.5221 185.084 85.5221Z" fill="#F43B56"/>
<path d="M259 73.9158C258.986 64.2536 255.401 54.9376 248.933 47.7596C242.465 40.5815 233.571 36.0483 223.963 35.0317C222.956 25.4205 218.425 16.5227 211.245 10.0551C204.064 3.58753 194.743 0.00848389 185.079 0.00848389C175.415 0.00848389 166.093 3.58753 158.913 10.0551C151.732 16.5227 147.202 25.4205 146.195 35.0317C136.583 36.0386 127.686 40.5694 121.218 47.75C114.75 54.9305 111.171 64.252 111.171 73.9158C111.171 83.5796 114.75 92.9011 121.218 100.082C127.686 107.262 136.583 111.793 146.195 112.8C147.202 122.411 151.732 131.309 158.913 137.776C166.093 144.244 175.415 147.823 185.079 147.823C194.743 147.823 204.064 144.244 211.245 137.776C218.425 131.309 222.956 122.411 223.963 112.8C233.572 111.786 242.467 107.253 248.936 100.075C255.404 92.896 258.989 83.5787 259 73.9158ZM185.079 8.53964C193.18 8.54831 200.948 11.7705 206.676 17.4992C212.405 23.2279 215.627 30.9953 215.636 39.0969C215.665 50.7428 211.766 62.0583 204.57 71.2148C204.206 68.5772 203.309 66.0413 201.934 63.761V63.7282C196.939 55.5335 190.058 48.6514 181.864 43.6559C173.669 38.6603 164.399 35.6959 154.827 35.0099C155.822 27.6881 159.434 20.974 164.995 16.1083C170.556 11.2425 177.69 8.55404 185.079 8.53964ZM182.399 84.7309C179.894 84.1126 177.68 82.6445 176.136 80.5768C174.591 78.5091 173.812 75.9698 173.93 73.3916C174.048 70.8135 175.056 68.3561 176.784 66.4383C178.511 64.5206 180.849 63.2611 183.401 62.8746C185.953 62.4881 188.56 62.9986 190.777 64.3189C192.995 65.6392 194.686 67.6877 195.562 70.1152C196.438 72.5428 196.446 75.1991 195.583 77.6314C194.72 80.0637 193.04 82.1215 190.83 83.454C189.579 84.2132 188.19 84.717 186.743 84.9361C185.295 85.1553 183.819 85.0855 182.399 84.7309ZM119.703 73.9158C119.711 65.8142 122.933 58.0468 128.662 52.3181C134.391 46.5894 142.158 43.3672 150.26 43.3585C161.907 43.3291 173.225 47.2278 182.383 54.4246C179.744 54.7882 177.206 55.6849 174.924 57.0602H174.891C166.696 62.0559 159.814 68.9383 154.818 77.1336C149.823 85.3289 146.858 94.5996 146.173 104.173C138.851 103.177 132.136 99.5638 127.271 94.002C122.405 88.4403 119.717 81.3055 119.703 73.9158ZM185.079 139.297C176.977 139.289 169.21 136.067 163.481 130.338C157.752 124.609 154.53 116.842 154.521 108.74C154.494 97.097 158.39 85.7842 165.582 76.6278C165.947 79.2642 166.846 81.7985 168.223 84.0761V84.1088C173.22 92.3038 180.102 99.1862 188.297 104.183C196.492 109.179 205.762 112.145 215.336 112.833C214.338 120.154 210.725 126.867 205.163 131.731C199.602 136.596 192.468 139.283 185.079 139.297ZM219.909 104.473C208.269 104.503 196.96 100.608 187.807 93.4179C190.44 93.0473 192.97 92.1471 195.244 90.7714H195.277C203.473 85.7756 210.356 78.8933 215.352 70.6981C220.349 62.5029 223.314 53.2322 224.001 43.6587C231.644 44.7369 238.596 48.6676 243.46 54.6611C248.324 60.6546 250.739 68.2667 250.221 75.968C249.702 83.6693 246.289 90.8892 240.666 96.1769C235.043 101.465 227.627 104.429 219.909 104.473Z" fill="black"/>
</g>
<defs>
<clipPath id="clip0_29_27343">
<rect width="259" height="260.681" fill="white"/>
</clipPath>
</defs>
</svg>
