<svg width="25" height="25" viewBox="0 0 25 25" fill="none" xmlns="http://www.w3.org/2000/svg">
<path d="M21.5 21.5L15.5 15.5M17.5 10.5C17.5 11.4193 17.3189 12.3295 16.9672 13.1788C16.6154 14.0281 16.0998 14.7997 15.4497 15.4497C14.7997 16.0998 14.0281 16.6154 13.1788 16.9672C12.3295 17.3189 11.4193 17.5 10.5 17.5C9.58075 17.5 8.6705 17.3189 7.82122 16.9672C6.97194 16.6154 6.20026 16.0998 5.55025 15.4497C4.90024 14.7997 4.38463 14.0281 4.03284 13.1788C3.68106 12.3295 3.5 11.4193 3.5 10.5C3.5 8.64348 4.2375 6.86301 5.55025 5.55025C6.86301 4.2375 8.64348 3.5 10.5 3.5C12.3565 3.5 14.137 4.2375 15.4497 5.55025C16.7625 6.86301 17.5 8.64348 17.5 10.5Z" stroke="black" stroke-width="2" stroke-linecap="round" stroke-linejoin="round"/>
</svg>
