<svg width="541" height="400" viewBox="0 0 541 400" fill="none" xmlns="http://www.w3.org/2000/svg">
<path d="M310.289 155.145C292.025 155.145 274.17 160.561 258.984 170.708C243.797 180.855 231.961 195.278 224.971 212.152C217.981 229.027 216.153 247.595 219.716 265.509C223.279 283.422 232.074 299.877 244.99 312.792C257.905 325.707 274.359 334.503 292.273 338.066C310.187 341.629 328.755 339.8 345.629 332.811C362.504 325.821 376.926 313.985 387.074 298.798C397.221 283.612 402.637 265.757 402.637 247.492C402.637 235.365 400.249 223.357 395.608 212.152C390.967 200.948 384.164 190.768 375.589 182.193C367.014 173.617 356.833 166.815 345.629 162.174C334.425 157.533 322.417 155.145 310.289 155.145ZM310.289 190.253C321.644 190.229 332.75 193.576 342.201 199.87C351.652 206.163 359.022 215.12 363.379 225.606C367.735 236.092 368.881 247.635 366.671 258.773C364.462 269.91 358.997 280.142 350.968 288.171C342.939 296.2 332.707 301.665 321.57 303.874C310.432 306.084 298.889 304.938 288.403 300.582C277.917 296.225 268.96 288.855 262.667 279.404C256.373 269.953 253.026 258.847 253.05 247.492C253.081 232.321 259.122 217.781 269.85 207.053C280.577 196.325 295.118 190.285 310.289 190.253Z" fill="#EF3E59"/>
<path d="M0.000244141 383.96C0.000244141 381.372 0.767785 378.842 2.2058 376.69C3.64382 374.538 5.68774 372.86 8.07908 371.87C10.4704 370.879 13.1018 370.62 15.6404 371.125C18.179 371.63 20.5109 372.876 22.3412 374.707C24.1714 376.537 25.4178 378.869 25.9228 381.407C26.4278 383.946 26.1686 386.577 25.1781 388.969C24.1876 391.36 22.5102 393.404 20.358 394.842C18.2059 396.28 15.6756 397.047 13.0873 397.047C9.61637 397.047 6.28763 395.669 3.83334 393.214C1.37905 390.76 0.000244141 387.431 0.000244141 383.96Z" fill="#EF3E59"/>
<path d="M0 289.603C0 287.015 0.767541 284.485 2.20556 282.332C3.64358 280.18 5.68749 278.503 8.07883 277.512C10.4702 276.522 13.1015 276.263 15.6402 276.768C18.1788 277.273 20.5107 278.519 22.3409 280.349C24.1712 282.179 25.4176 284.511 25.9226 287.05C26.4275 289.589 26.1684 292.22 25.1778 294.611C24.1873 297.003 22.5099 299.047 20.3578 300.485C18.2056 301.923 15.6754 302.69 13.087 302.69C9.61612 302.69 6.28739 301.311 3.8331 298.857C1.37881 296.403 0 293.074 0 289.603Z" fill="#EF3E59"/>
<path d="M0.000244141 336.782C0.000244141 334.193 0.767785 331.663 2.2058 329.511C3.64382 327.359 5.68774 325.682 8.07908 324.691C10.4704 323.7 13.1018 323.441 15.6404 323.946C18.179 324.451 20.5109 325.698 22.3412 327.528C24.1714 329.358 25.4178 331.69 25.9228 334.229C26.4278 336.767 26.1686 339.399 25.1781 341.79C24.1876 344.181 22.5102 346.225 20.358 347.663C18.2059 349.101 15.6756 349.869 13.0873 349.869C9.61637 349.869 6.28763 348.49 3.83334 346.036C1.37905 343.581 0.000244141 340.253 0.000244141 336.782Z" fill="#EF3E59"/>
<path d="M47.1958 383.96C47.1958 381.372 47.9633 378.842 49.4014 376.69C50.8394 374.538 52.8833 372.86 55.2746 371.87C57.666 370.879 60.2973 370.62 62.836 371.125C65.3746 371.63 67.7065 372.876 69.5367 374.707C71.367 376.537 72.6134 378.869 73.1184 381.407C73.6233 383.946 73.3642 386.577 72.3736 388.969C71.3831 391.36 69.7057 393.404 67.5536 394.842C65.4014 396.28 62.8712 397.047 60.2828 397.047C56.8119 397.047 53.4832 395.669 51.0289 393.214C48.5746 390.76 47.1958 387.431 47.1958 383.96Z" fill="#EF3E59"/>
<path d="M47.1958 289.603C47.1958 287.015 47.9633 284.485 49.4014 282.332C50.8394 280.18 52.8833 278.503 55.2746 277.512C57.666 276.522 60.2973 276.263 62.836 276.768C65.3746 277.273 67.7065 278.519 69.5367 280.349C71.367 282.179 72.6134 284.511 73.1184 287.05C73.6233 289.589 73.3642 292.22 72.3736 294.611C71.3831 297.003 69.7057 299.047 67.5536 300.485C65.4014 301.923 62.8712 302.69 60.2828 302.69C56.8119 302.69 53.4832 301.311 51.0289 298.857C48.5746 296.403 47.1958 293.074 47.1958 289.603Z" fill="#EF3E59"/>
<path d="M47.1958 336.782C47.1958 334.193 47.9633 331.663 49.4014 329.511C50.8394 327.359 52.8833 325.682 55.2746 324.691C57.666 323.7 60.2973 323.441 62.836 323.946C65.3746 324.451 67.7065 325.698 69.5367 327.528C71.367 329.358 72.6134 331.69 73.1184 334.229C73.6233 336.767 73.3642 339.399 72.3736 341.79C71.3831 344.181 69.7057 346.225 67.5536 347.663C65.4014 349.101 62.8712 349.869 60.2828 349.869C56.8119 349.869 53.4832 348.49 51.0289 346.036C48.5746 343.581 47.1958 340.253 47.1958 336.782Z" fill="#EF3E59"/>
<path d="M94.3574 383.96C94.3574 381.372 95.125 378.842 96.563 376.69C98.001 374.538 100.045 372.86 102.436 371.87C104.828 370.879 107.459 370.62 109.998 371.125C112.536 371.63 114.868 372.876 116.698 374.707C118.529 376.537 119.775 378.869 120.28 381.407C120.785 383.946 120.526 386.577 119.535 388.969C118.545 391.36 116.867 393.404 114.715 394.842C112.563 396.28 110.033 397.047 107.444 397.047C103.974 397.047 100.645 395.669 98.1905 393.214C95.7362 390.76 94.3574 387.431 94.3574 383.96Z" fill="#EF3E59"/>
<path d="M94.3574 289.603C94.3574 287.015 95.125 284.485 96.563 282.332C98.001 280.18 100.045 278.503 102.436 277.512C104.828 276.522 107.459 276.263 109.998 276.768C112.536 277.273 114.868 278.519 116.698 280.349C118.529 282.179 119.775 284.511 120.28 287.05C120.785 289.589 120.526 292.22 119.535 294.611C118.545 297.003 116.867 299.047 114.715 300.485C112.563 301.923 110.033 302.69 107.444 302.69C103.974 302.69 100.645 301.311 98.1905 298.857C95.7362 296.403 94.3574 293.074 94.3574 289.603Z" fill="#EF3E59"/>
<path d="M94.3574 336.782C94.3574 334.193 95.125 331.663 96.563 329.511C98.001 327.359 100.045 325.682 102.436 324.691C104.828 323.7 107.459 323.441 109.998 323.946C112.536 324.451 114.868 325.698 116.698 327.528C118.529 329.358 119.775 331.69 120.28 334.229C120.785 336.767 120.526 339.399 119.535 341.79C118.545 344.181 116.867 346.225 114.715 347.663C112.563 349.101 110.033 349.869 107.444 349.869C103.974 349.869 100.645 348.49 98.1905 346.036C95.7362 343.581 94.3574 340.253 94.3574 336.782Z" fill="#EF3E59"/>
<path d="M420.469 239.621C420.469 237.032 421.236 234.502 422.674 232.35C424.112 230.198 426.156 228.52 428.548 227.53C430.939 226.539 433.57 226.28 436.109 226.785C438.648 227.29 440.98 228.536 442.81 230.367C444.64 232.197 445.886 234.529 446.391 237.067C446.896 239.606 446.637 242.237 445.647 244.629C444.656 247.02 442.979 249.064 440.827 250.502C438.674 251.94 436.144 252.708 433.556 252.708C430.085 252.708 426.756 251.329 424.302 248.874C421.848 246.42 420.469 243.091 420.469 239.621Z" fill="#EF3E59"/>
<path d="M420.469 145.263C420.469 142.675 421.236 140.145 422.674 137.993C424.112 135.84 426.156 134.163 428.548 133.173C430.939 132.182 433.57 131.923 436.109 132.428C438.648 132.933 440.979 134.179 442.81 136.009C444.64 137.84 445.886 140.172 446.391 142.71C446.896 145.249 446.637 147.88 445.647 150.272C444.656 152.663 442.979 154.707 440.827 156.145C438.674 157.583 436.144 158.35 433.556 158.35C430.085 158.35 426.756 156.972 424.302 154.517C421.848 152.063 420.469 148.734 420.469 145.263Z" fill="white"/>
<path d="M420.469 192.442C420.469 189.854 421.236 187.323 422.674 185.171C424.112 183.019 426.156 181.342 428.548 180.351C430.939 179.361 433.57 179.101 436.109 179.606C438.648 180.111 440.98 181.358 442.81 183.188C444.64 185.018 445.886 187.35 446.391 189.889C446.896 192.427 446.637 195.059 445.647 197.45C444.656 199.841 442.979 201.885 440.827 203.323C438.674 204.761 436.144 205.529 433.556 205.529C430.085 205.529 426.756 204.15 424.302 201.696C421.848 199.242 420.469 195.913 420.469 192.442Z" fill="white"/>
<path d="M467.664 239.621C467.664 237.032 468.431 234.502 469.869 232.35C471.307 230.198 473.351 228.52 475.743 227.53C478.134 226.539 480.765 226.28 483.304 226.785C485.843 227.29 488.175 228.536 490.005 230.367C491.835 232.197 493.081 234.529 493.586 237.067C494.091 239.606 493.832 242.237 492.842 244.629C491.851 247.02 490.174 249.064 488.022 250.502C485.869 251.94 483.339 252.708 480.751 252.708C477.28 252.708 473.951 251.329 471.497 248.874C469.043 246.42 467.664 243.091 467.664 239.621Z" fill="#EF3E59"/>
<path d="M467.664 145.263C467.664 142.675 468.431 140.145 469.869 137.992C471.307 135.84 473.351 134.163 475.743 133.172C478.134 132.182 480.765 131.923 483.304 132.428C485.843 132.933 488.175 134.179 490.005 136.009C491.835 137.84 493.081 140.171 493.586 142.71C494.091 145.249 493.832 147.88 492.842 150.271C491.851 152.663 490.174 154.707 488.022 156.145C485.869 157.583 483.339 158.35 480.751 158.35C477.28 158.35 473.951 156.971 471.497 154.517C469.043 152.063 467.664 148.734 467.664 145.263Z" fill="white"/>
<path d="M467.664 192.442C467.664 189.854 468.431 187.323 469.869 185.171C471.307 183.019 473.351 181.342 475.743 180.351C478.134 179.361 480.765 179.101 483.304 179.606C485.843 180.111 488.175 181.358 490.005 183.188C491.835 185.018 493.081 187.35 493.586 189.889C494.091 192.427 493.832 195.059 492.842 197.45C491.851 199.841 490.174 201.885 488.022 203.323C485.869 204.761 483.339 205.529 480.751 205.529C477.28 205.529 473.951 204.15 471.497 201.696C469.043 199.242 467.664 195.913 467.664 192.442Z" fill="white"/>
<path d="M514.826 239.621C514.826 237.032 515.594 234.502 517.032 232.35C518.47 230.198 520.514 228.52 522.905 227.53C525.297 226.539 527.928 226.28 530.467 226.785C533.005 227.29 535.337 228.536 537.167 230.367C538.998 232.197 540.244 234.529 540.749 237.067C541.254 239.606 540.995 242.237 540.004 244.629C539.014 247.02 537.336 249.064 535.184 250.502C533.032 251.94 530.502 252.708 527.913 252.708C524.443 252.708 521.114 251.329 518.66 248.874C516.205 246.42 514.826 243.091 514.826 239.621Z" fill="#EF3E59"/>
<path d="M514.826 145.263C514.826 142.675 515.594 140.145 517.032 137.992C518.47 135.84 520.514 134.163 522.905 133.172C525.297 132.182 527.928 131.923 530.467 132.428C533.005 132.933 535.337 134.179 537.167 136.009C538.998 137.84 540.244 140.171 540.749 142.71C541.254 145.249 540.995 147.88 540.004 150.271C539.014 152.663 537.336 154.707 535.184 156.145C533.032 157.583 530.502 158.35 527.913 158.35C524.443 158.35 521.114 156.971 518.66 154.517C516.205 152.063 514.826 148.734 514.826 145.263Z" fill="white"/>
<path d="M514.826 192.442C514.826 189.854 515.594 187.323 517.032 185.171C518.47 183.019 520.514 181.342 522.905 180.351C525.297 179.361 527.928 179.101 530.467 179.606C533.005 180.111 535.337 181.358 537.167 183.188C538.998 185.018 540.244 187.35 540.749 189.889C541.254 192.427 540.995 195.059 540.004 197.45C539.014 199.841 537.336 201.885 535.184 203.323C533.032 204.761 530.502 205.529 527.913 205.529C524.443 205.529 521.114 204.15 518.66 201.696C516.205 199.242 514.826 195.913 514.826 192.442Z" fill="white"/>
<path d="M383.153 54.4856C396.77 74.9147 403.316 99.5753 403.316 120.844L362.168 120.844C362.168 99.3336 352.982 78.7198 338.586 64.2889C324.19 49.858 303.359 41.3713 283 41.3288L283 -5.25918e-06C298.221 0.35573 313.326 2.83113 327.537 8.73148C351.099 18.515 370.349 34.3196 383.153 54.4856Z" fill="#38BDAE"/>
<path d="M244.154 332.585C257.771 353.014 264.317 377.674 264.317 398.943L223.169 398.943C223.169 377.433 213.983 356.819 199.587 342.388C185.191 327.957 164.36 319.47 144.001 319.428L144.001 278.099C159.222 278.455 174.327 280.93 188.538 286.831C212.1 296.614 231.35 312.419 244.154 332.585Z" fill="#38BDAE"/>
<path d="M410.157 299.846C430.586 286.229 455.247 279.682 476.515 279.682V320.83C455.005 320.83 434.391 330.017 419.96 344.412C405.529 358.808 397.043 379.64 397 399.998H355.671C356.027 384.777 358.503 369.672 364.403 355.462C374.186 331.9 389.991 312.649 410.157 299.846Z" fill="#F58773"/>
<path d="M118.205 60.6858C99.7317 60.6858 81.6731 66.1638 66.313 76.4271C50.9529 86.6904 38.9812 101.278 31.9117 118.345C24.8422 135.412 22.9925 154.193 26.5965 172.311C30.2005 190.43 39.0963 207.072 52.159 220.135C65.2217 233.198 81.8645 242.094 99.983 245.698C118.101 249.302 136.882 247.452 153.949 240.382C171.016 233.313 185.604 221.341 195.867 205.981C206.13 190.621 211.608 172.562 211.608 154.089C211.608 141.823 209.192 129.677 204.498 118.345C199.804 107.013 192.924 96.7163 184.251 88.043C175.578 79.3697 165.281 72.4896 153.949 67.7957C142.617 63.1017 130.471 60.6858 118.205 60.6858Z" fill="#F58773"/>
<path d="M257.937 60.8181C271.554 81.2472 278.1 105.908 278.1 127.176L236.952 127.176C236.952 105.666 227.766 85.0524 213.37 70.6214C198.974 56.1905 178.143 47.7038 157.784 47.6613L157.784 6.33251C173.006 6.68825 188.111 9.16365 202.321 15.064C225.883 24.8476 245.133 40.6522 257.937 60.8181Z" fill="white"/>
</svg>
