<svg width="331" height="309" viewBox="0 0 331 309" fill="none" xmlns="http://www.w3.org/2000/svg">
<path d="M246.984 181.641C272.849 164.324 304.072 156 331 156V208.326C303.766 208.326 277.667 220.007 259.396 238.314C241.125 256.621 230.38 283.111 230.326 309H178C178.45 289.644 181.584 270.435 189.055 252.365C201.442 222.402 221.452 197.922 246.984 181.641Z" fill="#38BDAE"/>
<path d="M126.527 224.984C143.73 250.849 152 282.072 152 309L100.016 309C100.016 281.766 88.4109 255.667 70.224 237.396C52.0371 219.125 25.7201 208.38 -2.28726e-06 208.326L0 156C19.2299 156.45 38.3128 159.584 56.265 167.055C86.032 179.442 110.352 199.452 126.527 224.984Z" fill="#38BDAE"/>
<path d="M63.7304 96.3036C66.0503 93.9836 69.0062 92.4037 72.2241 91.7636C75.442 91.1235 78.7775 91.452 81.8087 92.7076C84.8399 93.9632 87.4307 96.0894 89.2535 98.8174C91.0763 101.545 92.0492 104.753 92.0492 108.034C92.0492 111.315 91.0763 114.522 89.2535 117.25C87.4307 119.978 84.8399 122.104 81.8087 123.36C78.7775 124.615 75.442 124.944 72.2241 124.304C69.0062 123.664 66.0503 122.084 63.7303 119.764C60.6193 116.653 58.8716 112.433 58.8716 108.034C58.8716 103.634 60.6193 99.4146 63.7304 96.3036Z" fill="white"/>
<path d="M148.304 11.7301C150.624 9.41011 153.58 7.83018 156.798 7.19009C160.016 6.55001 163.351 6.87852 166.382 8.13409C169.414 9.38966 172.004 11.5159 173.827 14.2439C175.65 16.9719 176.623 20.1792 176.623 23.4601C176.623 26.7411 175.65 29.9484 173.827 32.6764C172.004 35.4044 169.414 37.5306 166.382 38.7862C163.351 40.0418 160.016 40.3703 156.798 39.7302C153.58 39.0901 150.624 37.5102 148.304 35.1902C145.193 32.0792 143.445 27.8598 143.445 23.4601C143.445 19.0605 145.193 14.8411 148.304 11.7301Z" fill="white"/>
<path d="M106.017 54.0169C108.337 51.6969 111.293 50.117 114.511 49.4769C117.729 48.8368 121.065 49.1654 124.096 50.4209C127.127 51.6765 129.718 53.8027 131.541 56.5307C133.363 59.2587 134.336 62.466 134.336 65.747C134.336 69.0279 133.363 72.2352 131.541 74.9632C129.718 77.6912 127.127 79.8175 124.096 81.073C121.065 82.3286 117.729 82.6571 114.511 82.017C111.293 81.377 108.337 79.797 106.017 77.477C102.906 74.366 101.159 70.1466 101.159 65.747C101.159 61.3474 102.906 57.1279 106.017 54.0169Z" fill="white"/>
<path d="M106.032 138.605C108.352 136.285 111.308 134.705 114.526 134.065C117.744 133.425 121.079 133.754 124.11 135.009C127.141 136.265 129.732 138.391 131.555 141.119C133.378 143.847 134.351 147.054 134.351 150.335C134.351 153.616 133.378 156.823 131.555 159.551C129.732 162.279 127.141 164.406 124.11 165.661C121.079 166.917 117.744 167.245 114.526 166.605C111.308 165.965 108.352 164.385 106.032 162.065C102.921 158.954 101.173 154.735 101.173 150.335C101.173 145.936 102.921 141.716 106.032 138.605Z" fill="#F58773"/>
<path d="M190.606 54.0316C192.926 51.7116 195.881 50.1317 199.099 49.4916C202.317 48.8515 205.653 49.18 208.684 50.4356C211.715 51.6911 214.306 53.8174 216.129 56.5454C217.952 59.2734 218.924 62.4807 218.924 65.7616C218.924 69.0426 217.952 72.2499 216.129 74.9779C214.306 77.7059 211.715 79.8321 208.684 81.0877C205.653 82.3433 202.317 82.6718 199.099 82.0317C195.881 81.3916 192.926 79.8117 190.606 77.4917C187.495 74.3807 185.747 70.1613 185.747 65.7616C185.747 61.362 187.495 57.1426 190.606 54.0316Z" fill="white"/>
<path d="M148.319 96.3184C150.639 93.9985 153.594 92.4185 156.812 91.7784C160.03 91.1384 163.366 91.4669 166.397 92.7224C169.428 93.978 172.019 96.1042 173.842 98.8322C175.665 101.56 176.637 104.768 176.637 108.048C176.637 111.329 175.665 114.537 173.842 117.265C172.019 119.993 169.428 122.119 166.397 123.375C163.366 124.63 160.03 124.959 156.812 124.319C153.594 123.678 150.639 122.099 148.319 119.779C145.208 116.668 143.46 112.448 143.46 108.048C143.46 103.649 145.208 99.4294 148.319 96.3184Z" fill="white"/>
<path d="M148.304 180.878C150.624 178.558 153.58 176.978 156.798 176.338C160.016 175.698 163.351 176.026 166.382 177.282C169.414 178.537 172.004 180.663 173.827 183.392C175.65 186.12 176.623 189.327 176.623 192.608C176.623 195.889 175.65 199.096 173.827 201.824C172.004 204.552 169.414 206.678 166.382 207.934C163.351 209.189 160.016 209.518 156.798 208.878C153.58 208.238 150.624 206.658 148.304 204.338C145.193 201.227 143.445 197.007 143.445 192.608C143.445 188.208 145.193 183.989 148.304 180.878Z" fill="#F58773"/>
<path d="M232.878 96.304C235.198 93.984 238.154 92.4041 241.372 91.764C244.59 91.1239 247.925 91.4524 250.956 92.708C253.988 93.9635 256.579 96.0898 258.401 98.8178C260.224 101.546 261.197 104.753 261.197 108.034C261.197 111.315 260.224 114.522 258.401 117.25C256.579 119.978 253.988 122.105 250.957 123.36C247.925 124.616 244.59 124.944 241.372 124.304C238.154 123.664 235.198 122.084 232.878 119.764C229.767 116.653 228.019 112.434 228.019 108.034C228.019 103.634 229.767 99.415 232.878 96.304Z" fill="white"/>
<path d="M190.591 138.591C192.911 136.271 195.867 134.691 199.085 134.051C202.302 133.411 205.638 133.739 208.669 134.995C211.7 136.251 214.291 138.377 216.114 141.105C217.937 143.833 218.91 147.04 218.91 150.321C218.91 153.602 217.937 156.809 216.114 159.537C214.291 162.265 211.7 164.392 208.669 165.647C205.638 166.903 202.302 167.231 199.085 166.591C195.867 165.951 192.911 164.371 190.591 162.051C187.48 158.94 185.732 154.721 185.732 150.321C185.732 145.921 187.48 141.702 190.591 138.591Z" fill="#F58773"/>
</svg>
